<?xml version="1.0" encoding="utf-8"?>
<!-- Generator: Adobe Illustrator 25.3.0, SVG Export Plug-In . SVG Version: 6.00 Build 0)  -->
<svg version="1.1" id="Calque_1" xmlns="http://www.w3.org/2000/svg" xmlns:xlink="http://www.w3.org/1999/xlink" x="0px" y="0px"
	 viewBox="0 0 800 800" style="enable-background:new 0 0 800 800;" xml:space="preserve">
<style type="text/css">
	.st0{fill:#9CCFD3;}
</style>
<g>
	<path class="st0" d="M401.2,480.4C400.4,480.8,400.8,480.8,401.2,480.4L401.2,480.4z"/>
	<path class="st0" d="M409,228.7c0,0-0.1,0.1-0.1,0.1C408.9,228.8,409,228.7,409,228.7z"/>
	<path class="st0" d="M660,360.2c-0.4-1.6-2.3-2.7-3.9-2c-5.5,2.3-10.9,4.3-16.8,5.5c-2.7,0.4-5.1,0.8-7.8,1.2
		c4.7-4.7,7.8-10.5,8.2-17.6c0-3.9-6.2-3.9-6.2,0c0,3.5-1.2,6.6-3.1,9.4c-8.6,13.3-26.5,14.8-39,22.2c-3.5,2-7,4.7-10.1,7
		c-0.4,0-0.8,0.4-1.2,0.8c0.4-7,0-14.1,0.8-21.1c0.4-2.3,1.2-4.3,2-6.2c3.5-1.2,7-0.8,10.9-1.6c3.5-1.2,6.6-2.7,9.4-5.1
		c0.4-0.4,0.4-0.4,0.8-0.8c0.4,0.4,1.2,0.8,2,0.8c8.6,0,16.4-5.9,19.1-13.7c0.4-1.6-0.8-3.1-2.3-3.9c-1.6-0.4-3.1,0.8-3.9,2.3
		c0,0-0.4,0.8,0,0.4c0,0,0,0.4-0.4,0.4c0,0.4-0.4,0.8-0.4,1.2c-0.4,0.4-0.4,0.8-0.8,1.2c0,0,0,0.4-0.4,0.4c0,0,0,0,0,0.4
		c-0.4,0.8-1.2,1.2-1.6,2c-0.4,0.4-0.4,0.4-0.8,0.8c0,0-0.4,0.4-0.8,0.4c-0.8,0.4-1.6,0.8-2,1.2c-0.4,0-0.4,0-0.8,0.4
		c-0.4,0-0.8,0.4-1.2,0.4c3.1-3.9,5.9-8.2,8.6-12.5c2-3.5-3.5-6.2-5.5-2.7c-3.9,6.2-7.8,12.5-13.3,17.2c-2.3,2-5.1,3.5-8.2,4.3
		c-1.2,0.4-2.7,0.4-4.3,0.8c0.4-0.4,0.8-1.2,1.2-1.6c4.3-6.2,8.6-12.1,13.3-18c2.3-3.1-2-7.4-4.3-4.3c-1.6,2-2.7,3.5-4.3,5.5
		c0.4-1.2,0.4-2.3,0.8-3.5c0.4-0.8,0-1.6-0.4-2.3c-0.4-0.8-1.2-1.2-2-1.6c-0.8-0.4-1.6,0-2.3,0.4c-0.8,0.4-1.2,1.2-1.6,2
		c-1.6,3.9-1.6,8.2-0.8,12.1v0.4c-1.2,2-2.7,3.5-3.9,5.5c0,0.4-0.4,0.4-0.4,0.8c-1.6-9.4-2.3-19.5,3.1-27.3c1.2-1.2,1.2-3.1,0-4.3
		c-1.2-1.2-3.5-1.2-4.3,0c-1.6,2.3-3.1,4.7-3.9,7c-0.4-2-0.8-3.5-0.8-5.5c-0.4-5.1,0.8-11.3-3.9-14.4c-1.6-0.8-3.5,0-4.3,1.2
		c-0.8,1.6,0,3.1,1.2,4.3c0,0.4,0,0.4,0.4,0.8c0,0.4,0,0,0,0.4c0,1.2,0,2.3,0,3.5c0,2.3,0.4,4.3,0.4,6.6c0.8,5.1,2,9.8,4.3,14.4
		c-0.4,6.6,1.2,13.3,2.3,19.5v0.4c-1.2,2.3-2.3,5.1-2.7,7.8c-1.2,5.9-0.8,12.1-0.8,18c-0.4-2-1.2-3.9-2-5.5
		c-1.6-3.5-3.1-6.6-5.1-9.8c-2-3.9-4.3-8.6-2.7-12.9c0.8-1.6,0.4-3.1-1.2-4.3c-1.2-0.8-3.5-0.4-4.3,1.2c-0.4,1.2-0.8,2.3-0.8,3.5
		c0,0,0,0-0.4,0l-0.4-0.4c0,0,0,0-0.4,0h-0.4l-0.4-0.4c-0.4-0.4-1.2-0.8-1.6-1.2l-0.4-0.4c0-0.4-0.4-0.4-0.4-0.8l-0.4-0.4v-0.4v-0.4
		v-0.4v-0.4c0,0,0,0,0-0.4c0.8-1.6,0-3.5-1.2-4.3c-1.6-0.8-3.5,0-4.3,1.2c-1.6,3.1-0.8,7,1.2,9.4c1.2,1.6,2.7,2.7,4.3,3.9
		c0.4,0,0.4,0.4,0.8,0.4c0.4,0.4,0.8,0.4,1.2,0.8c0.8,0.8,1.6,1.2,2,2c0.4,0.4,0.8,0.8,1.2,0.8c1.6,4.7,4.3,9,6.6,13.7
		c3.5,7,5.9,15.6,1.2,22.6c-0.4,0.8-0.4,1.6-0.4,2c-4.3,4.3-8.6,9-13.3,12.9c-1.2,1.2-2.7,2.3-3.9,3.5l-0.4,0.4
		c-2,1.6-3.5,3.1-5.5,4.7c2-5.1,3.5-10.1,4.7-15.2c1.2-3.9,1.6-7.4,0-11.3c-1.6-3.9-4.3-7.8-5.9-11.7c-0.4-0.8-0.4-1.2-0.8-2
		c3.1-3.5,5.9-7.8,5.5-12.9c-0.4-2.3-1.2-4.3-2-6.6c-0.4-0.8-0.8-2-0.8-3.1v-0.4v-0.4c0-0.4,0-0.4,0-0.8c0.4-1.6-0.8-3.1-2.3-3.9
		c-1.6-0.4-3.5,0.8-3.9,2.3c-0.4,2.3,0,4.7,0.8,7c0.8,2,1.6,3.9,2,5.9v0.4c0,0.4,0,0.4,0,0.8c0,0.4,0,0.4,0,0.8s-0.4,1.2-0.4,1.6
		s-0.4,0.4-0.4,0.8c-0.4,0.4-0.4,0.8-0.8,1.2c0,0,0,0,0,0.4c-2-5.9-3.5-11.7-5.1-17.6c-0.8-2.7-1.6-5.1-2-7.8c-0.4-3.5,0-7,0.8-10.1
		c4.7,0.8,9.4-0.8,13.3-3.5c3.9-2.3,7.4-6.2,7.8-10.9c0.4-1.6-0.4-3.1-2.3-3.9c-1.6-0.4-3.5,0.8-3.9,2.3c0,0.4,0,0.8-0.4,1.6
		c0,0,0,0,0,0.4v0.4c0,0.4-0.4,0.8-0.4,1.2c0,0.4-0.4,0.4-0.4,0.8c-0.8,0.8-1.2,1.6-2,2c0,0-0.4,0.4-0.8,0.4
		c-0.4,0.4-0.8,0.4-1.2,0.8c-0.8,0.4-1.6,1.2-2.3,1.6c0,0-0.4,0-0.4,0.4h-0.4c-0.4,0-0.8,0.4-1.6,0.4c-0.4,0-0.8,0.4-1.2,0.4h-0.4
		h-0.4c-0.4,0-0.4,0-0.8,0c2-3.5,4.3-6.6,5.9-9.8c2-3.5-3.5-6.2-5.5-2.7c-2.3,4.3-5.5,8.2-7.4,12.9c-0.4,0.4-0.4,0.8-0.4,1.6
		c-0.8-2.3-1.2-4.7-2-7.4c-1.2-3.9-7-2-5.9,1.6c2,7.4,3.9,14.4,5.9,21.9c0,0.4,0,0.4,0,0.8c-1.6-1.6-3.1-2.7-4.3-4.7
		c-1.6-2.3-2.3-4.7-2.3-7.4c-0.4-3.9-6.2-3.9-6.2,0c0.4,5.9,3.1,11.3,7.4,15.2c2,1.6,3.9,3.1,5.5,5.1c1.6,1.6,2.7,3.1,3.1,4.7
		c0,0.4,0.4,0.8,0.4,1.2c0.8,2.3,1.6,5.1,2.3,7.4c-0.4,0-0.4-0.4-0.8-0.4c-2.7-1.6-5.9-2.3-8.6-3.5c-2.3-0.8-4.3-1.6-6.2-3.5
		c-1.2-1.2-2-2.7-1.6-4.3c1.2-3.9-4.7-5.1-5.9-1.6c-0.8,2-0.4,3.9,0.4,5.9c-2.3,0-5.1,0-7.4,0c-1.6,0-3.1,1.6-3.1,3.1
		c0,0.8,0.4,1.6,0.8,2.3c0.8,0.4,1.6,0.8,2.3,0.8c3.5,0,7,0,10.5,0c0.4,0,0.8,0,1.2-0.4c0.8,0.8,2,1.6,3.1,2c3.1,1.6,6.2,2,9.4,3.5
		c1.6,0.8,2.7,1.6,3.9,2.3c0,0.4,0.4,0.4,0.4,0.8c-0.4,0-1.2,0.4-1.6,0.4c-1.2,0.4-2,0.4-3.1,0.8h-0.4c-0.4,0-0.4,0-0.8,0
		c-0.4,0-0.8,0-1.6,0c-0.4,0-1.2,0-1.6,0c-0.4,0-0.4,0-0.8,0h-0.4c-0.8,0-2-0.4-2.7-0.8c0,0-0.4,0-0.4-0.4c-0.4-0.4-0.8-0.4-1.2-0.8
		l-0.4-0.4l-0.4-0.4c-0.4-0.4-0.8-0.8-1.2-1.2c-1.2-1.2-3.1-1.2-4.3,0s-1.2,3.1,0,4.3c3.1,3.5,8.2,5.1,13.3,5.1
		c3.9,0,7.8-1.2,11.3-2.3c0.8,0.4,1.6,0.4,2.3,0c1.2,2.7,2.7,5.5,3.9,8.2c0.8,1.6,2,3.1,2.3,5.1c0.4,2-0.4,3.9-0.8,5.9
		c-2.3,8.6-5.1,16.8-8.6,24.6c-7,5.9-14.4,11.3-21.9,17.2c-7.8,5.9-15.6,12.1-23.8,18c0-0.8,0-1.2,0-2c0.4-3.5,1.2-6.6,3.1-9.8
		c4.7-6.2,8.6-12.5,11.3-19.5c1.6-4.3,2.7-9,3.1-13.3c0.4-0.4,0.8-0.8,1.2-1.2c0.8-2.3,2-4.7,2.7-7c0.4-1.2,0.8-2,1.2-3.1
		c0.4,0,0.8,0,1.2,0c4.3-0.8,7.4-5.1,7.4-9.4c0-1.6-1.6-3.1-3.1-3.1c-1.6,0-3.1,1.6-3.1,3.1c0,0.4,0,0.8-0.4,1.2c0,0,0,0.4-0.4,0.4
		l-0.8,0.4l-0.4,0.4c-0.4,0-0.8,0.4-1.2,0.4c0,0,0,0-0.4,0c-0.4,0-0.8,0-1.2,0s-1.2,0.4-1.6,0.8c-0.8,0.4-1.6,1.6-2,2.3
		c-0.8-5.1-2.7-9.8-5.5-14.1c-2-3.5-7.4-0.4-5.5,3.1c5.9,9.8,6.6,21.1,3.5,31.6c-0.4-0.4-0.4-0.8-0.8-1.2c-1.2-2.7-3.1-5.5-5.1-7.4
		c1.6-2.3,2.3-5.1,2.7-7.8c0.4-3.1-0.4-6.2-2-9c-0.8-1.6-2.7-2-4.3-1.2c-1.6,0.8-2,2.7-1.2,4.3c0,0.4,0.4,0.4,0.4,0.8c0,0,0,0,0,0.4
		s0.4,1.2,0.4,1.6v0.4c0,0.4,0,0.4,0,0.8s0,1.2,0,2c0,0.4,0,0.4,0,0.8c0,0.4-0.4,1.2-0.4,1.6c0,0,0,0,0,0.4v0.4
		c-1.2-1.2-2-2.3-2.7-3.5c-1.2-2-2.3-5.1-1.2-7.4c0.8-1.6,0.4-3.5-1.2-4.3c-1.6-0.8-3.5-0.4-4.3,1.2c-3.1,7.4,1.2,14.1,5.9,19.1
		c0.4,0.4,0.8,1.2,1.6,1.6c-2.3-0.4-4.7-0.8-7-1.2c-2-0.4-4.3-0.4-6.2-1.6c-2-1.2-2.7-3.5-3.9-5.5c-2.7-3.5-7-6.2-11.7-6.6
		c-1.6,0-3.1,0.4-3.9,2.3c-0.4,1.6,0.8,3.5,2.3,3.9c4.3,0.4,7.4,2.7,9.8,6.6c0.4,0.4,0.8,1.2,1.2,1.6c-0.4,0.4-0.4,0.8-0.8,1.2
		c-0.4,0.8-0.8,1.2-1.6,1.6c-0.8,0.4-1.2,0.8-1.6,1.6c-0.4,0.8-0.4,1.6-0.4,2.3s0.8,1.6,1.6,2c0.8,0.4,1.6,0.4,2.3,0.4
		c2-0.4,3.5-2.3,4.7-4.3c0-0.4,0.4-0.4,0.4-0.8c1.2,0.8,2.7,1.2,4.3,1.6c3.5,0.8,7,0.8,10.5,1.6c2,0.4,4.7,1.2,6.2,2.7
		c1.2,2.3,2,4.7,2,7c-1.2,2.3-2.3,4.7-3.9,7c-2,2.7-4.3,5.5-5.9,8.6c-1.6,2.7-2.3,5.9-2.7,9c0,0.4,0,0.8,0,1.6c-0.8-2-2-3.9-3.1-5.5
		c0,0,0,0,0-0.4c-0.8-1.2-1.2-2-2-2.7c-0.8-0.8-1.2-1.6-2-2.3c0.8-3.9,0.4-8.2-0.4-12.1c-0.4-1.6-2.3-2.3-3.9-2
		c-0.8,0-1.6,0.8-2,1.6c-0.4,0.8-0.4,1.6-0.4,2.3c0,0.8,0.4,1.2,0.4,2c0,1.2,0.4,2.3,0.4,3.9c-0.4-0.4-1.2-0.8-1.6-1.2
		c-2-1.2-3.9-2.3-5.9-3.1c-1.6-0.8-3.1-1.2-3.5-3.1c-0.8-3.9-6.6-2.3-5.9,1.6c0.8,4.3,5.1,5.9,8.6,7.8c2,1.2,3.9,2.3,5.9,3.5
		c-0.8,0-2-0.4-2.7-0.4c-1.6-0.4-3.1-0.4-4.7,0c-0.8,0.4-2,0.8-2.7,1.6c-0.4,0.4-0.8,1.2-1.2,1.6c0,0-0.4,0-0.8,0
		c-0.8-0.4-1.6-0.8-2.3-1.2c-3.1-1.6-6.2-3.5-9-5.9c-3.1-2.7-7.4,2-4.3,4.3c3.1,2.7,6.2,5.1,9.8,6.6c2.7,1.6,6.6,3.5,9.8,1.2
		c0.8-0.4,1.6-1.2,2-2l0.4-0.4h0.4c1.6,0,3.1,0.4,4.7,0.8c2.7,0.4,5.9,1.2,8.2,2.3c0.4,0.8,0.8,1.6,1.2,2.3c1.2,2.3,2.3,5.1,2.3,7.8
		c-2.7,2-5.5,3.5-8.2,5.5c-7,4.3-14.8,8.6-22.2,11.7c-7.4,3.1-14.8,5.5-22.6,8.2c-2.3,0.8-5.1,2-7.4,2.7c2.3-4.7,3.5-9.8,4.3-15.2
		c0.4-3.5,0.4-7.4-0.4-10.9c1.2-1.6,2.3-2.7,3.5-3.9c1.6,2.3,4.3,4.3,7,5.1c3.9,0.8,8.2-0.4,10.9-3.1c1.2-1.2,1.2-3.1,0-4.3
		c-1.2-1.2-3.1-1.2-4.3,0l-0.4,0.4c-0.4,0-0.4,0.4-0.8,0.4c0,0-0.4,0-0.4,0.4h-0.4h-0.4c-0.4,0-0.4,0-0.8,0.4h-0.4
		c-0.4,0-0.8,0-0.8,0h-0.4c-0.4,0-0.8-0.4-0.8-0.4s-0.4,0-0.4-0.4c-0.4,0-0.4-0.4-0.8-0.4l-0.4-0.4c-0.4-0.4-0.4-0.4-0.8-0.8
		c0,0,0,0,0-0.4c2-1.2,3.5-2,5.5-3.1c1.6-0.8,2-2.7,1.2-4.3s-2.7-2-4.3-1.2c-2.7,1.6-5.5,3.1-8.2,4.7c-1.6,1.2-3.1,2.3-4.7,3.5
		c-0.8-2.3-1.6-4.7-2-7c-0.8-4.7,0-9.4,0.8-14.1c0-0.4,0-1.2,0.4-1.6h0.4c0.8,0,2,0,2.7,0c2.3,0,4.3-0.4,6.2-1.6
		c2-1.2,3.1-2.7,4.7-4.7c0.8-0.8,1.2-1.6,2-2.3l0.4-0.4l0.4-0.4c0,0,0.4,0,0.4-0.4h0.4c1.6-0.4,2.7-2.3,2-3.9
		c-0.4-1.6-2.3-2.7-3.9-2c-2.3,0.8-4.3,2.3-5.9,4.3c-0.8,0.8-1.2,1.6-2,2.3c-0.4,0.4-0.8,0.8-1.2,1.2l-0.4,0.4l-0.4,0.4
		c-0.4,0-0.4,0.4-0.8,0.4h-0.4h-0.4h-0.4c-0.8,0-2,0-2.7,0c-0.4,0-0.4,0-0.8,0c0.8-2.3,2.7-3.9,4.3-5.9c2-2.3,3.5-4.7,5.1-7.4
		c1.2-2.7,2.3-5.5,2.7-8.6c0.4-1.6-0.4-5.9,1.6-6.6c1.6-0.8,2-3.1,1.2-4.3c-0.8-1.6-2.7-2-4.3-1.2c-3.5,1.6-3.9,5.5-4.3,8.6
		c-0.4,2.7-0.8,5.9-2,8.2c-0.8,2-2,3.9-3.5,5.9c0-7.8-0.8-15.6-2-23c-0.8-3.9-6.6-2.3-5.9,1.6c1.2,7,2,14.1,2,21.1
		c-1.6-2.3-3.5-4.7-5.1-7c-2-2.3-3.9-5.1-3.9-8.2c0-3.1,0.4-6.2-1.2-9.4c-2-3.5-7-0.4-5.5,3.1c1.2,2.3,0,5.5,0.4,7.8
		c0.4,3.5,2,6.2,4.3,8.6c1.2,1.6,2.3,3.1,3.5,4.7c-1.2-0.8-2.7-1.6-3.9-2.3c-2.3-1.2-6.2-2.3-6.6-5.1c-0.4-1.6-2.3-2.7-3.9-2
		c-1.6,0.4-2.3,2.3-2,3.9c0.8,3.5,3.9,5.9,7,7.4c2.7,1.6,5.5,2.7,8.2,4.7c4.7,3.1,8.2,7.8,7.4,13.7c0,0.4,0,0.4,0,0.8
		c-0.4,3.5-1.2,7.4-0.8,10.9c0.4,4.3,2,8.2,3.1,12.5c1.2,3.9,1.6,7.8,1.6,11.7c-0.4,7.8-2.7,15.6-7.4,21.9c-2,0.8-3.5,1.6-5.5,2.3
		c-7.4,3.5-14.4,8.2-21.1,13.3c-2.3,1.6-4.3,3.5-6.6,5.1c3.1-6.2,5.1-12.9,5.1-19.9c0-5.9-3.5-10.9-4.3-16.8c0-1.2,0-2,0-3.1
		c0.4,0,1.2,0,1.6-0.4c2.7-1.6,5.9-3.5,8.6-5.1c6.6,5.1,16.8,3.5,21.1-3.9c0.8-1.6,0-3.5-1.2-4.3c-1.6-0.8-3.5,0-4.3,1.2
		c0,0,0,0.4-0.4,0.4c-0.4,0.4-0.4,0.8-0.8,0.8l-0.4,0.4c-0.4,0-0.4,0.4-0.8,0.4c-0.4,0-0.8,0.4-0.8,0.4s-0.4,0-0.4,0.4
		c-0.4,0.4-1.2,0.4-1.6,0.4H395h-0.4c-0.4,0-0.8,0-1.2,0H393c-0.4,0-0.8,0-1.2,0c-0.4,0-0.4,0-0.8-0.4c0,0,0.4,0,0.4-0.4
		c2.3-1.6,3.9-3.5,4.7-6.2c0.4-0.8,0.8-3.9,2-3.9c1.6,0,3.1-1.6,3.1-3.1s-1.6-3.1-3.1-3.1c-2.7,0.4-5.1,2-6.2,4.7
		c-0.8,2-1.2,4.7-2.7,6.2c-2.3,2-5.1,3.1-7.4,4.3c-1.6,1.2-3.5,2-5.1,3.1c0.8-4.3,2-8.2,2.7-12.5c0.8-3.9-5.1-5.5-5.9-1.6
		c-0.4,2.3-1.2,4.7-1.6,7c-0.8-1.2-1.6-2.3-2.3-3.9c-0.4-0.4-0.8-1.2-0.8-1.6c0-0.4-0.4-0.4-0.4-0.8s0-0.8-0.4-0.8v-0.4
		c0,0,0-0.4,0.4-0.4c0,0,0-0.4,0.4-0.4c0,0,0,0,0.4-0.4c0.8-0.8,1.6-1.6,2.3-2.3c0.4-0.4,0.8-0.8,1.6-1.2c0.4,0,0.4-0.4,0.8-0.4
		c0,0,0.4,0,0.4-0.4c0.8-0.4,1.6-1.2,2.3-1.6c2.3-1.6,3.9-3.5,4.7-6.2s0.4-5.5-1.6-7.4c-1.2-1.2-3.1-1.2-4.3,0
		c-1.2,1.2-1.2,3.1,0,4.3c0,0.2,0,0.3,0,0.3c0,0.1,0,0.2,0,0.5c-0.4,0.4-0.4,0.8-0.8,1.2l-0.4,0.4l-0.4,0.4c-0.8,0.4-1.2,1.2-2,1.6
		c-1.2,0.8-2.3,1.6-3.5,2.7c0-2.7-0.4-5.5-0.4-7.8c0-3.9-6.2-3.9-6.2,0c0,4.3,0.4,8.6,0.4,12.9c0,3.5,0.8,6.2,2.3,9.4
		c1.2,2.3,2.7,4.7,4.3,6.6c0.4,0.8,1.2,2.3,1.6,2.7c0.4,0.4,0.4,1.2,0.4,1.6c-0.4,2.3-0.8,4.3-0.8,6.6c0,1.2,0,2,0.4,3.1
		c-0.8-0.4-2-0.8-2.7-0.8c-0.8,0-1.6,0-2-0.4c-0.8-0.4-0.8-2-1.2-2.3c-2.7-8.6-5.1-17.2-7.8-25.8c-1.2-3.9-7-2-5.9,1.6
		c1.1,3.4,1.9,6.5,3,9.9c-0.1-0.2-0.3-0.2-0.3-0.5l-0.4-0.8c0-0.4-0.4-0.4-0.4-0.8c-0.8-1.2-1.6-2.3-2.3-3.9c-0.8-1.6-2.7-2-4.3-1.2
		c-1.6,0.8-1.6,2.7-1.2,4.3c2.7,5.9,7.8,10.1,12.5,14.1c0.4,2,1.2,3.9,2,5.5c0.8,2,2,3.9,3.5,5.1c0.8,0.4,2,0.8,2.7,0.8
		c0.8,0,1.6,0,2.3,0.4c1.2,0.8,1.2,2.3,1.6,3.5c0.8,1.6,1.6,3.1,2.7,4.7c0.8,0.8,1.6,0.8,2.3,0.8c0.4,4.7-0.8,9.4-2.3,13.7
		c-2.3,5.9-5.5,11.3-9.8,16c0,0-0.4,0-0.4,0.4c-7,3.5-14.8,5.9-22.6,7.8c-16,4.3-31.2,10.1-45.3,18.7c-13.3,8.2-23.8,19.1-34.7,29.7
		c-7,6.6-14.8,13.7-23.4,17.6c0.4-0.4,0.8-0.8,0.8-1.2c26.2-30.4,46.1-65.6,66-100.3c20.7-35.5,41.4-71.4,61.7-106.9
		c15.2-26.2,30.4-51.9,44.9-78.1c0.4,0,1.2,0.4,1.6,0c2-0.4,3.9,0,5.9,0.8c-0.8,4.7-1.2,9-1.2,13.7c0,5.1,1.2,9.8,3.1,14.4
		c0.8,1.6,1.2,3.1,1.6,4.7c0,0.4,0.4,0.8,0.4,1.2c0,0.4,0,0.4,0,0.8c0,0.8,0,1.6,0,2.3v1.6c-1.2,1.2-2,2.7-1.2,4.3
		c0.8,1.2,3.1,2,4.3,1.2c3.5-2.7,3.5-7.8,2.7-11.7c-0.8-3.9-2.7-7-3.5-10.9c-0.8-2.7-0.8-5.1-1.2-7.8c0-2.3,0-4.3,0.4-6.6
		c2,3.9,3.5,8.6,4.7,12.9c2,6.6,3.5,12.5,7,18.3c2,3.1,3.9,6.6,6.2,9.4c1.2,1.6,2.3,3.1,3.9,3.9c1.2,0.8,3.1,1.2,3.5,2.3
		c0.8,1.6,0.8,2.7,2.3,3.9c1.2,1.2,3.1,1.6,4.7,2c3.9,1.6,7,3.9,9.8,6.6c2.7,2.7,7-1.6,4.3-4.3c-2.7-2.7-5.9-5.1-9.4-7
		c-0.8-0.4-1.6-0.8-2.3-1.2c-0.8-0.4-2-0.4-2.3-0.8c-1.2-0.8-1.2-2.7-2-3.9c-1.2-1.2-2.3-1.6-3.9-2.7c-1.6-0.8-2.3-2.3-3.5-3.9
		c-2-3.1-4.3-5.9-5.9-9.4c-3.1-5.9-4.7-11.7-6.2-18c-0.8-2.7-1.6-5.5-2.7-8.2c1.6,0.8,3.5,1.6,5.5,2c2,0.8,3.9,1.2,5.5,2.3
		c1.6,1.2,2.7,2.7,4.3,4.3l0.4,0.4v0.4c0.8,7.8,4.3,14.8,10.5,19.9c6.2,5.1,13.7,7.8,21.5,8.2c1.6,0,3.1-1.6,3.1-3.1
		c0-2-1.6-2.7-3.1-3.1c-3.5-0.4-7.4-1.2-10.5-2.7c0.8,0,1.6-0.4,2-0.4c0.8-0.4,2-0.4,2.7-0.4h0.4h0.4c0.4,0,0.8,0,1.2,0
		c3.9-0.4,7.4-0.4,11.3-0.4c1.6,0,3.1-1.6,3.1-3.1c0-2-1.6-2.7-3.1-3.1c-7.8-0.4-15.6,0.4-23.4,2.7c-0.8,0-1.2,0.4-1.6,1.2
		c-3.5-2.7-6.2-6.6-7.4-10.9c9,4.3,20.3,4.3,28.9-0.8c3.5-2,0.4-7-3.1-5.5c-4.7,2.3-9.8,3.5-14.8,2.7l0.4-0.4c0.4-0.8,1.2-1.2,2-1.6
		l0.4-0.4c0.4-0.4,0.8-0.4,1.2-0.8c0.8-0.4,1.6-0.8,2-1.2c0.4-0.4,0.8-0.4,1.2-0.8c0,0,0.4,0,0.4-0.4c0,0,0,0,0.4,0
		c0.8-0.4,1.6-0.4,2.3-0.8c0.8-0.4,1.6-0.4,2.3-0.4c0.2,0,0.5,0,0.8,0c0.4,0,0.8,0,1.2,0c1.6,0,3.1-1.6,3.1-3.1s-1.6-3.1-3.1-3.1
		c-8.6,0.4-16,4.7-20.7,11.7c0,0,0,0,0,0.4c-2-0.8-3.9-1.6-5.5-2.7c-3.1-2.3-5.1-5.5-8.2-7.4s-6.6-2.3-10.1-3.9
		c-2.7-1.2-5.1-3.1-7.4-5.1c-3.9-2.7-7.8-5.1-12.5-5.1c2.7-4.7,5.5-9.4,7.8-14.4c0.4,0,0.8,0,1.2,0c9.4-2.7,18.7-5.1,28.1-7.8v0.4
		c0,0.4,0,0.4,0,0.8v0.4c0,0.4-0.4,1.2-0.4,1.6c-0.4,2.7-0.4,5.9-0.8,8.6c0,3.1,0.4,6.2,2.7,8.6c1.2,1.2,2.3,2,3.9,2.7
		c0.4,0,0.4,0.4,0.8,0.4c0.8,0.4,0,0,0.4,0.4c0,0,0,0,0,0.4c0,1.6,1.6,3.1,3.1,3.1c2,0,2.7-1.6,3.1-3.1c0.4-3.9-3.5-5.5-6.2-7.4
		c-0.8-0.4-1.2-1.2-1.6-2c-0.4-1.2-0.4-2.3,0-3.9c0-1.6,0-3.1,0-4.3c0-1.2,0.4-2.3,0.8-3.5c0-0.8,0-1.6,0-2.3c2.7,0.8,5.1,2,7.8,2.7
		l0.4,0.4c2,1.6,3.1,3.9,3.9,6.2c1.2,2.7,2.3,5.5,4.3,7.8c4.3,5.1,10.9,6.2,17.2,7.4c1.6,0.4,3.1-0.4,3.9-2.3
		c0.4-1.6-0.8-3.5-2.3-3.9c-5.1-0.8-11.7-1.6-14.4-6.2c-1.2-2-2.3-4.3-3.1-6.6c2.3,0.8,4.3,1.6,6.6,2c3.9,1.2,8.2,3.1,12.5,3.1
		c2,0,3.5-0.4,5.5-1.2c0.4-0.4,1.2-0.8,1.6-0.8c0.4,0,1.2,0,0.8-0.4c3.5,1.6,6.6-3.9,2.7-5.5c-1.6-0.8-3.5-0.8-5.1-0.4
		c-1.6,0.4-2.7,1.6-4.3,2c-1.6,0.4-3.5,0-5.1-0.8c-2.3-0.8-4.3-1.2-6.6-2c-6.2-2-12.9-3.9-19.1-6.2c4.3-1.2,8.6-2,12.9-2
		c3.9,0,7.4,1.6,11.3,2.3c3.9,0.8,7.4,0.4,10.9-0.8c7-2.3,12.5-7.4,17.6-12.5c2.7-2.7-1.6-7-4.3-4.3c-3.1,3.1-6.6,6.2-10.5,8.6
		c4.3-5.5,9-10.5,14.1-14.8c1.2-1.2,1.2-3.1,0-4.3c-1.2-1.2-3.1-1.2-4.3,0c-7.4,6.6-13.7,14.1-19.5,22.2c-2.3,0-5.1-0.8-7.4-1.6
		c-3.9-1.2-7.4-1.6-11.3-1.2c-2.7,0.4-5.1,0.8-7.8,1.2c2.7-2.3,6.2-3.9,10.1-4.7c3.9-0.4,7.8-0.8,10.9-2.7c3.9-2.3,7-5.1,10.5-7.8
		c3.1-2.3,0-7.8-3.1-5.5c-3.5,2.7-7.4,6.2-11.3,8.2c-3.5,1.6-7.4,1.6-10.9,2.3c0,0,0-0.4,0.4-0.4c0,0,0,0,0-0.4
		c0.4-0.4,0.8-1.2,1.2-1.6c0.8-0.8,2-2,2.7-2.7l0.4-0.4c0.4-0.4,0.4-0.4,0.8-0.8c0.4-0.4,1.2-0.8,2-1.2c1.6-0.8,2-2.7,1.2-4.3
		c-0.8-1.6-2.7-2-4.3-1.2c-5.5,3.1-9.8,7.8-12.1,13.7c-0.4,0.8-0.4,1.6-0.4,2c-2.3,1.6-4.7,3.5-6.2,5.9c0,0,0,0,0-0.4
		c1.2-3.1,2-5.9,2-9.4c0.4-5.1-0.8-12.9,4.7-16c3.5-2,0.4-7.4-3.1-5.5c-6.2,3.5-7.4,11.3-7.4,18c0,3.1,0,6.2-1.2,9.4
		c-1.2,3.1-3.1,5.9-5.1,8.6c0,0,0,0.4-0.4,0.4c-7,2-14.4,3.9-21.5,5.9c12.9-23.8,25.4-48.4,35.9-73.4c0,0,0.4,0,0.4-0.4
		c3.1-1.6,6.2-3.1,9.4-4.3v0.4c2.3,3.5,5.1,7,7.8,10.1c-0.4,0.8-0.4,1.2,0,2c0,0.4,0,0.4,0,0.8c0,0.4,0,0.8,0,1.2c0,0.8,0,1.6,0,2.3
		c0,1.6,0,3.1,0,4.7c0,3.1-0.4,6.2-0.4,9.4c0,1.6,1.6,3.1,3.1,3.1c1.6,0,3.1-1.6,3.1-3.1c0-3.5,0-7,0.4-10.5c0.8,1.6,1.6,3.1,2,5.1
		c1.6,4.7,3.9,9.8,9,11.3c3.9,1.2,5.1-5.1,1.6-5.9c-1.6-0.4-2.3-1.6-3.1-3.5c-0.8-1.6-1.2-3.5-2-5.5c-0.4-1.2-0.8-2.7-1.6-3.9
		c0.8,0.4,2,0.4,2.7,0.8c2.7,0.8,5.5,1.2,7,3.9c0.8,1.6,3.1,2,4.3,1.2c1.6-0.8,1.6-2.7,1.2-4.3c-2.7-6.2-10.5-5.9-16-8.2
		c-5.5-2.7-9.4-7.8-12.9-12.9c0.4,0,0.8-0.4,1.2-0.4c5.9-1.2,11.7-0.4,17.6,1.2c2.3,0.4,5.1,1.2,7.8,1.2c0.4,0.8,0.8,1.2,1.2,1.6
		c2.7,2,5.5,3.1,8.2,3.9c4.3,7,13.3,10.1,21.1,7.8c1.6-0.4,2.3-2.3,2-3.9s-2.3-2.7-3.9-2c-0.4,0-0.8,0.4-1.2,0.4h-0.4
		c-0.8,0-1.6,0-2.3,0c-0.4,0-0.4,0-0.8,0c-0.4,0-0.8,0-1.2-0.4c-0.4,0-0.8,0-1.2-0.4H525h-0.4h-0.4c0,0-0.4,0-0.4-0.4
		c3.9-0.4,7.8-1.2,11.7-2.7c1.6-0.8,2-3.1,1.2-4.3c-0.8-1.6-2.7-1.6-4.3-1.2H532c-0.4,0-0.4,0.4-0.8,0.4c-0.4,0-1.2,0.4-1.6,0.4
		c-1.2,0.4-2.3,0.4-3.1,0.8h-0.4c-0.4,0-0.4,0-0.8,0c-0.4,0-1.2,0-1.6,0c-1.2,0-2.3,0-3.1,0h-0.4c-0.4,0-0.4,0-0.8,0
		c-0.4,0-1.2-0.4-1.6-0.4c-0.4,0-0.4,0-0.8-0.4c5.1-1.2,9.8-3.5,12.5-9c2-3.5-3.5-6.2-5.5-2.7c-2,3.1-5.1,5.1-8.6,5.9
		c1.2-2.3,2.3-4.7,3.5-7.4c2.3-4.7,6.6-8.2,11.3-10.1c3.9-1.2,2-7.4-1.6-5.9c-5.5,2-10.1,5.5-13.7,10.1c-1.6,2.3-2.7,4.7-3.5,7
		c-0.8,2-2,5.1-4.3,5.9c-0.4,0-0.4,0.4-0.8,0.4c-3.1-0.4-5.9-1.2-9-1.6c3.1-2.7,5.5-5.9,7.8-9.4c0.8-1.6,0-3.5-1.2-4.3
		c-1.6-0.8-3.5,0-4.3,1.2c-0.4,0.8-0.8,1.2-1.2,2c0,0.4-0.4,0.4-0.4,0.8l-0.4,0.4c-0.8,1.2-1.6,2-2.7,3.1c-0.8,1.2-2,2-2.7,2.7
		c-0.4,0.4-1.2,0.8-1.6,1.6c0,0-0.4,0-0.4,0.4l-0.4,0.4c-0.8,0-1.6-0.4-2.7-0.4c2.3-6.2,4.3-12.5,6.6-18.3c0.4-1.6-0.8-3.5-2.3-3.9
		c-1.6-0.4-3.1,0.8-3.9,2.3c-2.3,6.6-5.1,13.7-7.4,20.3c-5.5,0.8-10.5,2.3-15.6,4.7c3.1-7.4,5.9-14.8,8.6-22.2
		c2-5.1,3.5-10.1,5.1-15.2c2.7,1.2,5.5,1.2,8.2,0.8c0.8,0,2-0.4,2.7-0.8c0,0,0,0,0.4,0c1.2,0.8,1.6,0.8,2.7,2
		c0.8,0.8,1.6,1.6,2.3,2.7c1.6,1.6,3.1,3.5,5.1,4.3c3.5,2,9,2.3,11.7-1.2c1.2-1.2,1.2-3.1,0-4.3c-1.2-1.2-3.5-1.2-4.3,0l-0.4,0.4
		h-0.4c-0.4,0-0.4,0-0.8,0c-0.4,0-0.4,0-0.8,0h-0.4c-0.4,0-0.8-0.4-1.2-0.4l-0.4-0.4c-1.2-1.2-2.3-2.3-3.5-3.9
		c1.6,0.4,2.7,1.2,4.3,1.6c3.9,0.8,8.6-0.8,9.4-5.1c0.4-1.6-0.4-3.1-2.3-3.9c-1.6-0.4-3.5,0.8-3.9,2.3v0.4c-0.2,0-0.3,0-0.3,0
		c0,0-0.1,0-0.1,0h-0.4h-0.8c-0.4,0-0.8,0-0.8-0.4c-0.8-0.4-1.2-0.4-2-0.8c-2.7-1.2-5.5-1.6-8.6-1.2c-2.7,0.4-5.1,1.2-7.8,1.6h-0.4
		h-0.4c-0.8,0-1.2,0-2,0h-0.4h-0.4c0,0-0.4,0-0.8,0c0,0-0.4-0.4-0.8-0.4c0-0.4,0.4-0.8,0.4-1.2c0.4-0.4,0.4-1.2,0.4-1.6
		c0.4-1.6,0.8-3.1,1.6-5.1c3.9,2.7,9.8,2.7,14.4,0.8c0,0,0.4,0,0.4-0.4c0.4,0,0.4,0,0.8-0.4c5.1-2.7,10.9-3.5,16-5.5
		c6.6-2.3,9-9,10.9-14.8c1.2-3.9-4.7-5.1-5.9-1.6c-0.8,2.7-1.6,5.5-3.1,7.4c-1.6,2-3.1,2.7-5.5,3.5c-1.2,0.4-2.3,0.8-3.1,1.2
		c1.2-2.3,2.3-5.1,3.5-7.4c0.8-1.6,0.4-3.5-1.2-4.3c-1.2-0.8-3.5-0.4-4.3,1.2c-2,5.1-4.3,11.3-9.4,14.4c-2,1.2-3.9,1.6-6.2,1.6
		c-1.6,0-3.5-1.2-4.3-2.3l-0.4-0.4c1.2-3.9,2-7.8,3.1-11.7c2.7,0.4,4.3-2,6.2-3.5c2-1.6,4.3-2.3,6.6-3.5c5.1-2,10.1-4.3,14.4-7.4
		c4.7-3.1,9-7,12.9-11.3c2.7-3.1-2-7.4-4.3-4.3c-5.1,5.9-10.9,10.5-18,14.1c-3.1,1.6-6.6,3.1-10.1,4.3c-1.6,0.8-3.1,1.6-4.7,2.7
		c-0.8,0.4-1.2,0.8-2,1.2c0.8-2.7,1.2-5.5,1.6-8.2c11.7-2,21.5-12.1,21.5-24.2c0-3.9-6.2-3.9-6.2,0c0,8.2-6.2,15.6-14.4,17.6
		c0.4-2.7,0.8-5.9,1.2-8.6c9.4-7.4,15.6-18.3,17.2-30.4c0.4-1.6-0.4-3.1-2.3-3.9c-1.6-0.4-3.5,0.8-3.9,2.3c-1.2,8.2-4.3,16-9.8,22.2
		c0.8-5.9,1.2-11.3,1.6-17.2c0.4-3.9-5.9-3.9-6.2,0c-0.4,4.3-0.4,9-0.8,13.3c-0.4,2.7-0.4,5.1-0.8,7.8c-3.1-8.2-5.5-16.8-7-25.4
		c-0.4-1.6-2.3-2.7-3.9-2c-1.6,0.4-2.3,2.3-2,3.9c0.8,3.5,1.6,7,2.3,10.5c-0.8-1.2-2-2.7-2.3-3.9c-0.8-1.6-1.2-2.7-1.6-4.3
		c-0.4-1.6-2.3-2.7-3.9-2c-1.6,0.4-2.7,2.3-2,3.9c2.3,7.4,7,13.7,13.3,18c1.6,4.7,3.5,9.8,5.5,14.4c-0.8,4.3-1.6,9-2.3,13.3
		c-2-2.3-3.5-3.9-3.9-7c-0.4-3.9-0.8-7.8-3.9-10.5c-1.6-1.2-3.5-2-4.7-3.5c-0.4-0.4-1.6-1.6-1.6-2.3c1.6-3.5-3.9-6.6-5.5-2.7
		c-1.6,3.9,0,7.4,3.1,10.1c1.6,1.2,3.9,2.3,5.1,3.9c1.2,1.2,1.2,2.7,1.2,4.3c0.4,3.9,1.2,7,3.9,10.1c1.6,2,3.9,3.5,4.3,5.9
		c-1.2,5.5-2.7,10.5-3.9,15.6c-1.6-3.1-3.9-5.9-5.9-8.6c0-0.4,0.4-0.4,0.4-0.8c0.8-6.6,0-13.7-2.3-19.9c-0.8-1.6-2-2.7-3.9-2
		c-1.6,0.4-2.7,2.3-2,3.9c0.4,1.6,1.2,2.7,1.6,4.3c0,0.8,0.4,1.6,0.4,2.3c0,0.4,0,0.8,0.4,1.2v0.4c0,1.2,0,2.3,0.4,3.1
		c-2.3-3.5-4.3-7-5.1-11.3c-0.4-1.6-2.3-2.3-3.9-2c-1.6,0.4-2.3,2.3-2,3.9c0.8,4.7,2.7,8.6,5.5,12.1c-3.1-2.3-6.2-4.7-9-7
		c-2.3-2-4.7-4.3-5.5-7c-1.2-3.9-7.4-2-5.9,1.6c2.7,7.4,9.8,12.1,15.6,16.8c3.5,2.3,7,5.1,10.1,7.8c2.7,2,5.5,4.3,7.4,7
		c0,0.4,0.4,0.4,0.8,0.8c0.4,1.2,0.8,2.7,0.8,3.9c-2,6.6-4.3,13.3-6.6,19.9c-1.6-2.7-3.5-5.5-5.5-7.8c0.8-3.1,0.8-6.2,0.4-9.4
		c-0.8-3.1-2.3-6.2-4.3-8.6c-1.2-1.2-3.1-0.8-4.3,0c-0.4,0.4-0.8,1.6-0.8,2.3c0,0.8,0.4,1.6,0.8,2c0,0,0,0.4,0.4,0.4
		c0,0.4,0.4,0.4,0.4,0.8c0.4,0.4,0.8,1.2,0.8,2v0.4c0,0.4,0.4,0.8,0.4,0.8c0,0.8,0.4,1.2,0.4,2c-0.8-1.2-1.6-2-2.3-3.1
		c-7.4-10.9-14.4-21.9-21.9-32.8c-2.3-3.1-7.4,0-5.5,3.1c2.3,3.5,4.7,7,7,10.5c-0.8-0.4-1.6-0.8-2.3-0.8H434c-0.4,0-0.4-0.4-0.8-0.4
		c-0.4,0-0.4-0.4-0.8-0.4c0,0,0,0-0.4,0l-0.4-0.4l-0.4-0.4c0-1.6-0.4-3.1-2.3-3.5c-1.6-0.4-3.5,0.8-3.9,2.3
		c-0.4,3.5,1.6,6.2,4.3,8.2c1.2,0.8,2.3,1.2,3.9,1.6h0.4c0.4,0,0.8,0.4,1.2,0.4c2,1.2,4.3,2.3,6.2,3.5c0.4,0,0.4,0.4,0.8,0.4
		c0,0,0,0,0.4,0c0.4,0.4,0.8,0.8,1.2,0.8c0.4,0.4,0.8,0.8,1.2,0.8c0,0,0,0,0.4,0c0.4,0.4,0.4,0.8,0.8,0.8c2,3.1,3.9,5.9,5.9,9
		c0.8,1.2,1.6,2.3,2.3,3.5c-0.8,0-1.6,0-2,0s-0.4,0-0.8,0h-0.4c-0.4,0-0.8,0-0.8-0.4h-0.1h-0.3c-0.4-0.4-1.2-0.4-1.6-0.8
		c-0.4,0-0.4-0.4-0.8-0.4c-0.4-0.4-0.8-0.8-1.2-1.2l-0.4-0.4c0,0,0-0.4-0.4-0.4c-0.4-0.4-0.8-0.8-0.8-1.6c-0.8-1.6-2.7-2-4.3-1.2
		c-1.6,0.8-2,2.7-1.2,4.3c2.3,4.7,7,7.8,12.1,8.6c1.6,0,3.5,0,5.1,0c0.8,0,1.6,0,2.7,0c0,0,0,0,0.4,0c3.1,4.3,6.2,8.6,8.6,13.3
		c-1.2,3.1-2.3,5.9-3.5,9c-7.4,18.3-15.6,36.3-24.2,53.9c-2.7-3.1-4.7-7.4-6.2-11.3c0-0.4-0.4-0.8-0.4-1.2l0.4-0.4
		c0-0.4,0.4-0.8,0.8-1.2l0.4-0.4c0.4-0.4,0.4-0.4,0.8-0.8c0.4-0.4,0.8-0.8,1.2-1.2c0.4,0,0.4-0.4,0.8-0.4c0.4-0.4,1.2-0.8,1.6-1.2
		c0.4,0,0.4-0.4,0.8-0.4l0.4-0.4h0.4c0.4,0,0.4,0,0.8-0.4c0.8-0.4,1.2-0.4,1.6-0.8c3.9-2,7.8-7,4.7-11.3c-0.8-1.6-2.7-2-4.3-1.2
		c-1.6,0.8-2,2.7-1.2,4.3c0,0,0,0,0,0.4v0.4l-0.4,0.4l-0.4,0.4l-0.4,0.4c-0.4,0.4-0.8,0.4-1.2,0.8l-0.4,0.4c-0.4,0-0.8,0.4-1.2,0.4
		c-3.1,1.2-6.6,3.5-9,6.2c-1.2-1.6-2-2.7-3.1-3.9c-3.5-3.5-5.9-7.4-7.4-11.3l0.4-0.4c0.4-0.4,1.2-1.2,1.6-1.6c1.2-0.8,2-1.6,3.1-2.3
		c1.6-0.8,2.7-1.6,4.3-2.3c0.4,0,0.4,0,0.8,0.4c5.5,0.4,10.5,0.8,16-0.4c2.3-0.4,4.7-1.2,6.6-3.1c2-2,2.7-5.1,0.4-7.4
		c-1.2-1.2-3.1-1.2-4.3,0c-0.8,0.8-1.2,2-0.8,3.1c0,0-0.4,0-0.4,0.4c-0.4,0-0.4,0-0.8,0.4c-0.4,0-0.8,0.4-1.6,0.4
		c-0.4,0-0.8,0.4-1.6,0.4c-0.4,0-0.4,0-0.8,0c-1.6,0.4-3.1,0.4-4.7,0.4c4.3-3.5,8.2-8.2,9-14.1c0.4-1.6-0.4-3.1-2.3-3.9
		c-1.6-0.4-3.5,0.8-3.9,2.3c-0.4,3.9-2.3,6.6-5.1,9.4c0.4-2,0.8-4.3,0.8-6.2c0-1.6-1.6-3.1-3.1-3.1c-1.6,0-3.1,1.6-3.1,3.1
		c0,0.8,0,1.2,0,2c0,0,0,0,0,0.4c0,0.4,0,0.4,0,0.8c0,1.2-0.4,2.3-0.8,3.5c-0.4,1.2-0.8,2.3-1.2,3.5v0.4c0,0.4-0.4,0.8-0.4,0.8
		s0,0.4-0.4,0.4c-0.4,0-0.4,0.4-0.8,0.4c-3.1,1.6-7,3.5-9.8,5.9c0-0.8-0.4-1.6-0.4-2.3c3.9-7.8,6.2-16,7.8-24.6
		c7-5,10.5-13.5,9.4-22.1c0.1,0,0.2,0.1,0.4,0.2c-0.1-0.1-0.3-0.2-0.4-0.3c0,0,0-0.1,0-0.1c-0.4-1.6-2.3-2.3-3.9-2
		c-2,0.4-2.3,2.3-2,3.9c0,0.4,0,0.4,0,0.8c0,0.4,0,0.8,0,1.2s0,0.8,0,1.2v0.4v0.4c0,0.8-0.4,1.6-0.4,2.3c0,0.4-0.4,0.8-0.4,1.2
		c0,0,0,0.4-0.4,0.4c-0.4,0.8-0.8,1.6-1.2,2.3c0,0.4-0.4,0.4-0.4,0.8c0-2.7,0-5.5,0-8.2c-0.4-3.9-6.6-3.9-6.2,0
		c0.8,10.5-0.4,21.1-3.9,30.8c-0.4-2.3-0.8-4.7-1.2-7c-0.8-4.7-2.3-8.6-4.3-12.9c0-0.4,0-0.8,0-0.8c-1.2-10.1-0.8-20.3,2.7-29.7
		c0.4-1.6-0.8-3.5-2.3-3.9c-1.6-0.4-3.1,0.8-3.9,2.3c-2,5.9-3.1,12.1-3.1,18.3c-1.6-3.5-2.3-7.4-2-11.7c0.4-3.9-5.9-3.9-6.2,0
		c0,1.6,0,3.1,0,4.7c-0.8-0.8-1.6-1.6-2.3-2.3c-2.3-2.7-3.5-7-2-10.5c0.8-1.6,0.4-3.5-1.2-4.3c-1.2-0.8-3.5-0.4-4.3,1.2
		c-1.6,3.9-1.6,8.2-0.4,12.1c-0.4,0-0.8,0-1.2-0.4c-0.4,0-0.8-0.4-1.2-0.4c0,0-0.4,0-0.4-0.4c-0.8-0.4-1.2-0.8-2-1.2l-0.4-0.4
		c-0.4-0.4-0.4-0.4-0.8-0.8l-0.4-0.4c0,0,0,0-0.4-0.4c0,0,0,0,0,0.4c-0.4,0-0.4-0.8-0.8-0.8c-0.4-0.4-0.4-0.8-0.4-0.8v-0.4
		c-0.4-0.8-0.4-1.6-0.4-2c-0.4-1.6-2.3-2.3-3.9-2s-2.3,2.3-2,3.9c0.8,3.9,3.1,7.4,6.6,9.4c3.1,2.3,7,3.1,10.9,2.3
		c1.2,1.2,2.7,2.7,3.9,3.9c2.3,2.3,4.3,5.1,6.6,7.8c0.8,1.2,2,2.3,2.7,3.5c0.4,0.4,0.4,1.2,0.8,1.6c0.4,0.4,0.4,0.8,0.4,1.2
		s0,0.4,0.4,0.4c2,3.9,3.5,8.2,4.7,12.5c-2-0.8-3.9-1.2-5.9-2h-0.4c-5.9-2.3-10.9-6.2-12.5-12.9c-1.2-3.9-7-2-5.9,1.6
		c1.2,3.9,2.7,7,5.5,9.4h-0.4c-1.2-0.4-2.3-0.8-3.5-0.8c-0.4,0-1.2-0.4-1.6-0.4c0,0,0,0-0.4,0c-0.4,0-0.4-0.4-0.8-0.4
		c-1.2-0.4-2-0.8-2.7-1.6l-0.8-0.4c-0.4-0.4-0.8-0.4-0.8-0.8c-1.2-1.2-3.1-1.2-4.3,0c-1.2,1.2-1.2,3.1,0,4.3
		c3.5,3.1,8.6,5.1,13.3,6.2c4.7,1.2,9.4,1.6,14.1,1.6c3.1,1.2,6.2,2.3,9.4,3.1c0.4,3.5,1.2,7,1.6,10.5c-9.8-0.8-22.2-1.6-27.7-11.3
		c-2-3.5-7.4-0.4-5.5,3.1c3.1,5.1,7.4,8.6,12.5,10.5c-1.6,0.8-3.1,1.6-4.7,2.3c-0.4,0.4-0.8,0.4-1.2,0.4c0,0-0.4,0-0.4,0.4
		c-0.8,0.4-1.6,0.8-2.3,0.8c-0.8,0.4-1.6,0.4-2.3,0.8H379c0,0,0,0-0.4,0h-0.4h-0.4c-1.6,0-3.1,1.6-3.1,3.1c0,1.6,1.6,3.1,3.1,3.1
		c7.8-0.8,14.4-4.7,21.1-8.6l0.4-0.4c4.3,0.8,8.6,1.2,12.9,1.6c0.4,0,0.4,0,0.8,0c0.4,1.2,0.4,2.3,0.8,3.5c1.2,3.5,2.3,6.6,4.3,9.8
		c2,3.5,5.1,6.2,7.8,9.4c0,0.4,0.4,0.4,0.4,0.8h-0.3h-0.1c-0.1,0-0.4,0-0.4,0H425c-0.4,0-0.8-0.4-1.2-0.8c-0.4,0-0.4-0.4-0.8-0.4
		c-0.4-0.4-1.2-1.2-1.6-1.6c-0.8-1.2-2-2.3-2.7-3.1c-3.9-3.9-9.8-5.9-14.1-2c-1.2,1.2-1.2,3.1,0,4.3s3.1,1.2,4.3,0h0.4h0.4
		c0.8,0,1.6,0.4,2,0.8l0.4,0.4c0,0,0,0,0.4,0.4c0.4,0.4,1.2,0.8,1.6,1.6c0.8,1.2,2,2.3,2.7,3.1c3.1,3.1,8.2,5.9,12.5,3.9
		c2.7,5.1,4.7,10.5,8.6,14.8c0.4,0.4,0.8,0.4,1.2,0.8c-3.5,7.4-7.4,14.4-11.3,21.9c-2-4.7-4.7-9.4-7.8-13.7c0.4-0.4,0.8-1.2,0.8-2
		c0.4-5.5-0.4-10.9-1.6-16.4c-0.4-1.6-2.3-2.3-3.9-2c-1.6,0.4-2.3,2.3-2,3.9c0,0.8,0.4,1.2,0.4,2c0,0.4,0,0.8,0,0.8v0.4
		c0,0,0,0,0,0.4c0,1.2,0.4,2.3,0.4,3.9c0,1.2,0,2.3,0,3.1c-2.7-2.7-5.5-5.1-8.6-7c-4.3-3.1-9-5.1-13.7-7c2.3-4.7,2.7-10.1,1.2-14.8
		c-0.4-1.6-2.3-2.3-3.9-2s-2.7,2.3-2,3.9c0.4,0.8,0.4,1.6,0.4,2c0,1.2,0,2.3,0,3.5c0,1.2-0.4,2.3-0.8,3.5c0,0.4-0.4,0.8-0.4,0.8
		c-0.4,0-0.4-0.4-0.8-0.4c-3.1-2-6.2-3.9-8.6-7c-2.3-3.1-3.5-6.6-6.6-9.4c-3.1-2.7-7.4,2-4.3,4.3c2.3,2,3.5,4.7,5.1,7.4
		c-5.5-1.6-10.5-3.5-15.6-5.5c-1.6-0.8-3.5-0.4-4.3,1.2c-0.8,1.6-0.4,3.5,1.2,4.3c8.6,3.5,17.6,6.6,26.9,8.6c0.4,0,0.4,0,0.8,0
		l0.4,0.4c5.9,3.5,12.5,5.9,18.7,9.4c-5.9,0-11.7,1.6-17.6,2c-6.2,0.4-15.2-0.8-17.2-7.4c-1.2-3.9-7-2-5.9,1.6
		c2.7,8.6,11.7,12.1,19.9,12.1c1.6,0,3.1,0,4.3-0.4c-0.8,0.8-1.6,1.2-2.7,2c-0.8,0.4-1.6,1.2-2.3,1.6c-0.8,0.4-1.2,0.4-2,0.8h-0.4
		c-0.4,0-0.8,0-1.2,0c-0.4,0-0.4,0-0.8,0h-0.4c-1.6-0.8-3.5-0.4-4.3,1.2c-0.8,1.6-0.4,3.5,1.2,4.3c4.3,2,9,0.8,13.3-1.6
		c2-1.2,3.5-2.3,5.5-3.9c2-1.6,3.5-2.3,5.9-3.1c1.2-0.4,2.3-1.6,2.3-2.7c2.3-0.4,5.1-0.4,7.4,0.4c1.6,0.4,2.7-0.4,3.1-1.6
		c4.7,3.9,8.6,8.6,12.1,14.1h-0.4c-0.8-0.8-2-1.6-2.7-2.3c-2.7-1.6-5.5-0.8-8.2,0.4c-1.2,0.4-2,1.2-2.7,1.6
		c-0.4,0.4-0.8,0.8-1.6,1.2c-0.4,0.4-1.2,0.8-1.6,0.8c-0.1,0-0.3,0-0.4,0c-0.4,0-0.4,0-0.8,0.4c-0.4,0-0.4,0-0.8,0h-0.4
		c0,0,0,0-0.4,0c0,0,0,0-0.4,0c-0.8-1.6-2.7-2-4.3-1.2c-1.6,0.8-2,2.7-1.2,4.3c2,2.7,5.1,3.5,8.2,3.1c2.3-0.4,4.3-1.6,5.9-2.7
		c0.8-0.4,1.6-1.2,2.3-1.6c0,0,0,0,0.4,0c0,0,0.4,0,0.4-0.4c0,0,0.4,0,0.8,0c0,0,0,0,0.4,0s0.4,0,0.4,0s0,0,0.4,0l0.4,0.4
		c0.4,0.4,0.8,0.4,1.2,0.8c0.8,0.8,2,1.6,3.1,1.6c1.6,0.4,3.1-0.4,4.3-1.2c1.2,2,2,4.3,2.7,6.6c-3.1,5.5-5.9,10.9-9,16.4
		c-5.5,9.8-11.3,19.9-16.8,29.7c-3.5-7-8.2-13.3-13.7-18.7c-2-2-4.3-3.5-6.2-5.5c1.2-3.5,1.6-7,0.8-10.9c-0.8-3.5-2.7-7-5.5-9.4
		c-1.2-1.2-3.1-1.2-4.3,0s-1.2,3.1,0,4.3c0.4,0.4,0.4,0.4,0.8,0.8l0.4,0.4c0.4,0.4,0.8,1.2,1.2,1.6c0,0.4,0.4,0.8,0.4,0.8v0.4
		c0.4,0.8,0.4,1.2,0.8,2v0.4v0.4c0,0.1,0,0.1,0,0.2c0,0.2,0,0.4,0,0.6c0,0.8,0,1.6,0,2v0.4c0,0.4,0,0.8,0,1.2c0,0,0,0,0,0.4
		c-2.7-2-5.5-4.3-7.4-7c-1.2-7.4-4.3-14.4-7.4-21.5c-3.5-8.2-7-16.4-10.5-24.6c-0.8-1.6-2-2.7-3.9-2c-1.6,0.4-2.7,2.3-2,3.9
		c3.1,7.4,6.6,15.2,9.8,22.6c-0.8-0.8-1.6-2-2.7-2.3c-3.1-2.3-7-2.7-10.1-5.1c-2.7-2.7-4.3-5.9-3.9-9.8c0-3.9-6.2-3.9-6.2,0
		c0,5.9,2.7,11.7,7.4,15.2c-0.8,0.4-1.2,0.4-2,0.8c-2,0.8-3.5,2.3-5.1,3.1c-2.3,0.8-3.1,0-4.7-2c-3.1-3.9-7.4-5.9-12.1-7.8
		c-4.3-2-8.6-3.5-11.3-7.4c-1.2-1.2-3.5-1.2-4.3,0c-1.2,1.2-0.8,3.1,0,4.3c3.5,4.7,9,6.2,14.1,8.6c-1.6,0-3.5,0.4-5.1,0.4
		c-2.3,0.4-5.1,0.8-7,0.4c-0.8,0-1.6-0.4-2-0.4c-0.4,0-0.8-0.4-0.8-0.4l-0.4-0.4c-0.4-0.4-0.4-0.4-0.8-0.8c0,0,0-0.4-0.4-0.4v-0.3
		v-0.1c0-0.2,0-0.8,0-0.8c0-1.6-1.6-3.1-3.1-3.1c-2,0-2.7,1.6-3.1,3.1c-0.4,3.9,2.7,7.4,6.2,8.6c3.1,1.2,6.2,1.2,9.4,1.2
		c3.1-0.4,6.2-0.8,9.4-0.8c1.6,0,3.1,0,4.7,0c0.4,0,0.8,0,1.2,0c0,0,0,0,0.4,0c0.4,0,0.4,0,0.8,0h0.4c1.6,2,3.1,3.5,5.9,3.9
		c2,0.4,3.9,0,5.9-0.8c1.6-0.8,7.8-5.5,9-3.5c0.4,0.4,0.8,0.8,0.8,0.8c-1.6,1.2-2.7,2.7-3.9,4.3c-2,2.3-3.5,4.3-6.2,5.9
		c-1.2,0.8-2.3,1.2-3.5,1.6c-1.6,0.4-3.5,0.4-5.5,0.4c-3.5,0-7-0.4-10.5-0.8c-3.9-0.8-5.5,5.5-1.6,5.9c3.9,0.8,8.2,1.2,12.5,1.2
		c3.5,0,7.4,0,10.5-2c1.2-0.8,2.7-1.6,3.9-2.3c1.6-1.2,2.3-2.3,3.5-3.9c2.3-2.7,4.7-5.9,7.8-7.8c0.8,0.8,1.2,2,2,2.7
		c2.7,3.9,5.1,7.8,7.4,11.7c0.8,1.2,1.2,2,2,2.7c0.4,0.8,0.8,1.6,1.6,2c1.6,2,3.5,3.9,5.5,5.5c3.9,3.1,7.8,5.5,11.3,9
		c0.8,0.4,1.2,1.2,2,1.6c-4.3-0.8-8.2-0.8-12.5,0c-2,0.4-3.5,1.2-5.1,2c-0.8,0.4-1.6,1.2-2,2c-0.4-0.4-1.2-1.2-1.6-1.6
		c-4.7-3.9-10.1-6.2-16.4-7c-3.9-0.8-5.5,5.5-1.6,5.9c5.1,0.8,9.8,3.1,13.7,5.9c-3.9,2.3-7.8,5.5-12.1,7.4c-1.6,0.8-2,2.7-1.2,4.3
		c0.8,1.6,2.7,1.6,4.3,1.2c5.9-2.7,10.1-7,16-9.8c0.4,0,0.4-0.4,0.4-0.4c0.4,0,0.4-0.4,0.8-0.4c1.6-0.8,2.3-2.3,3.5-3.1
		c3.1-1.6,7.4-1.2,10.9-0.8c3.1,0.4,7.4,1.6,9.4,3.1c0.4,0.4,0.4,0.4,0.8,0.4c2.3,3.5,4.3,7,6.2,10.9c0,0,0,0,0,0.4
		c-12.9,22.6-26.2,44.9-39,67.5c-20.3,35.1-40.6,70.3-60.9,105.4c-16.4,28.1-32.8,56.2-53.5,81.6c6.2-16,10.1-32.8,12.9-49.6
		c0.8-5.9,1.6-11.7,2.3-17.6c0-0.4,0.4-0.8,0.4-1.2c0-0.4,0-0.8,0-1.2c0.4-3.1,0.8-6.6,0.8-9.8c2.7-10.9,9.4-21.9,19.9-26.2
		c3.5-1.6,7-2.7,9.8-5.1c2.7-2.3,4.3-5.1,5.5-8.2c3.9-0.4,7.8-1.6,10.9-3.9c3.1-2.3,5.9-5.5,7.8-9c0.8-1.6,0-3.5-1.2-4.3
		c-1.6-0.8-3.5,0-4.3,1.2c-0.4,0.4-0.4,0.8-0.8,1.2l-0.4,0.4c0,0,0,0.4-0.4,0.4l-0.4,0.4l-0.4,0.4c-0.4,0.4-0.4,0.8-0.8,0.8
		c-0.4,0.8-1.2,1.2-1.6,1.6c-0.4,0.4-0.4,0.4-0.8,0.8c0,0,0,0-0.4,0h-0.4c-0.8,0.4-1.2,0.8-2,1.2c-0.4,0-0.8,0.4-1.2,0.4h-0.4h-0.4
		c3.1-5.1,7-9.4,11.3-13.3c3.1-2.7-1.6-7-4.3-4.3c-6.2,5.5-11.7,12.5-15.6,20.3c-1.2,2.3-2.3,5.1-3.9,7c0.4-3.5-0.4-6.6-0.4-10.1
		c0-1.6,0-3.1,0.4-4.3c0.4-1.2,1.2-2,2-2.7c2-2.3,3.9-5.5,2-8.6c-2.3-3.1-7.4-0.4-5.5,3.1c0,0-0.4,0.4-0.4,0.8
		c-0.8,1.2-1.6,2-2.3,3.1c-1.6,2.3-2.3,5.5-2.3,8.6c0,0.1,0,0.3,0,0.4c-0.4-0.4-0.4-0.8-0.8-1.2v-0.4v-0.4c0,0,0,0,0-0.4
		c0.8-1.2,1.2-3.1-0.4-4.3c-1.2-1.2-3.5-1.2-4.3,0c-1.6,2-2,3.9-1.6,6.6c0.4,2,2,3.9,3.1,5.5c0.4,0.4,0.8,0.8,1.2,1.2
		c0,0,0,0.4,0.4,0.4l0.4,0.4c0.4,0.4,0.4,0.8,0.8,1.2c0,0,0,0.4,0.4,0.4c0,0.4,0.4,0.8,0.4,1.2c0,0.4,0,0.4,0,0.8c0,0.8,0,1.6,0,2.3
		c0,0,0,0,0,0.4c-0.4,0.4-0.8,0.8-1.6,1.2c-0.4,0-0.4,0.4-0.8,0.8c-1.2,0.4-2.7,1.2-3.9,2c-4.7,2.7-9,6.6-12.1,11.3
		c0.4-5.1,0.4-9.8,0.4-14.8c-0.4-6.6-1.6-12.9-3.1-19.1c7-3.1,7.8-12.1,14.1-16.4c3.9-2.3,8.2-3.9,11.7-6.2c3.9-2.7,7-6.2,10.5-9
		l0.4-0.4c5.1,0,10.1,0,15.6-0.4c5.9,0,11.7,0.4,17.2-2.3c1.6-0.8,2-3.1,1.2-4.3c-0.8-1.6-2.7-2-4.3-1.2c-2.3,1.2-5.1,1.2-7.8,1.2
		c-2.3,0-4.7,0-6.6,0c0,0,0-0.4,0.4-0.4c2.7-0.8,5.5-1.2,8.2-1.6c7.8-1.2,16-4.7,16.4-13.3c0.4-3.9-5.9-3.9-6.2,0
		c-0.4,5.9-7.8,7-13.7,7.8c1.6-2.3,3.5-4.7,5.1-7c3.1-4.3,6.6-9,5.1-14.4c-1.2-3.9-7-2-5.9,1.6c0.4,1.6-0.4,3.5-1.2,5.1
		c-1.2,2-2.7,3.9-3.9,5.9c-2.7,3.5-5.1,7-7.8,10.9c-3.1,0.8-5.9,2-8.6,3.1c0.8-1.6,1.6-3.1,2.3-4.7c1.2-3.1,2-7.8,5.1-9.8
		c1.6-1.2,3.5-0.8,5.1-2c1.6-1.2,2.7-2.7,3.1-4.3c1.6-3.5,2.7-7.4,3.1-11.3c0-1.6-0.4-3.1-2.3-3.9c-1.6-0.4-3.5,0.8-3.9,2.3
		c-0.4,3.5-1.2,8.2-3.1,11.3c-0.8,1.2-2.7,1.2-3.9,2c-2,0.8-3.1,2.3-4.3,3.9c-2.3,3.1-3.1,7-4.7,10.5c-2,3.9-3.5,7.4-5.1,11.7
		c0,0.4,0,0.4,0,0.8c-2.7,2.3-5.5,5.1-8.2,7c0-2.3,0-5.1,0-7.4c0-0.8-0.4-2-0.4-2.7c0-0.4,0-0.8,0-1.6c0-0.4,0-0.4,0-0.8
		c0,0,0,0,0-0.4c0-0.4,0-0.8,0.4-1.2v-0.4c0-0.4,0.4-0.4,0.4-0.8c0,0,0,0,0.4-0.4h0.4c0.4,0,0.4-0.4,0.8-0.4c1.6-0.8,2-2.7,1.2-4.3
		c-0.8-1.6-2.7-1.6-4.3-1.2c-4.7,2-5.1,7.8-4.7,12.1c0.4,2,0.4,4.3,0.4,6.2c0,1.2,0,2,0,3.1v0.4v0.4c0,0.4,0,1.2-0.4,1.6
		c0,0.4,0,0.4,0,0.8c-2,0.8-3.5,1.6-5.5,2.7c-3.1,2.3-5.5,5.1-7.4,8.6c-1.2,2.3-2.7,5.5-5.1,6.6c-0.4-2-0.8-3.9-1.6-5.9
		c-2-9.8-2.3-19.5-0.4-29.3c1.2-5.9,3.1-11.3,5.5-16.8c2-3.9,5.1-6.2,9.4-7c0.8,0,3.5-0.4,5.1-0.4c3.5,0,6.2-0.8,9.4-2.7
		c6.6-4.3,12.1-9.8,17.6-15.6c0.7,0,1.1-0.3,1.7-0.7c-0.3,0.2,0.6-0.1,0.6-0.1c0.4,0,0.4-0.4,0.8-0.4c0.4-0.4,0.8-0.4,1.6-0.4
		c1.2-0.4,2.7-0.8,4.3-1.2c0.8,0,1.6,0,2.3-0.4c0.4,0,0.8,0,1.2,0h0.4c1.2,0.4,2.3,0.8,3.9,1.6c3.9,1.6,7.4,0.4,10.5-2.3
		c1.2-1.2,2.3-2.3,3.1-3.1c1.2-0.8,2-1.2,2.3-0.8c3.5,2,6.2-3.5,2.7-5.5c-3.9-2-7.8,0-10.9,2.7c-1.2,1.2-2.3,2.7-3.9,3.5
		c-1.2,0.4-2.7-0.4-3.9-0.8c-2.3-1.2-5.1-1.2-7.4-1.2c2.7-2.3,5.1-4.3,8.2-6.2c3.5-2,0-7.4-3.1-5.5c-2.7,1.6-5.1,3.5-7.4,5.5v-0.4
		c0-0.4,0-0.4,0.4-0.8c0.4-0.8,0.8-1.6,1.2-2.3l0.4-0.4l0.4-0.4c0.4-0.4,0.8-0.8,0.8-1.2c0.8-0.8,1.2-1.2,2-2
		c0.4-0.4,0.8-0.8,1.2-0.8l0.4-0.4c0,0,0,0,0.4,0c0.8-0.4,1.6-1.2,2.3-1.6c1.2-1.2,2-2.7,1.2-4.3c-0.8-1.2-2.7-2-4.3-1.2
		c-3.5,2.7-7,5.5-9.8,9.4c-1.2,1.6-2,3.9-2.3,5.9c0,1.2-0.4,2.3,0,3.5c0,0.8,0,2,0,2.7c-1.6,1.6-3.5,3.5-5.1,5.1
		c-2.3,2.3-4.3,4.7-6.6,7c0.4-2.3,0.8-5.1,1.2-7.4c0.4-2,0.4-3.9,1.2-5.9c0.4-1.6,1.2-2.3,2.3-3.1c1.6-0.8,2-2.7,1.2-4.3
		c-0.8-1.6-2.7-2-4.3-1.2c-4.3,2.3-5.5,7-6.2,11.3c-0.8,4.7-1.2,9.4-2,14.1c0,0.8,0,1.2,0,2c-1.6,1.2-3.1,2.3-4.7,3.1
		c-3.1,1.6-5.9,0.8-9.4,1.2c-1.6,0.4-0.4,0-0.4,0c-0.4,0-0.8,0-1.6,0.4c-0.4,0-1.2,0.4-1.6,0.4c4.3-7.8,8.2-15.6,9-24.6
		c0.4-2.7,0-5.1,0-7.8c0.4,0,0.4-0.4,0.8-0.4c3.9-3.1,7.4-6.6,9.4-11.3c0.4-0.8,0.8-1.6,1.2-2.3c0.4,0,0.4,0,0.8,0
		c3.5-0.4,6.6-1.2,9.8-2.3c1.6-0.8,3.1-1.6,4.3-2.3c1.6-1.2,1.6-1.2,2.7-2c1.6-0.8,4.3-1.6,6.6-2c1.2,0,2.7-0.4,3.9-0.4s2.3,0,3.1,0
		c1.6,0.4,3.1-0.4,3.9-2.3c0.4-1.6-0.8-3.5-2.3-3.9c-5.1-0.8-10.9-0.4-16,1.6c-1.2,0.4-2.3,1.2-3.5,2c-1.2,0.8-2.3,2-3.9,2.7
		c-2,1.2-3.9,1.6-5.9,2c0.8-1.2,2-2,3.1-2.7c3.9-2.7,8.2-4.7,10.9-8.2c2.7-3.5,3.9-8.2,5.1-12.5c0.8-3.9-5.1-5.5-5.9-1.6
		c-1.2,4.3-2,8.6-5.5,11.7c-1.2,1.2-2.7,2.3-4.3,3.1c2-6.6,3.1-13.3,1.6-19.5c-0.4-1.6-2.3-2.7-3.9-2c-1.6,0.4-2.3,2.3-2,3.9
		c0,0.4,0,0.4,0.4,0.8v0.4v0.4c0,0.4,0,0.4,0,0.8c0,1.2,0,2.3,0,3.1c0,0.4,0,1.2,0,1.6c0,0.4,0,0.4,0,1.2c0,1.2-0.4,2.3-0.4,3.1
		c-0.8,4.3-2.3,8.6-3.9,12.5c-1.6,2.3-2.7,4.7-3.9,7.4c-1.6,3.9-3.9,7.4-7,10.5c-0.8-3.9-2-7.4-3.5-11.3c0,0,0-0.4,0-0.8
		c0-0.4,0-0.8,0-1.6c0-0.8,0-1.6,0.4-2.3c0.4-2,0.8-4.3,1.6-6.2c1.2-3.9,2.3-8.2,4.3-11.7c0.8-2,2-3.5,3.1-5.5
		c1.2-2.7,2.3-5.9,3.1-8.6c1.2-5.5,1.2-13.3-4.7-16c-3.5-1.6-6.6,3.9-2.7,5.5c2.3,1.2,2.3,4.7,2,7c-0.4,2.7-0.8,5.5-2,7.8
		c-1.6,3.5-3.9,6.6-5.1,10.1c-1.2,2.7-2,5.5-3.1,8.6c-0.8-3.9-1.6-7.4-1.6-11.3c0-3.9-6.2-3.9-6.2,0c0,5.1,1.2,10.1,2.7,15.2
		c-0.8,0-2,0-2.7,0c-2.3,0-3.9-0.4-6.2-1.2c-0.8-0.4-1.6-0.4-2.3-0.8c-2-5.1-3.1-10.5-2.7-16c0-3.1,0.4-5.9-0.4-8.6
		c-0.8-3.1-2.7-5.9-5.5-7c-1.6-0.8-3.5-0.4-4.3,1.2c-0.8,1.2-0.4,3.5,1.2,4.3c2,0.8,2.7,2.7,2.7,5.1c0,2.7-0.4,5.1-0.4,7.8
		c0,3.1,0.4,5.9,1.2,8.6c-1.2-2.3-2-5.5-4.3-7.4c-2-1.6-4.3-2-5.9-3.5s-2.7-3.5-3.1-5.9c-0.4-3.9-6.6-3.9-6.2,0
		c0.8,5.1,3.5,9.8,8.2,12.1c1.6,0.8,3.1,1.2,3.9,2.7c-3.5-0.4-6.6-0.4-10.1-0.8c-3.1-0.4-6.2-2.7-8.2-4.7c-2.3-2.3-5.5-5.1-6.2-8.2
		c-5.5,10.9-11.3,12.9-10.2,16.4c1.2,3.9,3.9,7,6.6,9.8c3.1,2.7,6.2,5.5,10.1,6.6c3.5,1.2,7.8,0.8,11.3,1.2c1.6,0,3.5,0.4,5.5,0.8
		c0.4,0.4,0.8,0.8,1.2,1.2c3.5,3.9,9.8,4.7,14.4,5.9c2,0.4,4.3,0.4,6.2,0.4c1.6,0,3.1,0,3.9,1.6c0,0,0,0.4,0.4,0.4
		c0.4,0.8,0.4,1.6,0.8,2.3c0,0.4,0,0.4,0,0.8c0,0.4,0.4,0.8,0.4,0.8c3.1,9.8,5.9,19.5,2.7,30.1c0,0.4,0,0.4-0.4,0.8
		c-3.5-5.5-10.5-9.4-16.8-11.3c-1.6-0.4-3.5,0.8-3.9,2.3c-0.4,1.6,0.8,3.1,2.3,3.9c3.1,1.2,7,2.7,9.4,4.7c0.8,0.8,1.6,1.2,2,2
		c0.8,0.8,0.8,0.8,1.6,2c1.2,1.6,1.6,2.7,2,4.7v0.4c-2.7,5.9-6.6,11.3-9.4,17.2c-4.3,8.6-7,18-7.8,27.3c-0.4,4.7-0.4,9.8,0,14.4
		c-6.2-2-11.7-5.9-16.8-10.5v-0.4c-0.8-3.1-1.6-6.2-2-9.4c-0.4-1.6-0.8-3.1-1.2-4.7c-0.4-1.2-0.8-2.3-0.4-3.5c0-0.4,0.4-0.4,0.4-0.8
		v-0.4c0.8-1.6,2.7-2.3,3.9-3.5c1.6-1.6,2.7-3.5,3.9-5.5c0.4-0.8,0.8-1.6,1.2-2.7c9.4-5.9,13.7-18,10.5-28.5c-1.2-3.9-7-2-5.9,1.6
		c1.2,3.9,0.8,8.2-0.4,12.1c0,0.4-0.8,2-1.2,2.7c-0.4,0.8-0.8,1.6-1.6,2.3c0-5.1-1.6-9.8-4.3-14.1c-2.3-3.1-7.8,0-5.5,3.1
		c4.7,6.6,5.1,16.4,0,23c-0.4-2.7-0.8-5.5-2-7.8c-2-3.5-5.9-5.1-8.6-8.2c-2.3-2.7-3.5-6.2-3.9-9.8c-0.4-3.9-6.6-3.9-6.2,0
		c0.4,3.9,1.6,7.8,3.5,11.3c1.2,1.6,2.3,3.1,3.5,4.3c1.6,1.6,3.1,2.3,4.7,3.9c2,1.6,2.3,3.9,2.3,6.6c0,2.3,0,4.3-0.4,6.6
		c-0.8,1.6-1.2,3.5-0.8,5.5c0.4,2.7,0.8,5.1,1.6,7.8c-0.4-0.4-0.8-0.8-0.8-0.8c-2.7-2.7-5.1-5.5-6.6-9c0,0,0-0.4-0.4-0.4
		c0-7.8-5.1-15.6-12.1-19.1c-1.6-0.8-3.1-0.4-4.3,1.2c-0.8,1.6,0,3.5,1.2,4.3c0.8,0.4,1.6,0.8,2.3,1.2l0.4,0.4
		c0.4,0.4,0.8,0.8,1.2,0.8c0.4,0.4,0.8,0.4,0.8,0.8l0.4,0.4c0.4,0.8,0.8,1.2,1.6,2c0.4,0.4,0.4,0.8,0.8,1.2c0,0,0,0.4,0.4,0.4v0.4
		c-1.6-0.8-3.5-1.2-5.1-1.6c-2-0.4-3.9-0.8-5.9-1.2c-1.2-0.4-2.3-0.4-3.5-0.8c-0.8-0.4-1.2-0.4-1.6-1.2c-0.8-1.6-2.7-2-4.3-1.2
		c-1.6,0.8-2,2.7-1.2,4.3c2.3,4.7,8.6,4.7,12.9,5.5c2,0.4,4.3,1.2,5.9,1.6c0.8,0.4,2,0.8,2.7,1.2c0,0,0.4,0,0.4,0.4l0.4,0.4
		c0.4,0.4,0.8,0.8,0.8,0.8s0,0.4,0.4,0.4c1.6,3.9,4.7,7,7.4,10.1c-0.4,0-0.4,0-0.8-0.4c-3.9-1.2-7.4,1.2-11.3,1.6
		c-1.2,0-2.3,0-3.5,0c-0.8-3.5-2.7-6.6-5.5-9.4c-3.5-3.1-8.2-5.5-11.3-9.4c-1.2-1.2-2.7-2-4.3-1.2c-1.2,0.8-2,2.7-1.2,4.3
		c3.1,3.9,7.4,6.6,10.9,9.8c1.6,1.2,3.1,2.7,3.9,4.3c-3.5-1.2-7.4-2.7-10.5-4.3c-3.5-1.6-6.6,3.9-2.7,5.5c7,3.1,14.8,6.6,22.6,6.6
		c2,0,3.9-0.4,5.9-0.8c1.6-0.4,3.5-1.6,5.5-1.2c1.6,0.4,2.7,1.6,3.9,2.7c-0.8,0.4-1.2,1.2-2,1.6c-1.2,1.2-2.3,2.3-3.5,3.5
		c-0.4,0-0.4,0.4-0.8,0.4c-0.4,0.4-0.8,0.8-1.2,1.2c-0.4,0.4-0.8,0.4-1.2,0.4c0,0-0.8-0.4-1.2-0.4c-0.8-0.4-1.6-0.8-2.7-1.2
		c-1.6-0.8-3.5-1.2-5.1-2c-1.6-0.8-3.5-0.4-4.3,1.2c-0.8,1.2-0.4,3.5,1.2,4.3c2.7,1.2,5.9,2.3,8.6,3.5c-0.8,2-1.6,3.9-2.3,5.5
		c-0.8,2.3-0.8,5.1-1.6,7.4c0,0,0,0-0.4,0.4c0,0-0.4,0.4-0.8,0.4h-0.4c-0.8-1.6-2.7-2-4.3-1.2c-1.6,0.8-2,2.7-1.2,4.3
		c1.6,3.1,5.9,3.5,8.6,2.3c3.1-1.6,4.7-4.7,5.1-7.8c0.4-3.1,1.2-5.1,2.3-7.8c1.2-2,2.3-3.9,3.5-5.5c0.4-0.4,0.8-0.8,1.2-1.2
		c2-2,3.9-4.7,6.6-6.2c0.8-0.4,2-0.8,2.3-0.8c0.8,0,0.8,0,1.2,0h0.4c0,0,0.8,0.4,0.4,0c5.5,4.3,11.3,8.2,18,10.1c0.4,0,1.2,0,1.6,0
		c0.4,3.1,1.2,5.9,2,9c1.2,5.1,2.7,10.1,3.9,15.2c1.2,5.1,1.2,10.5,1.2,16c0,5.5-0.4,10.5-1.2,16c-1.2-2.3-3.1-4.7-5.5-6.6
		c-2.3-2.3-4.3-4.3-5.9-7.4c-0.4-1.2-0.8-2-1.2-3.1c1.2-0.8,1.6-2.7,0.8-3.9c-2-3.9-1.2-9.8-0.8-14.4c0.4-5.5-0.4-11.3-4.3-15.6
		c-1.2-1.2-3.1-1.2-4.3,0s-1.2,3.1,0,4.3c1.2,1.2,2,3.5,2.3,5.9c0.4,2.3,0,5.1,0,7.4c0,2.3-0.4,4.7-0.4,7c-0.4-0.4-0.8-0.4-1.2-0.8
		c-2.7-2-3.5-4.3-4.3-7.4c-1.2-3.9-7-2-5.9,1.6c0.4,1.2,0.8,2.7,1.6,3.9c-5.1,0-8.6-5.1-11.3-8.6c-1.2-1.2-2.7-2-4.3-1.2
		c-1.2,0.8-2,2.7-1.2,4.3c3.5,4.7,7.4,9.8,13.3,11.3c1.6,0.4,3.1,0.4,4.7,0.4c1.2,0,2,0,2.7,1.2c2,2,2.7,5.1,4.7,7
		c0.8,0.8,2,1.2,2.7,0.8c1.2,2.7,2.3,5.9,4.3,8.2s4.7,3.9,6.6,6.6c1.2,2,2,3.9,2.7,6.2c1.2,4.7,1.6,9.4,1.6,14.1
		c-0.8,8.6-2,16.8-3.5,25c-3.5,20.3-9,40.2-19.1,58.5c-1.5,0.8-1.9,2.7-1.6,3.9c-5.6,3.7-11.1,7.5-16.4,11.7
		c-9.4,7.4-16.8,16.8-23,26.5c-14.1,21.9-26.2,45.3-39,67.9c-3.9,6.6,6.2,12.5,10.1,5.9c12.5-21.5,24.2-43.7,37.1-64.8
		c5.9-9.8,12.5-18.3,21.1-25.4c9-7.4,18.7-13.7,28.9-19.5c2.8-1.8,3.4-4.7,2.6-7.1c9.8-5.6,18-13.8,25.9-21.8
		c11.7-11.7,23.8-21.9,38.3-29.3c7.4-3.9,15.2-7,23-9.4c7.8-2.3,16-4.3,23.8-7c2-0.8,3.9-1.6,6.2-2.3c2.3,2.7,6.6,2.7,10.5,2.3
		c4.7-0.4,8.2,2,11.7,4.7c3.1,2.7,6.2,5.5,9.8,7.4c1.6,0.8,3.1,1.6,4.3,2c0,0.4,0.4,0.4,0.4,0.4c2,2,3.5,3.1,2.7,5.9
		c-0.8,2.7-2,5.1-1.6,8.2c0.4,1.2,0.8,2.3,1.2,3.1c-0.8,2-2,2.7-3.1,4.3c-0.4,0.4-0.8,0.8-1.2,1.2c-0.4,0-0.4,0.4-0.8,0.4
		c0,0,0,0-0.4,0c-0.4,0.4-0.8,0.4-1.2,0.8c0,0-0.4,0-0.4,0.4h-0.4c-2.7,0.8-5.9,1.2-8.2,3.1c-2,2-3.1,4.7-2,7.4c0.8,1.6,2,2.7,3.9,2
		c1.6-0.4,2.7-2.3,2-3.9v-0.4c0,0,0-0.4,0.4-0.4c0,0,0,0,0.4-0.4l0.4-0.4c0.4-0.4,0.8-0.4,1.6-0.4c2.3-0.8,4.3-0.8,6.6-2.3
		c2.7-1.6,5.1-3.9,6.6-6.6c0.8,1.2,1.2,2.3,1.6,3.9c0.4,2,0,4.3-0.4,6.2c0,0.4,0,0.8-0.4,1.2c0,0,0,0,0,0.4c0,0,0,0,0,0.4
		c0,0,0,0,0,0.4c-1.2,0.8-2,1.6-2.7,2.7c-1.2,2-1.6,4.3-2.3,6.2c-0.8,2-2.3,2.7-4.3,3.9c-2.3,1.2-4.7,2.7-7,3.9
		c-3.5,2-0.4,7.4,3.1,5.5c0,0.4,0,0.4,0,0.8v0.4c0,0.4,0,0.8,0,1.2c0,0.8-0.4,1.6-0.4,2l-0.4,0.8c0,0.4-0.4,0.4-0.4,0.8
		c-0.4,0.8-0.8,1.2-1.2,2c0,0.4-0.4,0.8-0.8,0.8c0,0,0,0,0,0.4c-0.4,0.8-0.8,1.2-1.6,1.6c-1.2,1.2-1.2,3.1,0,4.3
		c1.2,1.2,3.1,1.2,4.3,0c4.7-5.1,7-12.1,6.2-18.7c0,0,0.4,0,0.4-0.4c2-1.2,3.5-2,5.1-3.5c-0.4,4.3-0.4,8.6-0.4,12.9
		c0,3.9,6.2,3.9,6.2,0c0-5.9,0-11.7,0.8-17.2c1.2,1.6,2.3,2.7,3.5,3.9c1.2,1.2,2,2,3.1,2.7c1.6,0.8,3.1,1.6,3.9,3.1
		c1.2,2.3,0.4,5.1-1.6,7c-1.2,1.2-1.2,3.5,0,4.3c1.2,1.2,3.1,0.8,4.3,0c3.1-2.7,4.3-7,3.5-10.9c-0.4-2-1.2-3.5-2.3-5.1
		c-1.6-1.6-3.5-2.7-5.1-3.9c-2-1.6-3.9-3.9-5.5-5.9c-0.8-1.2-2-2.7-2.3-3.9c-0.4-0.8-0.4-1.2-0.4-1.6c0.4-3.5,0.8-7.4,0.4-10.9
		c-0.4-2.7-2-5.1-3.9-7c-1.6-2.3-3.1-3.9-2.3-7c0.8-2.7,2-5.1,1.2-8.2c3.5,0.8,7,2,10.1,4.3c3.5,2.7,5.5,6.6,7,10.1
		c1.6,3.1,3.5,6.2,5.9,9c1.2,2.3,2,4.7,2.3,7c0.4,2.7,0,5.9,0.8,8.6c1.2,5.9,6.6,9.8,12.5,9.4c3.9-0.4,3.9-6.2,0-6.2
		c-2,0-3.5-0.4-5.1-2c-0.4-0.4-1.2-1.2-1.2-2c-0.4-1.2-0.4-2-0.4-3.1c0-2-0.4-4.3-0.4-6.2c1.6,0.4,2.7,0.8,4.7,0.8
		c2.3,0,5.1-0.4,7.4-0.8c0.4,0.8,0.8,1.2,1.6,2c0.8,0.8,2,1.6,3.1,1.6c0.8,0,2,0.4,2.7,0c0.4,0,1.2,0,1.6-0.4c0,0,0,0,0.4,0h0.4
		c2-0.4,3.9-0.4,5.5,0h0.4h0.4c0.4,0,1.2,0,1.6,0.4c0.8,0,2,0.4,2.7,0.8c1.6,0.4,3.1-0.8,3.9-2.3c0.4-1.6-0.8-3.1-2.3-3.9
		c-3.5-1.2-7-1.6-10.5-1.2c-1.2,0-2,0.4-3.1,0.4c-0.4,0-0.4,0-0.8,0c-0.4,0-0.4,0-0.8,0c4.3-2,8.6-4.7,12.1-7.8
		c3.1-2.7-1.6-7-4.3-4.3c-3.9,3.5-8.6,6.2-13.7,7.8c-3.9,1.2-9,2.3-12.9,0.4c-0.8-0.4-1.6-1.2-2.3-2c0-0.4-0.4-0.4-0.4-0.8
		c-0.4-0.8-0.8-1.2-1.2-1.2c0.8,0,1.6,0,2.3,0c1.6,0,3.1-0.4,4.7-1.2c2.3-1.2,4.7-3.1,6.6-5.1c3.1-3.1,6.2-8.2,11.3-7.8
		c1.6,0,3.1-1.6,3.1-3.1c0-2-1.6-2.7-3.1-3.1c-5.9-0.4-10.1,3.9-14.1,7.8l-0.4,0.4c-0.4-0.8-0.8-2-0.8-2.7c0,0,0-0.3,0-0.3
		c0-0.1,0-0.2,0-0.4v-0.4c0-0.4,0-0.4,0-0.8c0-0.4,0.4-1.2,0.4-1.6v-0.4v-0.4c0.8-2.3,2-4.7,2-7c0.4-2.3-0.8-5.1-2.3-7
		c-1.2-1.2-3.1-1.2-4.3,0c-1.2,1.2-1.2,3.1,0,4.3c0,0,0,0,0.4,0.4c0,0.1,0,0.4,0,0.4v0.4v0.4c0,0.4,0,0.4,0,0.8v0.4v0.4
		c0,0.4-0.4,0.8-0.4,1.6v0.4c0,0,0,0.4-0.4,0.4c-0.4,1.2-0.8,2.3-1.2,3.1c-0.8,2.3-1.2,4.7-0.4,6.6c0.4,0.8,0.4,2,0.8,2.7
		c0,0.4,0.4,0.8,0.4,1.6c0,0.4,0,0.4,0,0.8c0,0.4,0,0.8,0,0.8c-2.3,1.2-4.7,0.8-7,1.2c-0.4,0-0.8,0-1.2,0.4
		c-1.6-3.1-3.1-6.2-5.5-9.4c-5.1-6.6-12.5-8.6-20.3-10.5c-3.9-0.8-7.4-2.3-10.5-4.3c-3.1-2.3-5.9-4.7-9-7c-2.7-2-5.9-3.9-9.4-4.3
		c-2-0.4-3.5-0.4-5.5,0c-0.4,0-1.2,0-1.6,0c2.7-1.6,5.9-3.1,8.6-5.1c7-5.1,13.7-10.5,21.1-15.2c9-5.9,19.1-9.8,29.3-13.3
		c4.3,3.1,9,5.5,14.4,7c1.6,3.5,2.7,7,4.3,10.9c1.6,3.9,2.3,7.8,3.9,11.7c1.2,3.9,3.5,7,8.2,7.4c1.6,0,2.3,0,2.7,2
		c0.4,1.6,0.4,3.1,0.4,5.1c-0.4,3.9,5.9,3.9,6.2,0c0.4-3.5,0-7.8-2.7-10.5c-1.2-1.6-3.1-2-5.1-2.3c-2,0-2.7-0.4-3.5-2.3
		c-1.6-3.9-2.7-8.2-3.9-12.5c-0.8-2.3-1.6-4.7-2.7-7c0.8,0.4,1.6,0.8,2,1.2c2.3,1.6,3.5,4.3,5.1,6.6c2.3,4.7,5.9,8.2,10.9,9
		c3.1,2.3,5.1,5.1,6.2,8.6c1.2,3.5,1.2,7.8,4.3,10.5c2.3,2.3,5.9,2.3,8.6,1.6c1.2-0.4,2.3-0.8,3.5-1.2c0.8,0,0.8-0.4,1.2-0.4h0.4
		c0.4,0,0.8,0.4,0.4,0c1.6,0.8,3.5,0.4,4.3-1.2c0.8-1.6,0.4-3.5-1.2-4.3c-2.7-1.2-5.5-0.8-8.2,0c-1.2,0.4-2.3,0.8-3.5,1.2
		c-0.4,0-1.2,0-1.6-0.4c-1.2-1.2-1.2-3.1-1.6-4.3c-0.4-2-1.2-3.9-2-5.9c-0.8-1.6-1.6-3.1-2.7-4.7c2,0,3.9-0.4,6.2,0.4
		c3.9,0.8,5.5-5.1,1.6-5.9c-4.7-1.2-9,0-13.7,0c-1.6,0-2.7-0.4-3.9-0.8c8.2-6.6,20.7-8.2,30.4-2.7c3.5,2,6.2-3.5,2.7-5.5
		c-11.7-6.6-26.9-5.1-37.5,3.5c-0.4-1.2-1.2-2.3-1.6-3.5c-0.8-1.6-2-2.7-3.1-3.9c0-0.4,0.4-0.4,0.4-0.8l0.4-0.4c0,0,0,0,0.4,0
		c0.4,0,0.8-0.4,0.8-0.4c0.4,0,0.4,0,0.8,0c0.4,0,0.8,0,1.6,0c2,0,3.5,0.4,5.5,0c2.7-0.4,4.7-1.6,6.2-3.5c0.8-1.6,0-3.5-1.2-4.3
		c-1.6-0.8-3.1,0-4.3,1.2c-0.4,0-0.4,0-0.8,0.4h-0.4c-1.6,0-3.1,0-4.7,0c-2,0-3.9,0-5.9,1.2c-0.8,0.4-2,1.2-2.3,2
		c0,0.4-0.4,0.4-0.4,0.8c-0.8-0.4-2-0.4-2.7,0c0,0,0,0-0.4,0c-1.2-0.4-2-0.8-3.1-1.2c-4.3-1.2-8.2-2.3-12.1-4.3
		c2.7-1.2,5.9-2,8.6-3.1c5.1-2,10.1-3.9,14.8-6.2c2,1.2,4.3,1.6,7,2c2.7,0,5.9-0.4,8.2,0.8c1.6,0.8,2.3,2.3,3.5,3.5
		c1.2,1.2,2.3,2.3,3.9,2.7c3.1,1.2,6.6,1.2,9.8,0.4c2.3-0.4,4.3-0.8,6.6-1.6c1.2,2.3,3.5,3.9,5.9,5.1c1.6,0.8,2.7,1.2,4.3,1.6
		c1.2,0.8,2.3,1.6,3.1,2.7c2.3,2.3,4.7,4.3,7.8,4.7c1.6,0,3.1,0,4.7-0.4c0.8,0,2,0,2,0.4c2,3.5,7.4,0.4,5.5-3.1
		c-1.6-2.7-5.1-3.9-8.2-3.5c-1.2,0-2.7,0.4-3.9,0.4c-1.2-0.4-2-1.2-2.7-2c-2.3-2.3-4.3-4.3-7.4-5.5c-1.6-0.8-3.9-1.2-5.1-2.3
		c3.1-1.2,6.2-2.3,9.4-3.9c3.1-1.6,5.9-2.7,9.4-1.6c2.7,1.2,5.1,3.1,7.8,4.7c2.3,1.2,5.5,3.1,8.2,2.3c2.7-0.8,4.7-3.5,3.1-6.2
		c-1.2-2.3-3.9-1.6-5.1,0c-0.4,0-0.8-0.4-0.8-0.4c-0.8-0.4-1.6-0.8-2.3-1.2c-1.2-0.8-2.7-1.6-3.9-2.3c-2-1.2-4.3-2.3-6.6-3.1
		c1.6-0.8,3.5-1.2,5.5-1.2c4.7-0.8,9-3.5,11.3-7.8c0.8-1.6,0.4-3.5-1.2-4.3c-1.6-0.8-3.5-0.4-4.3,1.2c-0.8,2-2,3.1-3.5,3.9
		c-1.6,0.8-3.5,0.8-5.5,1.2c-5.1,0.8-8.6,3.9-11.3,7.8c-1.6,0.4-2.7,1.2-4.3,2c-2.7,1.2-5.9,2.3-9,3.5c1.6-3.9,2.3-8.2,2.7-12.5
		c3.5-1.2,6.6-3.5,9.4-6.2c2.7-3.1-2-7.4-4.3-4.3c-2.3,2.7-5.1,4.3-8.6,5.1c-1.6,0.4-2,1.6-2.3,3.1c-0.4,5.9-1.2,12.5-5.1,17.2
		c0,0,0,0,0,0.4c-2,0.4-4.3,0.8-6.2,0.8c-3.9-0.4-5.1-4.7-8.6-6.6c-2.7-1.6-5.5-1.6-8.6-1.6c-0.4,0-1.2,0-1.6,0
		c7.4-3.9,14.4-8.6,21.5-13.3c10.5-7.4,21.1-15.2,31.2-23c5.1,2.3,10.5,2.7,16,2.3c2.3,2,4.7,3.9,7,6.2c0.8,0.8,1.6,1.6,2.3,2
		c2.7,3.9,4.7,7.8,5.9,12.1c0.8,2.7,1.2,5.5,3.9,6.6c2.3,1.2,5.5,1.2,7.8,1.6c1.6,0.4,3.5-0.8,3.9-2.3s-0.8-3.5-2.3-3.9
		c-1.2-0.4-2.7-0.4-3.9-0.8c-0.4,0-2.3,0-2.7-0.4c0,0-0.4-1.6-0.4-2c-0.4-1.2-0.4-2-0.8-3.1c-0.4-1.6-1.2-2.7-1.6-4.3
		c1.2,0,2.3,0,3.5,0c1.2,0,4.7-0.4,4.7,1.2c0,3.9,6.2,3.9,6.2,0c0-3.5-2.7-5.9-5.9-7c-2.7-0.8-5.9,0-8.6-0.4c-2.7-0.4-5.1-2.3-7-4.3
		c-1.2-0.8-2.3-2-3.1-2.7c8.2-0.4,16.4-1.6,24.6-0.4c1.6,0.4,3.1-0.4,3.9-2.3c0.4-1.6-0.8-3.5-2.3-3.9c-6.6-0.8-13.7-0.4-20.3,0
		c2.3-0.4,4.3-1.2,6.6-2c5.1-2,10.1-4.7,16-4.3c1.6,0,3.1-1.6,3.1-3.1c0-2-1.6-2.7-3.1-3.1c-6.6-0.8-12.5,2.7-18.7,4.7
		c-6.2,2.3-14.8,1.6-18,8.2c-1.2,0-2.3,0-3.5,0c-2.3,0-4.7,0-6.6-0.4c2-1.6,3.9-3.1,5.9-4.7c2.7-2.3,5.5-4.3,8.2-6.6
		c0.4,0,1.2-0.4,1.6-1.2c4.7-3.9,9-7.4,13.7-11.3c5.9,0.4,12.1,0.4,18-0.8c0.8,0,1.6-0.4,2.7-0.8c0.4,0.4,0.8,0.4,1.2,0.8
		c0.4,0,0.4,0.4,0.4,0.4l0.4,0.4l0.4,0.4c0.4,0.4,0.8,0.8,0.8,1.2c1.2,1.6,2,3.5,2.7,5.5c2,3.9,3.9,8.2,7.8,9.8
		c1.6,0.8,3.5,0.4,4.3-1.2c0.8-1.6,0.4-3.5-1.2-4.3c-0.4,0-0.4-0.4-0.8-0.4c0,0-0.4,0-0.4-0.4c-0.4-0.4-0.8-0.4-0.8-0.8l-0.4-0.4
		c-0.4-0.4-0.4-0.8-0.8-1.2c-1.2-2-2-3.9-3.1-5.9c-0.8-2-2-3.9-3.1-5.5c3.1,0.8,6.2,2.7,8.6,4.3c1.6,0.8,3.5,0,4.3-1.2
		c0.8-1.6,0-3.1-1.2-4.3c-3.5-2.3-7-4.3-10.9-5.1c-3.9-0.8-7.8,0.4-11.7,1.6c-3.1,0.8-5.9,0.8-9,1.2c-0.8,0-1.6,0-2,0
		c3.9-3.5,7.4-7,10.9-10.5c4.7-4.7,9.4-9.8,14.8-14.1c1.6-0.4,3.1-1.2,4.7-1.6h0.4c0.4,0,0.8,0,0.8,0c0.8,0,1.2,0,2,0.4
		c0.8,0,1.6,0.4,2.3,0.8c0,0,0.4,0.4,0.8,0.4c2.7,1.2,4.7,4.3,5.9,6.6c1.6,2.7,2.7,5.9,4.7,8.2c2.3,3.1,5.1,6.2,9,6.6
		c2,0.4,3.5,0,5.1-0.8c1.2-0.4,2.7-1.2,3.9-0.8c1.6,0.4,3.5-0.8,3.9-2.3s-0.8-3.1-2.3-3.9c-2-0.8-3.5-0.4-5.5,0.4
		c-1.2,0.4-2.7,1.2-3.9,1.2c-2.7,0-5.1-3.5-6.2-5.9c-1.2-2.3-2.7-5.1-4.3-7.4c2-0.4,3.5-1.2,5.5-2c3.5-1.6,7.4-1.6,10.5,0
		c1.6,0.8,3.5,0.4,4.3-1.2c0.8-1.6,0.4-3.5-1.2-4.3c-4.3-2-9-2.3-13.7-1.2c-2,0.4-3.9,2-6.2,2.3c-2,0.4-3.9-0.4-5.9-1.6
		c-1.6-0.8-3.1-1.6-4.7-2c5.5-3.1,11.3-5.5,17.2-7.4c3.1-1.2,5.9-2.3,9-3.9l0.4,0.4c4.7,3.1,10.9,4.7,16.4,5.5
		c5.9,0.8,12.1,0.8,17.6-1.2c1.6-0.4,2.7-2,2-3.9c-0.4-1.6-2.3-2.7-3.9-2c-4.7,1.6-9.8,1.6-14.8,0.8c-2.3-0.4-4.7-0.8-7-1.6
		c3.1-0.4,6.2-0.8,9.4-1.2c2.7-0.4,5.1-0.8,7.8-2c3.1-1.2,6.2-2.3,9.4-3.5C659.6,363.3,660.8,362.1,660,360.2z"/>
	<path class="st0" d="M574.9,422.3C574.1,421.9,574.9,422.3,574.9,422.3L574.9,422.3z"/>
	<path class="st0" d="M513.6,414.4C513.2,414.4,513.2,414.8,513.6,414.4L513.6,414.4z"/>
	<path class="st0" d="M414.5,284.5l-0.4,0.4C414.5,284.5,414.5,284.5,414.5,284.5z"/>
	<path class="st0" d="M503.9,182.6C503.9,182.2,503.5,182.2,503.9,182.6L503.9,182.6z"/>
</g>
</svg>
