<?xml version="1.0" encoding="utf-8"?>
<!-- Generator: Adobe Illustrator 25.3.0, SVG Export Plug-In . SVG Version: 6.00 Build 0)  -->
<svg version="1.1" id="Calque_1" xmlns="http://www.w3.org/2000/svg" xmlns:xlink="http://www.w3.org/1999/xlink" x="0px" y="0px"
	 viewBox="0 0 800 800" style="enable-background:new 0 0 800 800;" xml:space="preserve">
<style type="text/css">
	.st0{fill:#FFFFFF;}
	.st1{fill:#CAEDEC;}
</style>
<path class="st0" d="M367.9,320.5c-73.5,0-133.2-59.8-133.2-133.2S294.4,54,367.9,54c73.5,0,133.2,59.8,133.2,133.2
	S441.4,320.5,367.9,320.5z M367.9,60.4c-70,0-126.9,56.9-126.9,126.9s56.9,126.9,126.9,126.9c69.9,0,126.9-56.9,126.9-126.9
	S437.8,60.4,367.9,60.4z"/>
<path class="st1" d="M256.4,164c0,0,32.5-104.5,137-83.6L256.4,164z"/>
<path class="st0" d="M402.7,587.6c-40.2,0-72.9-32.7-72.9-72.9c0-40.2,32.7-72.9,72.9-72.9s72.9,32.7,72.9,72.9
	C475.6,554.9,442.9,587.6,402.7,587.6z M402.7,448.2c-36.7,0-66.5,29.8-66.5,66.5c0,36.7,29.8,66.5,66.5,66.5
	c36.7,0,66.5-29.8,66.5-66.5C469.2,478,439.4,448.2,402.7,448.2z"/>
<path class="st1" d="M343,502.3c0,0,17.4-56,73.4-44.8L343,502.3z"/>
<path class="st0" d="M525.8,747c-21.8,0-39.6-17.7-39.6-39.6c0-21.8,17.7-39.6,39.6-39.6s39.6,17.7,39.6,39.6
	C565.4,729.3,547.6,747,525.8,747z M525.8,672.7c-19.2,0-34.8,15.6-34.8,34.8c0,19.2,15.6,34.8,34.8,34.8
	c19.2,0,34.8-15.6,34.8-34.8C560.6,688.3,545,672.7,525.8,672.7z"/>
<path class="st1" d="M496.3,703.1c0,0,9.3-29.9,39.1-23.9L496.3,703.1z"/>
<path class="st0" d="M523.5,616.2c-11.1,0-20.2-9-20.2-20.2c0-11.1,9-20.2,20.2-20.2c11.1,0,20.2,9,20.2,20.2
	C543.7,607.1,534.6,616.2,523.5,616.2z M523.5,579c-9.4,0-17,7.6-17,17c0,9.4,7.6,17,17,17c9.4,0,17-7.6,17-17
	C540.5,586.6,532.8,579,523.5,579z"/>
<path class="st1" d="M509.9,596.1c0,0,4.6-14.9,19.6-11.9L509.9,596.1z"/>
</svg>
