<?xml version="1.0" encoding="utf-8"?>
<!-- Generator: Adobe Illustrator 25.3.0, SVG Export Plug-In . SVG Version: 6.00 Build 0)  -->
<svg version="1.1" id="Calque_1" xmlns="http://www.w3.org/2000/svg" xmlns:xlink="http://www.w3.org/1999/xlink" x="0px" y="0px"
	 viewBox="0 0 800 800" style="enable-background:new 0 0 800 800;" xml:space="preserve">
<style type="text/css">
	.st0{fill:#D1501E;}
	.st1{fill:#E0752D;}
	.st2{fill:#AA3D1B;}
	.st3{fill:#E8803A;}
	.st4{fill:#FFFFFF;}
</style>
<g id="Calque_2_1_">
	<g>
		<path class="st0" d="M204.3,302.3c0.6-40.2-19.3-80.4-52-104c-8.7-6.2-20.2-11.5-29.3-5.9c10.9,18.7,17.8,39.9,20.2,61.4
			c-7.8-12.8-15.9-25.2-23.7-38c-8.7-13.7-17.4-28-30.5-38c-5.9,23.7-10.3,48-7.8,72.3c2.5,24.3,12.8,48.3,31.5,63.8
			c18.4,15.3,45.5,20.6,66.7,9.7c1.6,2.5,3.4,4.4,5.6,6.5c4.4,4.4,10,8.7,15.9,7.2l0.3-0.3c7.5-2.5,13.1-10,13.1-18.1
			C214.6,312.3,210.2,305.8,204.3,302.3z"/>
	</g>
	<g>
		<path class="st1" d="M209.3,364.9c-1.6-1.6-3.1-3.1-4.4-4.4c-2.2,2.8-6.2,3.1-9.3,1.2c-3.1-1.6-5-4.7-6.2-7.8
			c-4-10-2.2-21.8,4-30.2c6.9-9,19.3-13.7,29.9-10.3s18.4,14.9,16.2,26.2c-1.9,9-9.3,15.9-18.1,19.3c-8.4,3.4-17.8,3.7-27.1,3.7
			c2.2-0.3,4-0.6,6.2-0.6"/>
	</g>
	<g>
		<path class="st0" d="M596.7,441.9c24-32.4,63.8-52.3,104.3-51.4c10.6,0.3,23,3.1,27.1,13.1c-19.9,8.4-38.3,20.9-53.3,36.4
			c14-5.3,27.7-10.6,41.7-15.9c15.3-5.9,30.8-11.8,47.3-11.8c-9.7,22.4-20.9,44.5-37.7,62.3c-16.8,17.8-39.2,30.8-63.8,31.8
			c-23.7,0.9-48.6-11.2-59.2-32.7c-2.5,0.9-5.6,1.6-8.4,1.9c-5.9,0.6-13.4,0.9-17.1-4v-0.3c-4.7-6.5-4.4-15.9,0.3-22.4
			C582.4,443.4,589.9,440.6,596.7,441.9z"/>
	</g>
	<g>
		<path class="st1" d="M554.7,488.6c2.2-0.3,4-0.6,6.2-0.9c0,3.4,3.1,6.2,6.5,6.9c3.4,0.6,6.9-0.9,9.7-2.5
			c9-5.6,14.9-15.9,14.9-26.8c0-11.2-7.2-22.4-17.8-26.2s-23.7,0.9-28.7,10.9c-4,8.1-2.2,18.4,2.8,26.2c4.7,7.8,12.1,13.7,19.3,19.3
			c-1.6-1.6-3.1-2.8-4.7-4.4"/>
	</g>
	<g>
		<path class="st0" d="M183.1,389.2c-12.5-12.8-29-24.3-46.7-22.1c-18.4,2.5-31.8,18.7-41.4,34.6c15.6-7.2,33.9-14,49.2-6.2
			c10,5.3,20.2,16.5,30.2,11.5c5.6-2.8,7.8-9.7,9-15.6"/>
	</g>
	<g>
		<path class="st0" d="M191.9,420.1c-15.6,7.5-34.6,2.8-50.5,9.7c-16.5,6.9-26.5,26.2-22.7,43.6c16.5-3.1,27.4-19.9,43.6-24.9
			c8.1-2.5,16.8-1.6,24.3-5.6c7.5-4,11.5-15.6,4.4-20.2"/>
	</g>
	<g>
		<path class="st0" d="M226.1,447.8c-29,7.8-54.5,27.4-69.5,53.3c-1.6,2.5-3.1,5.6-2.8,8.7s2.5,6.2,5.6,5.9c2.5-0.3,4.4-2.5,6.2-4.7
			c9.7-12.8,22.4-23.7,36.8-31.1c7.5-3.7,15.3-7.2,21.2-12.8c5.9-5.6,9.7-14.9,5.9-22.4"/>
	</g>
	<g>
		<path class="st0" d="M532,538.7c14-5.3,27.7-10.9,41.7-16.2c8.7-3.4,18.7-6.9,27.7-3.7c13.4,5,17.1,21.5,19,35.5
			c0.6,5,1.2,10-0.6,14.3l-5.6,5.3l-11.8-14.3c-4-12.5-20.9-13.7-33.6-11.8c-12.8,1.9-28.7,3.7-36.1-6.9c0.9-1.9,1.9-4.4,1.9-6.5"/>
	</g>
	<g>
		<path class="st0" d="M520.8,568.3c11.5-5,24.3-7.5,37.1-7.2c7.2,0.3,14.6,1.6,19.9,6.5c4.7,4.7,6.5,11.5,7.5,18.1
			c1.6,10.9,1.9,21.8,0.3,32.7c-8.7-10.3-10.3-25.5-19.9-34.9c-10-9.7-25.2-10-38.9-10.3c-4.7,0-11.2-4-8.1-7.5"/>
	</g>
	<path class="st2" d="M95,402c0,0,42.7-33,76.9,0.9l-1.2,9C170.7,412,146.1,388.6,95,402z"/>
	<g>
		<path class="st0" d="M489.9,576.1c21.5,14.6,23.7,45.2,21.2,71.3c-7.2-0.6-10.3-8.7-12.1-15.6c-3.7-14.6-7.5-29.3-11.5-44.2
			c-0.9-4-0.3-10.6,4-10"/>
	</g>
	<path class="st2" d="M159.1,515.4c0,0,40.8-56.1,64.2-48.6C223.3,466.8,174.7,510.1,159.1,515.4z"/>
	<path class="st2" d="M118.7,473.3c0,0,28.3-36.4,62.6-33.3l5.3,2.8C186.6,442.8,134.2,472.4,118.7,473.3z"/>
	<path class="st2" d="M487.4,587.6l23.7,59.8c0,0-9,19.9-33.9-64.2L487.4,587.6z"/>
	<path class="st2" d="M613.6,573.6c0,0,0.6-37.1-58.6-30.8l-3.1,9.3C551.9,552.1,588,545.3,613.6,573.6z"/>
	<path class="st2" d="M545.7,570.8c0,0,27.1-7.8,39.9,47.3C585.5,618.2,545.7,583.3,545.7,570.8z"/>
	<g>
		<path class="st3" d="M178.1,445.9c39.2,28,84.1,46.4,125.2,71.3c45.2,27.4,94.4,48.3,145.1,62.3c20.6,5.6,41.7,10.3,62.9,13.1
			c12.5,1.6,27.4,1.6,35.2-8.1c3.1-4,4.7-9,6.2-14c6.9-24,14-48,14.9-72.9s-4.4-50.8-19.9-70.1c-10-12.1-23-21.2-36.4-29.6
			c-44.2-27.7-91.3-50.8-140.2-68.8c-34.9-12.8-73.8-23-108.7-10c-12.5,4.7-24,12.5-34.6,20.6c-14.9,11.2-29,23.4-42,36.1
			C185.9,375.5,147,423.8,178.1,445.9z"/>
	</g>
	<g>
		<path class="st3" d="M365.6,343.8c4.7-11.5,9.3-23.4,13.7-34.9c0.9-2.2,1.9-4.7,1.2-7.2s-2.5-4-4-5.9
			c-7.2-7.2-13.4-17.4-10.6-27.4c0.9-3.7,3.1-6.9,5.3-9.7c9.7-11.2,27.4-16.8,39.6-8.1c7.5,5.6,10.9,15.9,8.7,24.9
			c-2.2,9-9.7,16.5-18.7,19c-2.8,0.9-5.9,1.2-8.1,3.4c-1.9,1.9-2.5,4.4-3.4,6.9c-1.6,6.2-3.4,12.5-5,18.7c-1.2,4.4-2.8,9.3-6.9,11.2
			c-4,2.2-10.3-1.9-8.4-5.9c0.3-0.3,0.6-0.9,1.2-0.6c0.6,0.3,0,1.2-0.3,0.6"/>
	</g>
	<g>
		<path class="st3" d="M465.6,392.7c8.1-9.7,16.2-19,24.3-28.7c1.6-1.9,3.4-4,3.4-6.5c0.3-2.5-0.9-4.7-2.2-6.9
			c-4.7-9-7.2-20.9-1.6-29.3c2.2-3.1,5-5.6,8.1-7.5c12.8-7.8,31.5-7.2,40.2,4.7c5.3,7.5,5.3,18.4,0.6,26.2s-14.3,12.5-23.7,12.1
			c-2.8,0-6.2-0.6-8.7,0.6c-2.5,0.9-4,3.4-5.3,5.6c-3.4,5.3-7.2,10.6-10.6,15.9c-2.5,3.7-5.6,7.8-10,8.4c-4.4,0.6-9.3-5-6.2-8.1
			c0.3-0.3,0.9-0.6,1.2-0.3c0.3,0.3-0.6,0.9-0.6,0.6"/>
	</g>
	<g>
		<path class="st4" d="M396.5,250.6c-0.6,0-1.6,0-2.2,0.3c-5.9,1.2-11.8,3.7-15.9,8.1c-8.4,8.7-5.9,24.6,4.7,30.8
			c10.6,6.2,26.5,0.9,31.1-10c4-10,0-24-9.7-28.3c-1.9-0.9-4-1.2-5.9-0.9H396.5z"/>
	</g>
	<circle cx="406.1" cy="277.4" r="7.8"/>
	<g>
		<path class="st4" d="M517.3,312c-0.6,0-1.6,0-2.2,0.3c-5.9,1.2-11.8,3.7-15.9,8.1c-8.4,8.7-5.9,24.6,4.7,30.8
			c10.6,6.2,26.5,0.9,31.1-10c4-10,0-24-9.7-28.3c-1.9-0.9-4-1.2-5.9-0.9H517.3z"/>
	</g>
	<circle cx="526.7" cy="338.8" r="7.8"/>
	<path class="st0" d="M339.8,447.2c16.2,27.7,51.1,42,82.2,34.3c5.9-1.6,3.4-10.6-2.5-9c-27.1,6.9-57.3-5.6-71.6-29.9
		C344.8,437.2,336.7,441.9,339.8,447.2L339.8,447.2z"/>
	<g>
		<g>
			<path class="st0" d="M197.5,419.8c5.9,0,5.9-9.3,0-9.3C191.5,410.4,191.5,419.8,197.5,419.8L197.5,419.8z"/>
		</g>
	</g>
	<g>
		<g>
			<path class="st0" d="M211.2,442.2c5.9,0,5.9-9.3,0-9.3C205.2,432.8,205.2,442.2,211.2,442.2L211.2,442.2z"/>
		</g>
	</g>
	<g>
		<g>
			<path class="st0" d="M221.8,419.8c5.9,0,5.9-9.3,0-9.3C215.8,410.4,215.8,419.8,221.8,419.8L221.8,419.8z"/>
		</g>
	</g>
	<g>
		<g>
			<path class="st0" d="M528.2,557.1c5.9,0,5.9-9.3,0-9.3C522.3,547.8,522.3,557.1,528.2,557.1L528.2,557.1z"/>
		</g>
	</g>
	<g>
		<g>
			<path class="st0" d="M504.2,576.7c5.9,0,5.9-9.3,0-9.3C498,567.4,498,576.7,504.2,576.7L504.2,576.7z"/>
		</g>
	</g>
	<g>
		<g>
			<path class="st0" d="M502.7,549.6c5.9,0,5.9-9.3,0-9.3C496.8,540.3,496.5,549.6,502.7,549.6L502.7,549.6z"/>
		</g>
	</g>
	<g>
		<g>
			<path class="st0" d="M520.8,531.3c5.9,0,5.9-9.3,0-9.3C514.8,521.9,514.8,531.3,520.8,531.3L520.8,531.3z"/>
		</g>
	</g>
	<g>
		<g>
			<path class="st0" d="M466.2,554c5.9,0,5.9-9.3,0-9.3C460.3,544.7,460.3,554,466.2,554L466.2,554z"/>
		</g>
	</g>
	<g>
		<g>
			<path class="st0" d="M241.4,440.9c5.9,0,5.9-9.3,0-9.3S235.5,440.9,241.4,440.9L241.4,440.9z"/>
		</g>
	</g>
	<g>
		<g>
			<path class="st0" d="M209.6,391.1c5.9,0,5.9-9.3,0-9.3S203.7,391.1,209.6,391.1L209.6,391.1z"/>
		</g>
	</g>
	<g>
		<path class="st0" d="M370.9,264.7c0.3-10.3,6.5-20.2,17.8-24c11.2-3.7,25.9,4.7,24.6,14.9c-9.3-5-15.9-3.7-23.7-2.2
			c-7.8,1.6-15.6,5.6-18.7,12.1"/>
	</g>
	<g>
		<path class="st0" d="M492.4,326.9c0.3-10.3,6.5-20.2,17.8-24c11.2-3.7,25.9,4.7,24.6,14.9c-9.3-5-15.9-3.7-23.7-2.2
			c-7.8,1.6-15.6,5.6-18.7,12.1"/>
	</g>
	<path class="st2" d="M674.6,440c0,0,73.5-39.9,89.1-27.7C763.7,412.3,691.7,445.9,674.6,440z"/>
</g>
</svg>
