<?xml version="1.0" encoding="utf-8"?>
<!-- Generator: Adobe Illustrator 25.3.0, SVG Export Plug-In . SVG Version: 6.00 Build 0)  -->
<svg version="1.1" id="Calque_1" xmlns="http://www.w3.org/2000/svg" xmlns:xlink="http://www.w3.org/1999/xlink" x="0px" y="0px"
	 viewBox="0 0 800 800" style="enable-background:new 0 0 800 800;" xml:space="preserve">
<style type="text/css">
	.st0{fill:#B58595;}
	.st1{fill:#F2DAE1;}
	.st2{fill:#CE99A8;}
	.st3{fill:#EDCCD4;}
	.st4{fill:#FFFFFF;}
	.st5{fill:#EF9EB6;}
</style>
<g>
	<g>
		<path class="st0" d="M211.8,270.5c6.6,4.6,13.1,9.2,20.7,11.7c7.6,2.5,16.3,2.5,23-1.8c5.1-3.4,8.7-8.9,13.8-12.2
			c14-9.2,33.7,0.5,49.6-5c12.2-4.3,20.4-17.2,33-20.6c16.5-4.6,33.2,8.7,50.2,7.6c22-1.2,37.4-24.6,59.2-26.9
			c5.3-0.5,11.5,0,15.6-3.7c4.4-4.1,3.7-11.9-0.2-16.5c-3.9-4.6-10.1-6.7-16-8c-28.7-6.2-58.1,2.7-87.2,5.3
			c-19.3,1.8-38.8,0.7-58,2.8c-24.3,2.8-47.9,11-68.8,23.9c-9,5.7-17.9,12.4-23,21.8c-5.1,9.4-5.5,22,1.4,30.1"/>
	</g>
	<path class="st1" d="M253.8,223.4c-6.7,3.9-7.1,12.4-6.6,19.3c0.7,10.3,1.4,20.6,3.9,30.5c2.3,9.2,6.2,18.1,8.7,27.3
		c2.7,9.9,2.5,19.7,1.8,29.8c-0.7,9.6-1.4,19.5,0.7,28.9c2,9,7.1,17,11,25.4c4.4,9,6,19,7.8,28.9c1.8,9.9,3.9,19.9,6.4,29.6
		c5.9,22.3,13.7,44.3,21.5,66c1.2,3.2,6.4,1.8,5.1-1.4c-6.9-18.8-13.7-37.8-19.1-57.1c-2.7-9.6-5.1-19.1-7.1-28.7
		c-2-9.8-3-19.7-5.9-29.1c-2.7-8.7-7.4-16.5-11.2-24.6c-4.1-8.9-5.1-18.1-4.8-27.7c0.4-9.6,1.6-19.3,0.9-28.9
		c-0.7-9.4-3.7-18.1-6.7-26.9c-1.8-5.1-3.4-10.1-4.6-15.4c-1.2-5.5-2-11.2-2.3-16.8c-0.4-5-1.1-9.9-0.9-14.9
		c0.2-3.5,0.7-7.6,4.1-9.6C259.5,226.2,256.8,221.6,253.8,223.4L253.8,223.4z"/>
	<path class="st1" d="M239.5,245.7c-4.4,16.8-2,34.2,0.5,51.1c1.2,8.5,2.5,17,2.8,25.5c0.4,8.9-0.9,17.4-3.2,25.9
		c-2.3,8.3-4.8,17.4-2.1,26.1c2.5,7.8,8.5,13.8,11.9,21.1c6.9,14.7,5,31.7,5.3,47.5c0.2,8.7,0.9,17.7,3.7,26.1
		c1.4,4.1,3,8.2,6.2,11.2c3,2.7,7.1,4.3,10.8,1.8c2.8-2,0.2-6.6-2.7-4.6c-2.8,1.8-5.9-2.1-7.1-4.4c-1.8-3.2-2.8-6.9-3.7-10.5
		c-1.8-7.4-2.1-15.1-2.1-22.5c-0.2-15.1,0.9-30.8-5.1-45c-3-7.1-8.3-12.8-11.5-19.9c-3.7-8.2-1.2-16.7,0.9-24.8
		c2.1-8,3.5-16,3.7-24.3c0-8.2-0.9-16.3-2.1-24.3c-2.5-18.1-6.4-36.7-1.4-54.8C245.5,243.9,240.3,242.5,239.5,245.7L239.5,245.7z"/>
	<path class="st1" d="M437.3,197.8c12.2,6.2,15.6,21.3,15.8,33.9c0.4,16.5-3.5,34,4.6,49.5c3.7,7.1,9.6,12.6,14.7,18.6
		c2.5,2.8,4.8,6,6.6,9.4c2.1,3.9,3.4,8.3,4.3,12.6c2,9,3.2,18.4,5,27.7c1.8,9.6,3.9,19,6,28.5c2.5,10.6,5.1,21.1,7.8,31.7
		c1.4,5.3,2.7,10.6,4.1,16c1.2,4.6,2.5,9.2,5,13.5c1.8,3,6.4,0.2,4.6-2.7c-2.3-3.7-3.4-8-4.4-12.2c-1.2-4.8-2.5-9.6-3.7-14.4
		c-2.5-9.6-4.8-19.1-7.1-28.7c-2.3-9.6-4.4-19.1-6.4-28.9c-2-9.4-3.4-19-5.1-28.4c-1.6-8.5-4.3-16.5-9.6-23.4
		c-4.8-6.4-10.8-11.7-15.2-18.3c-9.9-14.7-5.9-32.8-6-49.5c0-14.7-4.1-32.3-18.4-39.4C437,191.6,434.3,196.2,437.3,197.8
		L437.3,197.8z"/>
	<path class="st1" d="M452,198.2c6.9,1.6,11.5,7.1,14.2,13.3c3.4,8,3.2,16.5,3.2,25c0,9.4,0.4,18.6,3.9,27.7
		c3.2,8.2,7.8,15.6,11.3,23.6c3.5,8.2,5,17.2,7.4,25.7c1.2,4.3,2.7,8.3,5,12.2c2.1,3.7,4.8,7.1,7.6,10.5c6,6.7,11.7,13.1,15.1,21.8
		c3.5,8.9,5.5,18.3,7.6,27.3c5.7,22.5,11.2,45,16.8,67.5c0.9,3.4,6,2,5.1-1.4c-5.1-20.6-10.3-41-15.4-61.5
		c-2.3-9.6-4.4-19.1-7.4-28.5c-2.8-8.9-7.3-16.3-13.3-23.2c-6-6.9-12.1-13.3-15.1-22.3c-3-8.7-4.1-17.9-7.4-26.6
		c-3.2-8.3-7.8-16-11.3-23.9c-1.8-4.3-3.2-8.5-3.9-13.1c-0.7-5-0.7-10.1-0.7-15.1c0-9.8,0-19.3-3.9-28.4c-3.2-7.4-9-13.8-17.2-15.6
		C450.1,192.3,448.7,197.5,452,198.2L452,198.2z"/>
	<path class="st1" d="M416.6,204.2c10.8,9,20,19.9,21.1,34.4c0.5,7.6-0.4,15.2-0.4,22.9c0,7.1,0.7,14,3.2,20.7
		c4.4,12.2,12.4,22.5,18.6,33.7c3.2,5.9,5.9,11.9,7.1,18.6c1.6,8,1.2,16,1.2,24.1c-0.2,15.1,0.5,31.4,10.8,43.4
		c2.3,2.7,6-1.2,3.7-3.7c-9.2-10.6-9.4-25.5-9.4-38.8c0-8,0.2-16-0.9-23.8c-1.1-6.7-3.4-13.1-6.6-19.3c-5.9-11.5-14.2-21.6-19-33.5
		c-2.7-6.6-3.7-13.3-3.7-20.4c0-7.6,0.9-15.2,0.5-23c-0.5-8-2.7-15.4-7.1-22c-4.3-6.6-9.8-12.1-15.8-16.8
		C417.8,198.4,413.9,202.1,416.6,204.2L416.6,204.2z"/>
	<path class="st1" d="M469.2,190.9c7.3,8.3,10.3,19.3,12.8,30c2.7,11.3,5.5,22.3,9.6,33.2c8.5,22.7,20.2,44.3,25.4,68.3
		c2.5,11.2,4.1,23.8,13.3,31.6c2.7,2.3,6.4-1.6,3.7-3.7c-8-6.9-9.6-18.1-11.7-28c-2.5-11.7-6.4-22.9-10.8-33.9
		c-4.6-11.3-9.8-22.7-14.2-34c-4.3-10.8-7.1-22-9.8-33.3c-2.8-12.1-6.2-24.1-14.4-33.7C470.8,184.7,467.1,188.4,469.2,190.9
		L469.2,190.9z"/>
	<path class="st1" d="M219.8,219.5c1.1,15.1,2.1,30.3,2,45.6c-0.2,7.4-0.5,15.1-1.4,22.5c-0.9,7.4-2.3,14.7-3.4,22
		c-1.1,7.3-2,14.5-2,21.8c0,7.4,0.5,14.7-2,22c-2.1,6.2-5.7,11.7-8.9,17.4c-3.4,5.7-6.2,11.5-8.3,17.7c-4.6,14.2-5.1,29.6-1.2,44.1
		c0.9,3.4,6,2,5.1-1.4c-3.4-12.8-3.2-26.4,0.5-39c2-6.4,4.8-12.2,8.2-17.9c3.2-5.5,6.6-10.8,8.9-16.8c2.7-6.6,3.2-13.5,3-20.6
		c0-7.4,0.2-14.7,1.2-22.2c2-14.7,4.8-29.3,5.3-44.1c0.5-16.8-0.7-33.9-1.8-50.7C224.7,216.1,219.4,216.1,219.8,219.5L219.8,219.5z"
		/>
	<path class="st1" d="M211.8,246.2c-2.7,24.8-5,49.8-7.8,74.6c-0.7,5.9-1.6,11.7-3.5,17.2c-1.8,5-4.4,9.4-7.4,13.7
		c-6.2,8.5-14,15.6-19.5,24.5c-6,9.6-9.8,21.5-5.5,32.4c1.2,3.2,6.4,1.8,5.1-1.4c-3.9-9.8-0.4-20.2,5.1-28.5
		c5.5-8.7,13.3-15.8,19.3-24.1c6.6-9,9.8-19,11.2-30c1.6-12.1,2.7-24.1,3.9-36.2c1.4-14,3-28.2,4.4-42.2
		C217.5,242.9,212.2,242.9,211.8,246.2L211.8,246.2z"/>
	<path class="st2" d="M290.7,224.3c-4.8,8-6.7,17.6-5.7,26.6c0.7,5.1,2,9.8,4.1,14.5c2.1,4.4,5.1,8.2,8.3,11.7
		c0.7,0.9,1.4,1.6,2.1,2.5c0.2,0.4,1.2,1.6,0.4,0.4c0.4,0.4,0.5,0.7,0.9,1.2c0.5,0.9,1.1,1.8,1.6,2.7c0.5,0.9-0.5-1.8,0-0.2
		c0.2,0.5,0.4,1.1,0.5,1.6c0.2,0.7,0.4,1.4,0.5,2.1c0.4,1.8,0-1.4,0-0.2c0,0.5,0,0.9,0.2,1.4c0.2,1.8,0,3.4,0,5.1
		c0,0.9-0.2,2-0.2,2.8c0,0.4-0.2,0.7-0.2,1.2c-0.2,1.4,0-0.2,0-0.4c-0.2,2-0.5,3.9-0.9,5.9c-0.5,4.1-1.2,8.2-1.4,12.2
		c-0.2,8,2.3,16,8.7,21.1c3.2,2.7,6.9,4.3,10.5,6c0.7,0.4,1.2,0.7,2,1.1c0.4,0.2,0.7,0.5,1.1,0.7c0.9,0.4-1.2-1.2-0.2-0.2
		c0.2,0.2,0.5,0.5,0.7,0.7c1.1,1.1-0.4-0.4-0.4-0.4s0.5,1.1,0.7,1.1c0.5,0.5-0.7-1.6,0,0c0.7,1.8-0.2-1.8,0,0.4c0,1.2,0-0.7,0.2-0.9
		c-0.2,0.2-0.2,0.9-0.2,1.1c-0.4,1.8,0.9-1.4-0.2,0.4c-0.4,0.7-0.7,1.4-1.2,2.1c-0.4,0.7-0.9,1.2-1.2,1.8c-0.7,0.9,1.2-1.6,0.2-0.2
		c-0.2,0.4-0.4,0.5-0.7,0.9c-1.4,1.8-2.8,3.5-4.3,5.3c-4.4,6-7.1,13.5-4.4,20.9c2.3,6.4,7.3,10.8,12.2,14.9c2.1,1.8,4.3,3.5,6.4,5.5
		c0.5,0.5,0.9,1.1,1.4,1.6c1.2,1.4-0.5-1.1,0,0c0.4,0.5,0.7,1.1,1.1,1.6c0,0.2,0.2,0.5,0.4,0.7c-0.9-0.5-0.5-1.8-0.4-0.5
		c0,0.2,0.2,0.5,0.2,0.7c0.5,1.2,0-1.8-0.2-0.9c0,0.2-0.2,1.6,0,1.8c-0.2-0.2,0.5-2.1,0-0.9c-0.2,0.4-0.2,0.7-0.4,1.2
		c0.4-1.6,0.2-0.5,0,0c-0.4,0.5-0.5,1.1-0.9,1.6c-2.5,4.1-5,8.2-5,12.9c0,5.9,3.5,10.3,8,13.8c1.4,1.1,2.8,2,4.3,3
		c0.4,0.2,0.7,0.5,0.9,0.7c-1.4-1.1-0.4-0.4,0,0c0.4,0.4,0.9,0.9,1.2,1.2c1.2,1.1-0.4-0.9,0.5,0.5c0.5,0.9,1.1,1.6,1.4,2.5
		c0.2,0.4,0.4,0.9,0.7,1.2c0,0,0.9,2.1,0.5,1.1c-0.4-1.1,0.4,1.1,0.4,1.1c0.2,0.5,0.4,0.9,0.5,1.4c0.5,1.2,0.9,2.7,1.4,3.9
		c1.8,5,3.4,9.9,4.8,15.1c2.8,9.8,5,19.9,6.6,30c0.2,1.4,0.4,2.7,0.5,4.1c0,0.2,0.2,1.6,0,0.4c0,0.5,0.2,1.1,0.2,1.6
		c0.4,2.7,0.7,5.5,0.9,8.3c0.5,5.3,0.7,10.5,0.9,15.8c0.2,5.1,0,10.3,0,15.2c0,5.9,1.1,11.2,3.5,16.3c1.8,3.9,4.3,7.6,6,11.5
		c-0.7-1.4,0.2,0.7,0.4,1.2c0.2,0.5,0.4,1.1,0.4,1.6c0,0.4,0.2,1.8,0,0.5c0,1.1,0,2.1,0,3.2c-0.2,2.3,0.4-0.7,0,0.7
		c-0.2,0.7-0.4,1.6-0.5,2.3c-1.1,4.6-2.8,9-4.4,13.3c-0.4,1.1-0.9,2.3-1.4,3.4c-0.2,0.5-0.4,0.9-0.5,1.4c-0.2,0.2-0.5,1.4,0,0.2
		c-1.1,2.3-2,4.4-3,6.7c-3.9,8.2-8.3,16.1-13.5,23.8c-2.7,3.9-5.3,7.8-8.2,11.3c0.9-1.1-0.7,0.9-1.1,1.2c-0.7,0.9-1.6,2-2.3,2.8
		c-1.4,1.8-3,3.5-4.6,5.3c-3,3.4-6.2,6.7-9.4,9.9c-3,2.8-3.2,8.3,0,11.3c3.2,3,8.2,3.2,11.3,0c13.5-13.1,25.4-28.2,34.6-44.7
		c4.8-8.5,9-17.4,12.6-26.6c3.7-9.6,8-19.9,5.9-30.3c-0.9-4.6-3.4-9-5.7-13.1c-1.1-1.8-2-3.5-2.8-5.5c0.7,1.4-0.2-0.7-0.4-1.2
		c-0.2-0.5-0.4-1.2-0.5-1.8c-0.2-0.4-0.2-0.9-0.2-1.2c0,0.7,0,0.7,0,0.2c-0.5-10.3,0-20.7-0.7-31c-1.6-21.1-5.5-42-12.2-62.2
		c-3.2-9.6-6.2-20.4-14.5-26.9c-1.6-1.2-3.4-2.3-5-3.5c-0.4-0.4-0.9-0.5-1.2-0.9c0.2,0.2,1.2,1.1,0.4,0.2c-0.2-0.2-0.5-0.5-0.7-0.7
		c-1.2-1.1,0.7,1.2,0,0c-0.9-1.6,0.4,1.2,0,0.2c-0.4-1.1,0,2,0,0.2c0-1.2-0.2,0.4,0,0.4c0,0,0.2-1.1,0.4-1.1
		c-0.2,0.4-0.2,0.5-0.4,0.9c0.2-0.4,0.2-0.5,0.4-0.9c0.2-0.5,0.5-0.9,0.7-1.4c0.5-0.9,1.1-1.8,1.6-2.7c4.1-6.9,5-15.1,0.4-21.8
		c-3.5-5.1-8.5-8.7-13.3-12.8c-1.1-0.9-2-1.8-3-2.8c-0.4-0.4-0.7-0.9-1.2-1.2c-0.2-0.2-1.1-1.2-0.2-0.2s0-0.2-0.2-0.4
		c-0.4-0.5-0.5-1.1-0.9-1.6c-0.7-0.9,0.4,0.7,0.4,0.9c0-0.4-0.2-0.7-0.4-0.9c-0.2-0.4-0.2-0.7-0.2-0.9c-0.4-1.1,0.7,0.5,0.2,0.9V370
		c0.4,1.1-0.4,1.6,0,0.4c0.2-0.4,0.2-0.7,0.4-1.2c0.2-1.1,0.4,0.2-0.2,0.5c0.2,0,0.4-0.7,0.4-0.9c0.5-1.1,1.8-3.7,2.8-4.3
		c-0.7,0.4-0.9,1.1-0.4,0.4c0.4-0.4,0.5-0.7,0.9-1.1c0.5-0.5,1.1-1.2,1.4-1.8c1.4-1.8,2.8-3.5,4.1-5.3c5-7.4,5-17-1.6-23.6
		c-2.8-2.8-6.6-4.4-10.1-6.2c-1.6-0.7-3-1.6-4.4-2.5c-1.2-0.7,0.2,0.2,0.4,0.2c-0.4,0-0.7-0.7-1.1-0.9c-0.4-0.4-0.5-0.7-0.9-0.9
		c-1.1-1.1,0.7,1.4,0,0c-0.2-0.4-0.7-1.6-0.9-1.8c0.5,0.2,0.5,1.8,0.2,0.4c-0.2-0.4-0.2-0.7-0.4-1.2c-0.2-0.5-0.2-1.6-0.4-2
		c0.5,0.5,0.2,1.8,0,0.4c0-0.5,0-1.1-0.2-1.6c0-1.6,0-3.2,0.2-4.8c0-0.9,0.2-1.6,0.2-2.5c0-0.4,0-0.7,0.2-1.1c-0.5,2.1,0,0.4,0-0.2
		c1.2-8.2,2.8-16.3,1.4-24.6c-0.7-4.1-2.1-8.2-4.6-11.5c-1.6-2.1-3.2-4.1-5-6c-0.9-0.9-1.6-1.8-2.5-2.7c-0.4-0.4-0.5-0.7-0.9-1.1
		c1.1,1.2-0.2-0.4-0.4-0.5c-1.1-1.6-2-3.4-2.8-5.1c0.7,1.4,0.2,0.4,0,0c-0.2-0.5-0.4-1.1-0.5-1.6c-0.4-1.2-0.7-2.3-0.9-3.5
		c-0.2-0.7-0.5-2.8-0.2-1.1c-0.2-1.1-0.2-2.1-0.2-3.4c0-0.9,0-1.8,0-2.7c0-0.5,0-1.1,0.2-1.6c0-0.4,0-0.7,0.2-1.1
		c-0.2,0.9-0.2,1.1,0,0.5c0.4-2,0.7-3.9,1.4-5.9c0.2-0.5,0.4-1.1,0.5-1.6c-0.2,0.4-0.7,1.4,0,0c0.5-1.1,1.1-2,1.6-2.8
		c2.1-3.5,0.9-8.9-2.8-11C297.8,219.3,293,220.4,290.7,224.3L290.7,224.3z"/>
	<path class="st2" d="M355.9,220.4c-11.7,15.6-24.3,33.3-23.9,53.9c0.2,9.9,3.5,19,7.8,27.8c3.9,8.3,8.7,16.3,11.2,25.2
		c5.3,19.9-3.2,40.8,4.4,60.3c3.4,8.9,9,16.3,13.7,24.5c2.1,3.7,4.1,7.6,5.1,11.7c1.2,5,1.2,10.1,1.4,15.2c0.5,11,3.5,20.9,8.3,30.7
		c4.6,9.2,10.1,17.9,15.2,26.6c9.8,16.7,19.9,34.7,21.5,54.2c0.9,9.9-1.1,19.3-2.5,29.1c-1.4,10.1-1.8,20.6,3.4,29.6
		c2.1,3.7,5.5,6.9,6.6,11.2c0.2,0.9,0.2,2.8,0.2,3.5c-0.2,1.8-0.9,3.7-1.6,5.3c-2.8,7.1-7.6,13.5-9.2,20.9
		c-0.9,4.3-0.9,8.9,0.5,12.9c1.6,4.6,4.6,8.5,7.4,12.4c5.7,8,9.4,16.8,12.6,26.1c6.2,17.6,12.4,36,27.8,47.5c3.5,2.7,7.6,4.6,11.7,6
		c6.6,2.1,9.4-8.2,2.8-10.3c-16.3-5.3-24.1-23-29.3-37.9c-3.4-9.2-6.2-18.6-10.8-27.3c-2.3-4.4-5-8.3-7.8-12.2
		c-2.3-3.2-4.8-6.9-5.1-10.6c-0.5-6.7,4.1-13.5,7.1-19.5c3.5-7.4,6-15.4,2.5-23.2c-2-4.3-5.3-7.6-7.3-11.9
		c-1.8-3.9-2.3-8.2-2.1-12.4c0.2-9.8,3-19.3,3.5-29.3c1.1-19.9-6.4-39-15.4-56.2c-4.6-8.9-9.9-17.4-14.9-25.9
		c-5.1-8.5-10.1-17.2-12.9-26.8c-2.8-10.1-1.4-20.7-3.7-30.8c-2.1-8.9-7.3-16.5-12.1-24.3c-4.8-7.6-8.7-15.2-9.6-24.3
		c-0.9-10.1,0.5-20.2,0.5-30.3c0-10.3-2-19.7-6-29.1c-3.5-8.2-8.3-15.8-11.3-24.1c-3.2-8.5-4.1-17.4-1.8-26.2
		c2.5-9.2,7.3-17.7,12.6-25.5c2.7-4.1,5.5-8,8.5-11.9c1.8-2.3,0.4-6-2-7.3C360.5,216.8,357.7,218.1,355.9,220.4L355.9,220.4z"/>
	<path class="st2" d="M365,231.5c1.4,1.6,2.8,3,4.3,4.8c0.4,0.4,0.5,0.7,0.9,1.1c-0.9-1.1-0.2-0.2,0,0c0.7,1.1,1.4,2.1,2.3,3.2
		c2.5,3.5,4.4,7.4,6.2,11.3c0.2,0.2,0.5,1.4,0,0c0.2,0.4,0.4,0.9,0.5,1.2c0.4,1.1,0.7,2,1.1,3c0.7,2.1,1.4,4.3,2,6.4
		c0.5,2,0.9,3.9,1.2,5.9c0,0.5,0.5,3.5,0.4,1.8c0.2,1.2,0.4,2.3,0.4,3.5c0.4,4.3,0.4,8.3,0,12.6c0,0.5-0.2,1.2-0.2,1.8
		c0,0.4-0.2,2,0,0.4c-0.2,1.1-0.4,2-0.5,3c-0.4,2.5-0.9,5-1.4,7.4c-2.1,10.1-4.3,20.6-2.1,30.8c2,8.9,7.8,16,14.2,22.2
		c2.8,2.7,5.7,5.3,8.3,8.3c0.5,0.7,1.1,1.2,1.6,2c0.9,1.1,0,0-0.2-0.2c0.4,0.4,0.5,0.9,0.9,1.2c0.5,0.7,1.1,1.6,1.4,2.3
		c0.2,0.4,0.4,0.7,0.5,1.1c0.9,1.8-0.5-1.6,0.4,0.7c1.6,4.6,2.1,9.4,2.8,14c0.7,4.8,2,9.2,3.7,13.7c3.9,9.4,9.2,17.9,13.5,27.1
		c0.4,0.9,0.9,2,1.2,3c-0.5-1.1,0,0.2,0.2,0.4c0.2,0.5,0.5,1.2,0.7,1.8c0.9,2.3,1.8,4.8,2.7,7.1c1.6,4.6,3,9,4.3,13.8
		c2.5,9.4,4.4,19,5.9,28.7c0.2,1.2,0.4,2.3,0.5,3.5c-0.2-1.2,0,0,0,0.4c0,0.7,0.2,1.4,0.2,2c0.4,2.5,0.5,5.1,0.9,7.6
		c0.5,4.4,0.7,9,1.2,13.5c1.1,9.8,3.2,19.3,10.1,26.9c2.7,2.8,6,5.3,9.2,7.4c1.4,0.9,2.7,1.8,4.1,2.7c1.2,0.9,3.5,1.8,4.4,3
		c-0.7-1.1-0.9-0.7-0.4-0.2c0.4,0.2,0.5,0.5,0.9,0.7c0.7,0.5,1.2,1.2,2,1.8c0.2,0.2,0.5,0.5,0.7,0.7c0.9,0.9-0.4-0.4-0.4-0.4
		c0.2,0,1.2,2,1.4,2.1c0.9,1.4-0.2-0.5-0.2-0.5c0.2,0,0.4,1.1,0.4,1.2c0.2,0.5,0.4,1.1,0.4,1.6c0-0.5,0-1.1,0,0.4
		c0,2.7-0.4,5.3-0.5,8c-0.9,9.6,1.1,19,5.3,27.7s11,15.1,18.6,20.7c1.8,1.2,3.5,2.7,5.3,3.9c1.2,0.9,0.4,0.4,0.2,0
		c0.5,0.4,0.9,0.7,1.4,1.1c0.9,0.7,1.8,1.6,2.7,2.5c0.9,0.7,1.6,1.6,2.3,2.3c0.4,0.4,0.7,0.7,1.1,1.2c-0.9-0.9,0,0,0.2,0.2
		c1.4,2.1,2.8,4.3,4.1,6.4c4.3,7.8,7.6,16.1,12.4,23.8c10.1,16.3,25.7,30.1,45.7,30.5c4.6,0,9.2-0.7,13.5-2.3
		c3.9-1.6,6.9-5.5,5.5-9.8c-1.2-3.7-5.7-7.3-9.8-5.5c-2,0.7-3.9,1.2-5.9,1.6c1.6-0.4-0.7,0-1.2,0c-1.1,0-2.3,0-3.4,0
		c-0.5,0-1.1-0.2-1.8-0.2c-1.2,0,1.2,0.4,0,0c-1.1-0.2-2.1-0.4-3-0.7c-0.9-0.2-1.8-0.5-2.7-0.7c-0.5-0.2-1.1-0.4-1.6-0.5
		c-0.5-0.2-1.4-0.5-0.4-0.2c-2-0.9-3.7-2-5.5-3c-0.7-0.5-1.6-1.1-2.3-1.6c-1.8-1.2,0.7,0.7-0.4-0.2c-0.5-0.4-0.9-0.7-1.4-1.2
		c-1.6-1.4-3.2-3-4.6-4.6c-0.7-0.7-1.2-1.4-2-2.1c0,0-1.4-1.8-0.7-0.9c0.5,0.7-0.5-0.9-0.7-0.9c-10.8-14.9-15.1-34.2-30-46.1
		c-2-1.6-3.9-3-6-4.6c-0.9-0.7-1.8-1.2-2.7-2c-0.4-0.4-0.7-0.5-1.2-0.9c-0.4-0.2-0.5-0.4-0.9-0.7c0.5,0.4,0.5,0.5,0.2,0.2
		c-1.6-1.4-3.2-2.7-4.6-4.1c-0.7-0.7-1.4-1.6-2.1-2.3c-0.2-0.2-1.1-1.2-0.5-0.5c0.5,0.7-0.7-0.9-0.9-1.2c-1.1-1.6-2.1-3.4-3-5.1
		c-0.2-0.4-0.4-0.9-0.5-1.2c-1.1-2,0.4,0.9-0.2-0.4c-0.4-1.1-0.9-2.1-1.2-3.4c-0.5-2-1.1-3.7-1.4-5.7c-0.4-1.6,0-0.2,0,0
		c0-0.5-0.2-1.2-0.2-1.8c-0.2-1.2-0.2-2.3-0.2-3.5c0-5.1,1.2-9.9,0.5-15.1c-0.7-4.8-2.5-8.9-5.7-12.6c-4.6-5.5-11.2-8.9-17-12.9
		c-0.4-0.4-0.7-0.5-1.2-0.9c-0.5-0.4-1.1-0.4,0.2,0.2c-0.5-0.4-1.2-1.1-1.8-1.4c-0.5-0.5-1.2-1.1-1.8-1.8c-0.4-0.4-0.5-0.7-0.9-1.1
		c0.7,0.9,0.2,0.2-0.2-0.4c-0.5-0.9-1.1-1.8-1.6-2.7c-0.7-1.2-0.2-0.4,0,0c-0.2-0.4-0.4-0.9-0.5-1.2c-0.7-2.1-1.2-4.4-1.8-6.7
		c-0.2-0.5-0.4-3-0.2-1.4c-0.2-0.9-0.2-2-0.4-2.8c-0.2-2.5-0.4-4.8-0.5-7.3c-0.4-4.8-0.9-9.6-1.4-14.4c-2.5-19.5-6.4-39-13.7-57.4
		c-3.7-9.4-8.2-18.1-12.8-26.9c-1.1-2-2-3.9-3-5.9c-0.4-0.5-0.5-1.2-0.7-1.8c0.2,0.4,0.5,1.2,0-0.2c-0.5-1.2-0.9-2.5-1.2-3.7
		c-1.4-4.6-2-9.4-2.7-14c-0.7-5-2.1-9.8-4.4-14.2c-2-3.7-4.8-6.9-7.6-10.1c-2.7-2.8-5.5-5.3-8.2-8c-1.2-1.2-2.5-2.5-3.7-3.9
		c-0.4-0.4-2-2.7-0.9-1.1c-0.5-0.9-1.2-1.6-1.8-2.5c-0.4-0.7-0.7-1.4-1.2-2.1c-0.9-1.8,0.4,1.1-0.2-0.4c-0.2-0.5-0.4-1.2-0.7-1.8
		c-0.4-0.9-0.5-2-0.7-3c-0.4-1.6-0.2-0.5,0-0.2c-0.2-0.7-0.2-1.4-0.2-2.3c-0.2-2.3,0-4.6,0.2-6.9c0-0.5,0.2-1.1,0.2-1.6
		c0,0.4-0.2,1.4,0-0.2c0.2-1.2,0.4-2.7,0.7-3.9c1.8-9.4,4.3-18.6,4.4-28.4c0.4-17.7-5.1-35.8-15.2-50.2c-2.7-3.7-5.7-7.4-8.9-10.8
		c-2.8-3-8.3-3.2-11.3,0C362.1,223.5,362,228.3,365,231.5L365,231.5z"/>
	<path class="st0" d="M273.7,246.6c10.5,14.2,20.9,28.7,23.9,46.4c1.6,9.6,1.8,19.5,2.7,29.3c0.9,9.8,2.1,19.5,3.4,29.3
		c2.5,19,4.8,37.9,7.8,56.7c2.8,19,6.9,37.6,12.1,56c5.9,20.7,11.3,41.8,19.3,61.9c0.4,0.7,1.6,0.4,1.2-0.4
		c-7.1-17.9-12.1-36.7-17.4-55.1c-5.3-18.8-9.9-37.4-13.1-56.7c-3.2-19.3-5.5-38.6-8-58c-1.2-9.8-2.5-19.5-3.4-29.3
		c-0.9-9.6-1.2-19.1-2.3-28.7c-1.1-9.8-3.9-19-8.5-27.5c-4.6-8.7-10.5-16.7-16.3-24.5C274.4,245.2,273.1,245.9,273.7,246.6
		L273.7,246.6z"/>
	<path class="st0" d="M383.2,226.2c-3.7,8-2.7,16.8-1.4,25.4c1.2,9.4,2.3,18.8-2.8,27.3c-4.3,7.1-10.8,14.2-7.4,23
		c0.7,2,1.8,3.7,2.7,5.5c1.4,2.8,2.1,5.7,2.1,8.9c0,5-1.1,9.9-0.7,15.1c0.4,4.3,2.5,8,5,11.3c2.8,3.7,6,7.4,7.1,12.2
		c1.2,5.7-0.7,11.5-0.4,17.4c0.4,5.1,2.1,9.9,4.1,14.7c9.2,21.8,18.8,43.3,28.2,64.9c5.3,12.1,10.3,24.1,15.8,36
		c4.8,10.8,11,20.7,20.4,28.2c0.7,0.5,1.6-0.4,0.9-0.9c-8.5-6.7-14.4-15.4-18.8-25c-4.8-10.1-9-20.6-13.5-30.8
		c-9.4-21.5-18.6-42.7-28-64.2c-2.3-5.3-4.8-10.5-6.4-16c-1.6-5.7-1.2-11-0.7-16.7c0.4-4.6,0-9-2.3-13.1c-2.1-3.7-5.1-6.9-7.4-10.5
		c-5.5-9.2,0.4-19.5-3-29.1c-1.6-4.4-4.8-8.2-4.6-13.1c0.2-4.6,3-8.7,5.3-12.4c2.7-3.9,5.1-7.8,6.2-12.6c1.1-4.6,0.9-9.4,0.4-14
		c-1.1-10.1-4.1-20.9,0.5-30.5C384.8,226,383.6,225.3,383.2,226.2L383.2,226.2z"/>
	<path class="st0" d="M401.1,229.8c5.3,8,9,16.8,10.8,26.2c1.8,9,1.2,18.1,0.4,27.1c-0.7,7.8-1.8,16-0.5,23.8
		c0.5,3.5,1.6,7.1,3.2,10.3c2,3.5,4.6,6,7.4,8.7c3.7,3.4,4.8,7.4,3.5,12.2c-1.1,3.9-3,7.6-4.1,11.7c-2,7.1,0.5,13.1,4.6,19
		c4.1,5.9,9.6,11.7,9.6,19.3c0,3.9-1.1,8,1.1,11.7c2,3,5.3,4.8,7.6,7.6c3.4,3.9,2.1,8.9,1.4,13.7c-0.5,3.9-0.2,7.3,1.4,10.8
		c3.2,6.6,9.2,11.3,12.2,18.1c2.1,4.6,1.4,9.4,2.1,14.4c0.5,3.5,2,6.9,3.9,9.9c3.7,6,9.9,12.1,9.9,19.7c0,3.9-2,7.4,0.5,11
		c2,2.8,5.3,4.3,7.8,6.6c3.5,3,5.9,7.3,8.5,10.8c2.7,3.4,5.3,6.6,8.2,9.6c11.9,12.6,26.2,22.7,42,29.8c3.7,1.6,7.6,3.2,11.7,4.4
		c4.6,1.6,9.8,2.5,13.1,6.6c2.7,3.4,4.3,7.3,6.7,10.6c2.1,3,4.8,5.9,7.4,8.3c11.3,10.3,26.6,16.1,41.8,15.8c3.7,0,7.3-0.5,10.8-1.4
		c0.9-0.2,0.5-1.4-0.4-1.2c-15.6,3.5-32.4-0.4-45.6-9.4c-6.6-4.6-12.2-10.5-16.1-17.4c-2-3.4-3.7-6.9-7.1-9
		c-3.5-2.3-8.2-3.2-12.1-4.4c-16.7-5.7-31.9-15.1-44.9-26.9c-6.4-5.9-12.1-12.2-17.2-19.3c-2.3-3.4-4.6-6.6-8-9
		c-3.7-2.7-7.8-5.1-6.9-10.5c0.5-3.5,1.1-6.6-0.2-9.9c-1.1-3.2-3-6.2-5-9c-2.1-3-4.4-6-6-9.4c-2.1-4.3-2.1-8.7-2.5-13.5
		c-0.5-7.8-5.1-13.1-9.8-19c-2.3-3-4.4-6-5.5-9.8c-1.1-4.4,0.4-8.7,0.7-13.1c0.2-3.7-1.1-6.9-3.7-9.6c-2.8-2.7-6.7-5-7.4-9
		c-0.7-4.1,0.7-8.2-0.4-12.4c-0.7-3.2-2.5-6.2-4.3-8.9c-3.9-5.7-9.4-11.3-10.1-18.4c-0.7-8,5.7-14.7,5.5-22.7
		c-0.2-3.7-2.1-6.6-4.8-9c-3-2.8-5.7-5.5-7.4-9.2c-3.5-7.3-3.4-16-2.8-23.9c0.5-8.2,2-16.3,1.6-24.5c-0.2-8.9-2.3-17.9-5.7-26.1
		c-1.8-4.3-3.9-8.2-6.6-11.9C401.7,228.5,400.6,229,401.1,229.8L401.1,229.8z"/>
	<path class="st0" d="M276.5,233.5c-3.2,10.6,1.8,21.1,5.5,30.8c2,5.1,3.7,10.6,3.9,16.3c0.2,6.4-2.7,11.7-5.3,17.4
		c-2.3,4.8-4.1,10.1-2.7,15.4c1.4,5,4.8,8.9,7.8,12.8c3.5,4.8,6.4,9.8,5.9,16c-0.4,6.4-3,12.6-2.7,19c0.5,11.5,12.9,19.5,11.3,31.6
		c-0.7,5.9-4.1,11.3-4.1,17.2c0,5.5,3.4,9.4,6.6,13.3c2,2.1,3.7,4.6,4.6,7.4c0.9,3.4,0.2,6.9-0.5,10.3c-1.1,5.7-1.6,10.5,1.6,15.4
		c3,4.8,7.6,9.6,4.6,15.4c-2.3,4.6-6.7,8-8,13.1c-2.7,10.8,7.6,20,8.9,30.1c1.4,11.5-7.1,21.5-8.7,32.4c-0.4,2.5-0.4,5.1,0.2,7.6
		c0.2,0.9,1.4,0.5,1.2-0.4c-2.5-11.5,6.2-21.8,8.2-32.8c0.9-5.1,0-9.9-2-14.7c-2.1-5.1-5.5-10.1-6.7-15.8
		c-1.4-6.2,1.8-10.6,5.3-15.2c2.8-3.7,4.8-8,3-12.6c-2-5.1-6.9-8.9-7.4-14.7c-0.5-6,2.8-11.9,1.8-17.9c-0.9-5.3-5.3-8.9-8.3-12.9
		c-1.8-2.5-3-5.3-3-8.3c0-3.2,1.1-6.2,2.1-9.2c1.8-5.3,3.2-10.6,1.2-16.1c-1.8-5.1-5.1-9.4-7.6-14.2c-1.4-2.8-2.7-5.7-2.8-8.9
		c-0.4-3.4,0.4-6.7,1.1-10.1c1.2-5.7,2.5-11.5,0.5-17.2c-3.5-9.9-15.2-16.8-12.9-28.4c1.2-5.9,5-11,6.9-16.7
		c1.6-5,1.6-10.1,0.4-15.2c-2.3-10.8-9-20.7-9.6-32.1c-0.2-2.8,0.2-5.5,0.9-8.2C278.1,232.9,276.9,232.6,276.5,233.5L276.5,233.5z"
		/>
	<path class="st0" d="M262.5,239.7c7.8,7.6,8.3,19.1,6.6,29.3c-2,11.3-7.1,22-8.7,33.5c-0.7,6-0.4,11.7,1.6,17.4
		c0.9,2.8,2.1,5.9,2.3,8.9c0.2,2.7-0.2,5.1-1.1,7.6c-2.7,8.5-9.4,16.5-8.2,25.9c1.2,9.8,11.5,16.3,11,26.2
		c-0.4,5.7-3.7,10.6-5.3,15.8c-1.4,4.3-1.1,8.7,0.2,12.9c2.7,8.5,9,15.6,10.6,24.5c1.1,5.5-1.1,9.8-3.9,14.2
		c-2.7,4.6-4.1,8.9-3,14.2c1.2,6.6,4.4,12.6,4.4,19.5c0.2,6.2-1.4,12.2-3.2,18.1c-3.2,11-7.6,22.5-4.8,34.2c0.2,0.9,1.4,0.5,1.2-0.4
		c-2.7-11.2,1.6-22.2,4.6-32.8c1.4-5,2.8-9.9,3.2-15.1c0.5-5.7-0.5-11-2.3-16.3c-2-6.2-3.7-12.2-0.5-18.3c2.1-4.3,5.1-7.8,5.7-12.8
		c0.9-8.7-5.1-16.7-8.7-24.1c-2-4.1-3.5-8.7-3.2-13.3c0.5-5.5,3.7-10.3,5.3-15.4c1.4-4.6,1.1-9-1.1-13.5c-2.1-4.3-5.3-8-7.3-12.4
		c-4.8-10.3,2.1-19.3,5.7-28.5c1.8-4.4,2.5-8.9,1.4-13.5c-0.7-2.8-1.8-5.5-2.7-8.2c-0.9-3.2-1.2-6.6-1.2-10.1
		c0.4-13.7,7.1-25.9,9.2-39.2c1.6-10.3,0.7-21.6-7.1-29.3C262.9,238.3,261.8,239.2,262.5,239.7L262.5,239.7z"/>
	<path class="st0" d="M318.9,226.9c-5.1,9.9-9.9,20.6-11,31.9c-0.5,5.5,0.2,11,2.3,16c2,4.4,5,8,8.3,11.5c3.5,3.9,7.6,8,9,13.3
		c1.8,5.9,0.2,12.1,0.2,18.1c0,6,2.5,10.8,5.3,16c3,5.5,5.7,11.2,8,17c4.6,11.7,7.8,24.1,9.4,36.5c0.9,6.2,1.2,12.6,1.2,19
		c0,4.8-1.4,11,1.6,15.2c1.6,2.1,3.9,3.4,5.7,5.3c2,2.3,2.8,5.3,3.5,8.3c1.1,5.3,1.6,10.6,3,16c2.8,10.6,7.8,20.7,14.4,29.4
		c3.7,5,8.2,9.2,12.6,13.7c2.7,2.7,4.3,5.7,4.1,9.6c-0.2,3.5-1.6,6.7-2.3,10.1c-2.5,10.5,2,21.6,11.5,27.1c0.7,0.4,1.4-0.7,0.7-1.1
		c-4.6-2.7-8.2-6.9-10.1-11.9c-2-5.3-1.6-10.5-0.2-16c1.2-4.8,3-10.1,0.5-14.9c-1.1-2.1-2.8-3.7-4.6-5.3c-2.1-2-4.1-3.9-6-6
		c-7.6-8.3-13.5-18.3-17.2-28.9c-1.8-5.1-3.2-10.5-3.9-16c-0.7-5-1.1-10.3-4.3-14.4c-1.4-1.8-3.4-3-5-4.6c-2.7-2.7-2.7-5.9-2.5-9.4
		c0.2-6,0.2-11.9-0.4-17.7c-0.9-11.7-3.2-23.4-6.7-34.7c-1.8-5.7-3.9-11-6.4-16.5c-2.5-5.5-5.7-10.6-8.2-16
		c-2.8-6-2.1-12.1-1.8-18.4c0.4-5.1-0.2-10.1-2.8-14.7c-2.7-4.6-6.7-8.2-10.1-12.2c-4.3-5-6.9-10.6-7.4-17
		c-1.1-13.1,5-26.2,10.8-37.6C320.5,226.7,319.2,226.2,318.9,226.9L318.9,226.9z"/>
	<path class="st0" d="M348.3,239c4.6,5.7,7.1,12.6,7.4,19.9c0.2,3.5-0.2,7.1-1.2,10.6c-0.9,3.4-2.8,6.2-3.9,9.4
		c-2,5.9,2.8,8.5,6.9,11.3c2.7,2,4.8,4.3,4.6,7.8c-0.2,3-1.4,5.9-2.5,8.7c-0.9,2.5-1.6,5.3-1.2,8c0.4,2.7,2,4.8,3.9,6.7
		c2.7,2.7,5.5,4.8,6.9,8.5c1.2,3.7,1.2,7.6,1.6,11.3c0.9,7.6,2.7,15.1,5.5,22.2c1.4,3.5,3,6.9,5,10.1c2,3.4,4.4,6.2,6,9.6
		c2.3,4.6,0,9.4,0.4,14.2c0.4,4.1,2.7,7.8,5,11c4.6,6.6,10.3,12.2,17,16.7c0.7,0.5,1.4-0.7,0.7-1.1c-6.4-4.3-12.1-9.8-16.5-16.3
		c-2.3-3.4-4.8-7.3-4.8-11.5c0-3.9,1.4-7.6,0.4-11.5c-1.1-3.4-3.5-6.2-5.3-9.2c-2.1-3.2-3.9-6.7-5.5-10.1
		c-3.4-7.4-5.5-15.6-6.4-23.8c-0.7-6.7-0.5-13.1-5.7-18.3c-2.5-2.3-5.5-4.4-6.6-8c-0.9-3,0.2-6.2,1.2-9c1.6-4.6,3.9-9.9,0.5-14.4
		c-3.5-4.6-12.4-6-9.4-13.5c1.4-3.5,3.2-6.7,4.1-10.5c0.7-3.5,1.1-7.1,0.7-10.6c-0.5-7.1-3.2-14-7.8-19.5
		C348.7,237.4,347.8,238.4,348.3,239L348.3,239z"/>
	<path class="st0" d="M392.8,221.1c7.6,13.8,12.2,29.3,13.7,45c0.7,7.1,0.4,14,0.2,21.1c-0.2,5.7-0.2,11.3,0.9,17
		c1.1,5,3,9.9,6.9,13.3c4.4,3.7,9.9,4.6,15.2,6c3.2,0.9,6.2,2,8.5,4.4c2.1,2.5,3,5.7,3.7,8.9c1.1,5.5,1.6,11.5,6.2,15.2
		c2.5,2,5.3,3.2,7.8,5.1c2.5,2,3.5,4.6,4.1,7.6c0.9,4.6,0.2,10.3,3.2,14.4c1.6,2.1,3.9,3,6.4,3.4c3.5,0.7,6.6,1.6,8.2,5.1
		c1.2,2.7,1.8,5.5,3.4,7.8c1.6,2.1,4.1,3.4,6.4,4.4c3,1.2,6.2,2.5,8.3,5.3c1.8,2.5,2.7,5.7,3.2,8.7c1.2,5.7,2.7,11,7.1,14.9
		c4.1,3.5,9.4,5.7,14.2,8c6,2.8,11.2,6.2,15.1,11.9c3.7,5.5,6.2,11.9,10.1,17.4c3.5,5,7.6,9.4,12.4,13.1
		c9.4,7.3,21.3,11.9,33.3,10.3c2.8-0.4,5.7-1.1,8.3-2.1c0.7-0.4,0.5-1.6-0.4-1.2c-11.9,4.6-24.8,2-35.5-4.6
		c-5.5-3.4-10.3-7.6-14.4-12.6c-4.3-5.1-7.1-11.2-10.3-16.8c-3-5.3-6.7-10.1-12.1-13.3c-5-3-10.3-4.8-15.2-7.6
		c-5.5-3.2-8.9-7.4-10.5-13.7c-1.2-5.3-1.8-11.5-6.4-15.1c-2.1-1.8-5-2.7-7.4-3.7c-3.2-1.4-5.5-3.4-6.7-6.7c-0.9-2.3-1.6-5-3.2-6.9
		c-1.8-2.3-4.4-2.8-7.3-3.4c-3.2-0.7-5.9-1.8-7.1-5c-1.1-2.5-1.1-5.3-1.4-7.8c-0.5-5.1-1.4-9.8-5.9-12.8c-2.5-1.8-5.7-3-7.8-5.3
		c-2.3-2.3-3.2-5.3-3.9-8.3c-1.1-5.3-1.4-11.5-5.7-15.6c-4.1-3.9-10.1-4.4-15.4-5.9c-5.9-1.6-10.3-5.1-12.8-10.8
		c-4.8-11.2-2.1-24.3-2.3-36c-0.4-14.7-3.5-29.4-9.4-42.9c-1.4-3.5-3.2-6.9-5-10.3C393.5,219.6,392.5,220.4,392.8,221.1L392.8,221.1
		z"/>
	<g>
		<path class="st3" d="M216.1,286.5c6.9-1.8,11.2-8.3,15.4-13.8c4.3-5.7,10.1-11.3,17.2-10.8c12.2,0.9,19.7,19.9,31.4,16.1
			c4.3-1.2,6.9-5.3,9.2-9c3.4-5.3,6.6-10.5,9.9-15.8c3.2-5,6.4-10.1,11.5-12.9c12.1-7.1,27.1,0.7,38.6,8.3
			c11.7,7.6,26.4,15.8,38.6,8.9c12.9-7.3,14.2-27.3,27.3-34.6c17.4-9.8,39.2,11,58,4.4c10.1-3.5,16.3-14.4,17.2-25.2
			c0.9-10.6-2.7-21.3-6.7-31.2c-11.7-29.3-28.5-56.9-51.2-78.7c-22.7-22-51.6-37.9-82.8-42.7c-48.2-7.4-99.8,14.2-128.4,53.9
			c-17.6,24.5-26.4,54.6-28.7,84.7s1.4,60.5,7.1,90.1C199.8,278,198.2,290.9,216.1,286.5z"/>
	</g>
	<g>
		
			<ellipse transform="matrix(0.9944 -0.1059 0.1059 0.9944 -13.6107 39.0165)" class="st4" cx="360.6" cy="147.7" rx="19.9" ry="20.6"/>
		<circle cx="349.4" cy="143.2" r="7.4"/>
		
			<ellipse transform="matrix(0.9944 -0.1059 0.1059 0.9944 -15.5219 28.8943)" class="st4" cx="264.3" cy="160.6" rx="19.9" ry="20.6"/>
		<circle cx="252.9" cy="156.2" r="7.4"/>
		<path class="st2" d="M234.9,131.5c10.1-8.2,23.9-11.3,36.7-8.5c1.6,0.4,2.3-2.1,0.7-2.5c-13.7-3.2-28.4,0.4-39.2,9.2
			C231.7,130.8,233.6,132.6,234.9,131.5L234.9,131.5z"/>
		<path class="st2" d="M335.6,115.4c9.8-6.9,22.3-8.5,33.3-4.3c1.6,0.5,2.3-2,0.7-2.5c-11.7-4.4-25.4-2.7-35.5,4.6
			C332.9,114.2,334.3,116.5,335.6,115.4L335.6,115.4z"/>
		<path d="M236.3,158.7c3.5-0.2,6.4-1.4,8.3-4.6c1.4-2.5,2.7-5.1,5-6.9c6.7-5.3,16.3-8.5,24.3-4.1c0.7,0.4,1.4-0.7,0.7-1.1
			c-7.6-4.3-16.3-2-23.4,2.5c-2.1,1.4-4.1,3-5.5,5.1c-0.9,1.4-1.8,3.2-2.7,4.6c-1.4,2.3-4.1,3-6.7,3.2
			C235.6,157.4,235.4,158.7,236.3,158.7L236.3,158.7z"/>
		<path d="M332.7,142.7c3.9,1.1,7.1-1.6,9.4-4.6c3-3.9,6.2-7.3,10.8-9.4c8.7-4.1,20.4-1.4,24.1,8.2c0.4,0.7,1.6,0.4,1.2-0.4
			c-3.2-7.8-11.7-12.1-20-10.8c-4.4,0.7-8.7,2.8-12.1,5.7c-1.8,1.6-3.4,3.5-4.8,5.3c-2,2.7-4.6,5.7-8.3,4.6
			C332.2,141.1,331.8,142.5,332.7,142.7L332.7,142.7z"/>
		
			<ellipse transform="matrix(0.9863 -0.165 0.165 0.9863 -29.7197 45.4349)" class="st5" cx="258.6" cy="201.6" rx="16.7" ry="6.6"/>
		
			<ellipse transform="matrix(0.9863 -0.165 0.165 0.9863 -23.6237 67.0799)" class="st5" cx="391.9" cy="175.7" rx="16.7" ry="6.6"/>
	</g>
	<path class="st2" d="M310.2,211.5c10.5,5.1,23.8,2.8,31.7-5.9c2.3-2.5-1.4-6.4-3.7-3.7c-6.2,6.7-16.8,9.2-25.4,5.1
		c-1.2-0.7-2.8-0.4-3.7,0.9C308.6,209,309,211,310.2,211.5L310.2,211.5z"/>
</g>
</svg>
