<?xml version="1.0" encoding="utf-8"?>
<!-- Generator: Adobe Illustrator 25.3.0, SVG Export Plug-In . SVG Version: 6.00 Build 0)  -->
<svg version="1.1" id="Calque_1" xmlns="http://www.w3.org/2000/svg" xmlns:xlink="http://www.w3.org/1999/xlink" x="0px" y="0px"
	 viewBox="0 0 800 800" style="enable-background:new 0 0 800 800;" xml:space="preserve">
<style type="text/css">
	.st0{fill:#EFCBA8;}
	.st1{fill:#F4BC62;}
	.st2{fill:#DD9D2A;}
	.st3{fill:#FFFFFF;}
	.st4{fill:#C16425;}
	.st5{fill:#C48723;}
	.st6{fill:#D8A04E;}
</style>
<g>
	<g>
		<g>
			<path class="st0" d="M423.6,749.7c4.3,0,4.3-6.8,0-6.8C419,742.8,419,749.7,423.6,749.7L423.6,749.7z"/>
		</g>
	</g>
	<g>
		<path class="st1" d="M403.7,498.2c0,0-3.7,96.1,89.9,131.7l48.4-9.6L403.7,498.2z"/>
		<path class="st1" d="M678.8,539.7c0,0-34,38.1-73.3,47.2c0,0-97.7,22.6-112.3-76.2l-14.6,16l39.3,96.5l69.4-5.9l63.4-24.2
			l30.1-42.2L678.8,539.7z"/>
		<path class="st1" d="M741.1,336.4c0,0,24.4,6.2-2.7,102.7c0,0-30.1,99.7-123.7,84.4c0,0-108.6-12.1-150.9-75.5l51.4,9.1l78.5,27.2
			l45.2,9.1l42.2-21.2l21.2-30.1l24.2-45.2L741.1,336.4z"/>
		<path class="st1" d="M424.3,508.4c0,0-24.2,36.3-27.2,114.8c0,0-12.6,58.7,54.1,123l-14.8,0.9l-75.5-78.5L345.8,563
			C345.8,562.8,427.3,421,424.3,508.4z"/>
		<path class="st1" d="M47.7,554.1c0,0,29.4,68.9,147.2,68.9c0,0,96.5,5.9,142-117.8l-21.2-15.1l-63.4,78.5l-99.7,21.2L47.7,554.1z"
			/>
		<path class="st1" d="M98.4,351.4c0,0-27.2,48.4-3,114.8c5,13.9,15.7,26.5,27.6,35.4c29.7,22.8,92.9,52.3,173.2-16.9l7.3-12.6
			l-33.3-18l-69.4,24.2l-69.4-3l-21.2-36.3L98.4,351.4z"/>
		<g>
			<path class="st2" d="M575.1,642.6c-150.9,13.5-157-143.1-157-143.1c-65.3,155-3.4,221.2,23.5,235.8c7.3,3.9,12.3,11.2,12.6,19.6
				c0.2,13-12.3,7.8-12.3,7.8l0,0c-33.8,2.3-75.8-57.1-75.8-57.1l0,0c-64.1-107.3-38.8-194.2-38.8-194.2
				c-99.7,126.9-184.4,96.5-184.4,96.5c-57.1-15.7-83.8-38.8-95.6-53.9C40,545,48.9,531.9,60,535.6c11.2,3.7,24.4,11,34.2,16.9
				c13.2,8,27.8,13,43.1,14.6c107.7,10,163.6-99.5,163.6-99.5c-8.7,23.3-76.5,46.8-76.5,46.8C165.5,526,131,499.3,131,499.3
				c-57.5-29-42.9-115.9-37.7-140.6c1.4-6.2,7.1-10.7,13.5-9.8c11.6,1.8,7.8,19.2,7.8,19.2c-3.9,118,68.5,95.6,68.5,95.6
				c67.6-15.3,19.4-129.9,1.8-167.5c-4.6-9.8-8.4-19.6-11.4-30.1c-7.8-27.6-12.8-56.1-8.4-84.4c8.4-54.3,51.1-98.4,100.9-121.9
				c44.3-21,95.9-27.6,143.6-16.2s91.3,41.5,116.6,83.5c33.1,54.8,25.1,123,12.3,185.8c-30.4,149.9,94.9,145.8,94.9,145.8
				c83.1-9.1,85.6-115,85.6-115c4.1-22.4,12.6-20.5,19.4-14.4c7.5,6.8,10.5,17.1,9.4,27.2c-30.8,260.6-254.2,112.7-254.2,112.7
				c-10.5,116.2,59.8,122.1,78.3,124.4c0,0,64.4,5.2,94-43.1c0,0,14.8-21.2,25.8-5.7c5.5,7.8,5.7,18.3,1.1,26.5
				C681.3,592.2,648.2,636,575.1,642.6z"/>
		</g>
		<ellipse class="st3" cx="323.2" cy="267" rx="28.8" ry="30.1"/>
		<circle cx="343" cy="257.8" r="8.9"/>
		<ellipse class="st3" cx="431.8" cy="248.9" rx="28.8" ry="30.1"/>
		<circle cx="451.7" cy="239.6" r="8.9"/>
		<path class="st4" d="M365.4,331.8c0,0,33.3,5.9,54.3-9.1C419.7,322.9,398.7,374.2,365.4,331.8z"/>
		<path class="st5" d="M291.5,234.6c3.4-15.1,17.8-26.5,33.3-26.2c4.3,0,4.3-6.8,0-6.8c-18.5-0.5-36.1,13.2-39.9,31.3
			C283.9,237.1,290.5,238.9,291.5,234.6L291.5,234.6z"/>
		<path class="st5" d="M398.5,212c6.2-13.2,22.4-20.1,36.3-15.5c4.1,1.4,5.9-5.2,1.8-6.6c-16.4-5.7-36.5,2.7-43.8,18.5
			c-0.7,1.6-0.5,3.7,1.1,4.8C395.3,214,397.6,213.6,398.5,212L398.5,212z"/>
		<g>
			
				<ellipse transform="matrix(0.6644 -0.7474 0.7474 0.6644 -410.713 244.2513)" class="st6" cx="66.6" cy="579.4" rx="2.1" ry="6.2"/>
			
				<ellipse transform="matrix(0.2318 -0.9728 0.9728 0.2318 -498.2799 594.2556)" class="st6" cx="127.1" cy="612.6" rx="3.4" ry="10"/>
			
				<ellipse transform="matrix(0.1135 -0.9935 0.9935 0.1135 -475.6892 710.0059)" class="st6" cx="160" cy="621.6" rx="4.1" ry="12.1"/>
			
				<ellipse transform="matrix(0.9972 -7.465806e-02 7.465806e-02 0.9972 -45.8909 16.9533)" class="st6" cx="203.8" cy="622.3" rx="12.1" ry="4.1"/>
			
				<ellipse transform="matrix(0.9418 -0.3362 0.3362 0.9418 -191.8227 118.4187)" class="st6" cx="246.1" cy="613.2" rx="15.7" ry="5.2"/>
			
				<ellipse transform="matrix(0.9972 -7.465806e-02 7.465806e-02 0.9972 -45.4826 15.5723)" class="st6" cx="185.5" cy="616.1" rx="9.6" ry="3.2"/>
			
				<ellipse transform="matrix(0.9685 -0.2491 0.2491 0.9685 -144.274 74.4204)" class="st6" cx="221.9" cy="607.3" rx="9.6" ry="3.2"/>
			
				<ellipse transform="matrix(0.8041 -0.5945 0.5945 0.8041 -295.1257 283.2582)" class="st6" cx="282.2" cy="589.4" rx="15.7" ry="5.2"/>
			
				<ellipse transform="matrix(0.8549 -0.5188 0.5188 0.8549 -269.0376 219.2442)" class="st6" cx="257.4" cy="590.6" rx="9.6" ry="3.2"/>
			
				<ellipse transform="matrix(0.6761 -0.7368 0.7368 0.6761 -310.3317 408.3245)" class="st6" cx="309.3" cy="557.1" rx="15.7" ry="5.2"/>
			
				<ellipse transform="matrix(0.7404 -0.6722 0.6722 0.7404 -306.5706 338.6065)" class="st6" cx="285.1" cy="566.2" rx="9.6" ry="3.2"/>
			
				<ellipse transform="matrix(0.3966 -0.918 0.918 0.3966 -493.8658 455.8379)" class="st6" cx="99.8" cy="603.6" rx="2.3" ry="6.6"/>
			
				<ellipse transform="matrix(0.557 -0.8305 0.8305 0.557 -456.3114 333.6516)" class="st6" cx="84.6" cy="594.6" rx="2.1" ry="6.2"/>
		</g>
		<ellipse transform="matrix(0.866 -0.5 0.5 0.866 -233.0955 292.8969)" class="st6" cx="430" cy="581.4" rx="5.2" ry="15.7"/>
		
			<ellipse transform="matrix(0.6123 -0.7906 0.7906 0.6123 -304.002 591.4321)" class="st6" cx="451.1" cy="605.7" rx="3" ry="9.1"/>
		<g>
			
				<ellipse transform="matrix(0.1974 -0.9803 0.9803 0.1974 203.4463 1055.5049)" class="st6" cx="746.3" cy="403.5" rx="6.2" ry="2.1"/>
			
				<ellipse transform="matrix(0.6376 -0.7704 0.7704 0.6376 -98.9878 722.1697)" class="st6" cx="718.1" cy="466.3" rx="10" ry="3.4"/>
			
				<ellipse transform="matrix(0.7254 -0.6884 0.6884 0.7254 -148.249 615.339)" class="st6" cx="697" cy="493.5" rx="12.1" ry="4.1"/>
			
				<ellipse transform="matrix(0.9614 -0.275 0.275 0.9614 -117.4839 202.2284)" class="st6" cx="662.4" cy="520.1" rx="12.1" ry="4.1"/>
			<ellipse class="st6" cx="620.3" cy="523.3" rx="8" ry="2.7"/>
			
				<ellipse transform="matrix(0.9387 -0.3447 0.3447 0.9387 -133.6502 263.2645)" class="st6" cx="673.5" cy="507.5" rx="9.6" ry="3.2"/>
			<ellipse class="st6" cx="639.1" cy="516" rx="9.6" ry="3.2"/>
			<ellipse transform="matrix(0.1414 -0.99 0.99 0.1414 -7.5466 1027.3203)" class="st6" cx="588.5" cy="518" rx="3.2" ry="9.6"/>
			
				<ellipse transform="matrix(0.1818 -0.9833 0.9833 0.1818 -54.4875 937.6744)" class="st6" cx="536.2" cy="501.6" rx="1.8" ry="5.2"/>
			
				<ellipse transform="matrix(0.1818 -0.9833 0.9833 0.1818 -28.7055 986.3566)" class="st6" cx="578.4" cy="510.4" rx="1.8" ry="5.2"/>
			
				<ellipse transform="matrix(0.1818 -0.9833 0.9833 0.1818 -9.9367 1021.1621)" class="st6" cx="608.7" cy="516.6" rx="1.8" ry="5.2"/>
			
				<ellipse transform="matrix(0.2552 -0.9669 0.9669 0.2552 -75.2754 926.6851)" class="st6" cx="563.9" cy="512.2" rx="3.2" ry="9.6"/>
			
				<ellipse transform="matrix(0.4027 -0.9153 0.9153 0.4027 -139.8717 768.0441)" class="st6" cx="518.6" cy="491.2" rx="3.2" ry="9.6"/>
			
				<ellipse transform="matrix(0.4947 -0.8691 0.8691 0.4947 -13.4547 861.9366)" class="st6" cx="734.5" cy="442.5" rx="6.6" ry="2.3"/>
			
				<ellipse transform="matrix(0.3284 -0.9445 0.9445 0.3284 94.8701 986.0576)" class="st6" cx="740.8" cy="426.3" rx="6.2" ry="2.1"/>
		</g>
		<g>
			
				<ellipse transform="matrix(0.8535 -0.521 0.521 0.8535 -234.3878 122.7057)" class="st6" cx="101.1" cy="478.3" rx="1.4" ry="3.9"/>
			
				<ellipse transform="matrix(0.9463 -0.3232 0.3232 0.9463 -145.5699 55.7599)" class="st6" cx="95.1" cy="466.2" rx="1.4" ry="3.9"/>
			
				<ellipse transform="matrix(0.9463 -0.3232 0.3232 0.9463 -141.815 54.1481)" class="st6" cx="92.1" cy="454.1" rx="1.4" ry="3.9"/>
			
				<ellipse transform="matrix(0.5056 -0.8628 0.8628 0.5056 -371.4556 362.5628)" class="st6" cx="130.6" cy="505.4" rx="2.1" ry="6.2"/>
			
				<ellipse transform="matrix(0.3985 -0.9172 0.9172 0.3985 -384.4925 446.7883)" class="st6" cx="148.4" cy="516.5" rx="2.5" ry="7.5"/>
			
				<ellipse transform="matrix(0.2196 -0.9756 0.9756 0.2196 -376.3314 579.0154)" class="st6" cx="173.8" cy="524.7" rx="2.5" ry="7.5"/>
			
				<ellipse transform="matrix(0.9989 -4.672414e-02 4.672414e-02 0.9989 -24.401 9.9172)" class="st6" cx="199.9" cy="526.9" rx="9.6" ry="3.2"/>
			
				<ellipse transform="matrix(0.2196 -0.9756 0.9756 0.2196 -377.3071 564.418)" class="st6" cx="164.1" cy="518" rx="2.1" ry="5.9"/>
			
				<ellipse transform="matrix(0.9892 -0.1467 0.1467 0.9892 -73.8507 37.02)" class="st6" cx="214.1" cy="519.2" rx="5.9" ry="2.1"/>
			
				<ellipse transform="matrix(0.9426 -0.3339 0.3339 0.9426 -161.4143 106.1904)" class="st6" cx="228.2" cy="522.6" rx="9.6" ry="3.2"/>
			
				<ellipse transform="matrix(0.8617 -0.5074 0.5074 0.8617 -224.6082 199.0543)" class="st6" cx="252.9" cy="511.6" rx="9.6" ry="3.2"/>
			
				<ellipse transform="matrix(0.9043 -0.4269 0.4269 0.9043 -187.7815 163.2695)" class="st6" cx="270.3" cy="500.5" rx="5.9" ry="2.1"/>
			
				<ellipse transform="matrix(0.6472 -0.7623 0.7623 0.6472 -336.6251 263.417)" class="st6" cx="116.3" cy="495.4" rx="1.4" ry="4.1"/>
			
				<ellipse transform="matrix(0.7751 -0.6319 0.6319 0.7751 -283.3967 178.6599)" class="st6" cx="109.2" cy="487.4" rx="1.4" ry="3.9"/>
		</g>
		<g>
			<g>
				<path class="st0" d="M116.2,464.2c4.3,0,4.3-6.8,0-6.8C111.6,457.3,111.6,464.2,116.2,464.2L116.2,464.2z"/>
			</g>
		</g>
		<g>
			<g>
				<path class="st0" d="M138.1,490.4c4.3,0,4.3-6.8,0-6.8S133.8,490.4,138.1,490.4L138.1,490.4z"/>
			</g>
		</g>
		<g>
			<g>
				<path class="st0" d="M138.1,470.8c4.3,0,4.3-6.8,0-6.8S133.8,470.8,138.1,470.8L138.1,470.8z"/>
			</g>
		</g>
		<g>
			<g>
				<path class="st0" d="M107.3,429c4.3,0,4.3-6.8,0-6.8C102.9,422.2,102.9,429,107.3,429L107.3,429z"/>
			</g>
		</g>
		<g>
			<g>
				<path class="st0" d="M102.9,402.8c4.3,0,4.3-6.8,0-6.8C98.6,395.9,98.6,402.8,102.9,402.8L102.9,402.8z"/>
			</g>
		</g>
		<g>
			<g>
				<path class="st0" d="M177.6,490.4c4.3,0,4.3-6.8,0-6.8C173.2,483.6,173.2,490.4,177.6,490.4L177.6,490.4z"/>
			</g>
		</g>
		<g>
			<g>
				<path class="st0" d="M206.1,497c4.3,0,4.3-6.8,0-6.8C201.8,490.2,201.8,497,206.1,497L206.1,497z"/>
			</g>
		</g>
		<g>
			<g>
				<path class="st0" d="M188.5,505.9c4.3,0,4.3-6.8,0-6.8C184.2,499.1,184.2,505.9,188.5,505.9L188.5,505.9z"/>
			</g>
		</g>
		<g>
			<g>
				<path class="st0" d="M162.3,503.6c4.3,0,4.3-6.8,0-6.8C157.7,496.8,157.7,503.6,162.3,503.6L162.3,503.6z"/>
			</g>
		</g>
		<g>
			<g>
				<path class="st0" d="M162.3,479.5c4.3,0,4.3-6.8,0-6.8C157.7,472.6,157.7,479.5,162.3,479.5L162.3,479.5z"/>
			</g>
		</g>
		<g>
			<g>
				<path class="st0" d="M247.9,554.1c4.3,0,4.3-6.8,0-6.8C243.5,547.2,243.5,554.1,247.9,554.1L247.9,554.1z"/>
			</g>
		</g>
		<g>
			<g>
				<path class="st0" d="M243.5,578.3c4.3,0,4.3-6.8,0-6.8C239,571.4,239,578.3,243.5,578.3L243.5,578.3z"/>
			</g>
		</g>
		<g>
			<g>
				<path class="st0" d="M230.3,558.6c4.3,0,4.3-6.8,0-6.8S226,558.6,230.3,558.6L230.3,558.6z"/>
			</g>
		</g>
		<g>
			<g>
				<path class="st0" d="M212.7,576.2c4.3,0,4.3-6.8,0-6.8S208.4,576.2,212.7,576.2L212.7,576.2z"/>
			</g>
		</g>
		<g>
			<g>
				<path class="st0" d="M212.7,593.8c4.3,0,4.3-6.8,0-6.8S208.4,593.8,212.7,593.8L212.7,593.8z"/>
			</g>
		</g>
		<g>
			<g>
				<path class="st0" d="M195.1,587.2c4.3,0,4.3-6.8,0-6.8S190.8,587.2,195.1,587.2L195.1,587.2z"/>
			</g>
		</g>
		<g>
			<g>
				<path class="st0" d="M190.8,576.2c4.3,0,4.3-6.8,0-6.8C186.5,569.4,186.2,576.2,190.8,576.2L190.8,576.2z"/>
			</g>
		</g>
		<g>
			<g>
				<path class="st0" d="M168.9,580.6c4.3,0,4.3-6.8,0-6.8C164.3,573.7,164.3,580.6,168.9,580.6L168.9,580.6z"/>
			</g>
		</g>
		<g>
			<g>
				<path class="st0" d="M168.9,604.8c4.3,0,4.3-6.8,0-6.8C164.3,597.9,164.3,604.8,168.9,604.8L168.9,604.8z"/>
			</g>
		</g>
		<g>
			<g>
				<path class="st0" d="M144.7,595.9c4.3,0,4.3-6.8,0-6.8C140.1,589,140.1,595.9,144.7,595.9L144.7,595.9z"/>
			</g>
		</g>
		<g>
			<g>
				<path class="st0" d="M144.7,582.8c4.3,0,4.3-6.8,0-6.8C140.1,576,140.1,582.8,144.7,582.8L144.7,582.8z"/>
			</g>
		</g>
		<g>
			<g>
				<path class="st0" d="M120.5,578.3c4.3,0,4.3-6.8,0-6.8C116.2,571.4,116.2,578.3,120.5,578.3L120.5,578.3z"/>
			</g>
		</g>
		<g>
			<g>
				<path class="st0" d="M98.6,569.6c4.3,0,4.3-6.8,0-6.8C94,562.8,94,569.6,98.6,569.6L98.6,569.6z"/>
			</g>
		</g>
		<g>
			<g>
				<path class="st0" d="M92,582.8c4.3,0,4.3-6.8,0-6.8C87.7,576,87.7,582.8,92,582.8L92,582.8z"/>
			</g>
		</g>
		<g>
			<g>
				<path class="st0" d="M67.8,554.1c4.3,0,4.3-6.8,0-6.8C63.5,547.2,63.5,554.1,67.8,554.1L67.8,554.1z"/>
			</g>
		</g>
		<g>
			<g>
				<path class="st0" d="M83.1,560.7c4.3,0,4.3-6.8,0-6.8C78.8,553.9,78.8,560.7,83.1,560.7L83.1,560.7z"/>
			</g>
		</g>
		<g>
			<g>
				<path class="st0" d="M478.4,573.9c4.3,0,4.3-6.8,0-6.8C474,567.1,474,573.9,478.4,573.9L478.4,573.9z"/>
			</g>
		</g>
		<g>
			<g>
				<path class="st0" d="M485,543.1c4.3,0,4.3-6.8,0-6.8C480.7,536.3,480.7,543.1,485,543.1L485,543.1z"/>
			</g>
		</g>
		<g>
			<g>
				<path class="st0" d="M487.3,521.2c4.3,0,4.3-6.8,0-6.8C482.7,514.4,482.7,521.2,487.3,521.2L487.3,521.2z"/>
			</g>
		</g>
		<g>
			<g>
				<path class="st0" d="M474,516.9c4.3,0,4.3-6.8,0-6.8C469.7,510,469.7,516.9,474,516.9L474,516.9z"/>
			</g>
		</g>
		<g>
			<g>
				<path class="st0" d="M500.3,580.6c4.3,0,4.3-6.8,0-6.8C496,573.7,496,580.6,500.3,580.6L500.3,580.6z"/>
			</g>
		</g>
		<g>
			<g>
				<path class="st0" d="M506.9,609.1c4.3,0,4.3-6.8,0-6.8C502.6,602.2,502.6,609.1,506.9,609.1L506.9,609.1z"/>
			</g>
		</g>
		<g>
			<g>
				<path class="st0" d="M533.4,602.5c4.3,0,4.3-6.8,0-6.8C528.8,595.6,528.8,602.5,533.4,602.5L533.4,602.5z"/>
			</g>
		</g>
		<g>
			<g>
				<path class="st0" d="M544.3,626.7c4.3,0,4.3-6.8,0-6.8C539.8,619.8,539.8,626.7,544.3,626.7L544.3,626.7z"/>
			</g>
		</g>
		<g>
			<g>
				<path class="st0" d="M572.9,624.4c4.3,0,4.3-6.8,0-6.8C568.3,617.5,568.3,624.4,572.9,624.4L572.9,624.4z"/>
			</g>
		</g>
		<g>
			<g>
				<path class="st0" d="M623.3,625.1c4.3,0,4.3-6.8,0-6.8S619,625.1,623.3,625.1L623.3,625.1z"/>
			</g>
		</g>
		<g>
			<g>
				<path class="st0" d="M619,606.8c4.3,0,4.3-6.8,0-6.8C614.4,600,614.4,606.8,619,606.8L619,606.8z"/>
			</g>
		</g>
		<g>
			<g>
				<path class="st0" d="M597.1,617.8c4.3,0,4.3-6.8,0-6.8C592.5,610.9,592.5,617.8,597.1,617.8L597.1,617.8z"/>
			</g>
		</g>
		<g>
			<g>
				<path class="st0" d="M570.6,604.8c4.3,0,4.3-6.8,0-6.8C566.2,597.9,566.2,604.8,570.6,604.8L570.6,604.8z"/>
			</g>
		</g>
		<g>
			<g>
				<path class="st0" d="M643.2,587.2c4.3,0,4.3-6.8,0-6.8C638.6,580.3,638.6,587.2,643.2,587.2L643.2,587.2z"/>
			</g>
		</g>
		<g>
			<g>
				<path class="st0" d="M645.2,604.8c4.3,0,4.3-6.8,0-6.8S640.9,604.8,645.2,604.8L645.2,604.8z"/>
			</g>
		</g>
		<g>
			<g>
				<path class="st0" d="M665.1,580.6c4.3,0,4.3-6.8,0-6.8S660.5,580.6,665.1,580.6L665.1,580.6z"/>
			</g>
		</g>
		<g>
			<g>
				<path class="st0" d="M542.1,486.1c4.3,0,4.3-6.8,0-6.8C537.7,479.2,537.7,486.1,542.1,486.1L542.1,486.1z"/>
			</g>
		</g>
		<g>
			<g>
				<path class="st0" d="M577.2,484c4.3,0,4.3-6.8,0-6.8S572.9,484,577.2,484L577.2,484z"/>
			</g>
		</g>
		<g>
			<g>
				<path class="st0" d="M594.8,497c4.3,0,4.3-6.8,0-6.8S590.4,497,594.8,497L594.8,497z"/>
			</g>
		</g>
		<g>
			<g>
				<path class="st0" d="M583.8,466.4c4.3,0,4.3-6.8,0-6.8S579.5,466.4,583.8,466.4L583.8,466.4z"/>
			</g>
		</g>
		<g>
			<g>
				<path class="st0" d="M605.7,475.1c4.3,0,4.3-6.8,0-6.8C601.4,468.3,601.4,475.1,605.7,475.1L605.7,475.1z"/>
			</g>
		</g>
		<g>
			<g>
				<path class="st0" d="M616.7,505.9c4.3,0,4.3-6.8,0-6.8C612.3,499.1,612.3,505.9,616.7,505.9L616.7,505.9z"/>
			</g>
		</g>
		<g>
			<g>
				<path class="st0" d="M678.3,472.8c4.3,0,4.3-6.8,0-6.8C673.7,466,673.7,472.8,678.3,472.8L678.3,472.8z"/>
			</g>
		</g>
		<g>
			<g>
				<path class="st0" d="M658.5,488.4c4.3,0,4.3-6.8,0-6.8C654.1,481.5,654.1,488.4,658.5,488.4L658.5,488.4z"/>
			</g>
		</g>
		<g>
			<g>
				<path class="st0" d="M702.3,453.2c4.3,0,4.3-6.8,0-6.8C697.9,446.4,697.9,453.2,702.3,453.2L702.3,453.2z"/>
			</g>
		</g>
		<g>
			<g>
				<path class="st0" d="M702.3,429c4.3,0,4.3-6.8,0-6.8C697.9,422.2,697.9,429,702.3,429L702.3,429z"/>
			</g>
		</g>
		<g>
			<g>
				<path class="st0" d="M722.1,420.3c4.3,0,4.3-6.8,0-6.8C717.8,413.5,717.8,420.3,722.1,420.3L722.1,420.3z"/>
			</g>
		</g>
		<g>
			<g>
				<path class="st0" d="M726.5,393.9c4.3,0,4.3-6.8,0-6.8C722.1,387,722.1,393.9,726.5,393.9L726.5,393.9z"/>
			</g>
		</g>
		<g>
			<g>
				<path class="st0" d="M737.4,367.6c4.3,0,4.3-6.8,0-6.8C733.1,360.8,733.1,367.6,737.4,367.6L737.4,367.6z"/>
			</g>
		</g>
		<g>
			<g>
				<path class="st0" d="M342.4,558.6c4.3,0,4.3-6.8,0-6.8C337.8,551.8,337.8,558.6,342.4,558.6L342.4,558.6z"/>
			</g>
		</g>
		<g>
			<g>
				<path class="st0" d="M335.7,595.9c4.3,0,4.3-6.8,0-6.8C331.2,589,331.2,595.9,335.7,595.9L335.7,595.9z"/>
			</g>
		</g>
		<g>
			<g>
				<path class="st0" d="M362,587.2c4.3,0,4.3-6.8,0-6.8C357.6,580.3,357.6,587.2,362,587.2L362,587.2z"/>
			</g>
		</g>
		<g>
			<g>
				<path class="st0" d="M364.3,606.8c4.3,0,4.3-6.8,0-6.8C359.9,600,359.7,606.8,364.3,606.8L364.3,606.8z"/>
			</g>
		</g>
		<g>
			<g>
				<path class="st0" d="M342.4,617.8c4.3,0,4.3-6.8,0-6.8C337.8,610.9,337.8,617.8,342.4,617.8L342.4,617.8z"/>
			</g>
		</g>
		<g>
			<g>
				<path class="st0" d="M353.3,652.9c4.3,0,4.3-6.8,0-6.8C348.7,646.1,348.7,652.9,353.3,652.9L353.3,652.9z"/>
			</g>
		</g>
		<g>
			<g>
				<path class="st0" d="M359.9,628.9c4.3,0,4.3-6.8,0-6.8C355.4,622.1,355.4,628.9,359.9,628.9L359.9,628.9z"/>
			</g>
		</g>
		<g>
			<g>
				<path class="st0" d="M370.9,650.9c4.3,0,4.3-6.8,0-6.8C366.3,644,366.3,650.9,370.9,650.9L370.9,650.9z"/>
			</g>
		</g>
		<g>
			<g>
				<path class="st0" d="M377.5,690.3c4.3,0,4.3-6.8,0-6.8C372.9,683.5,372.9,690.3,377.5,690.3L377.5,690.3z"/>
			</g>
		</g>
		<g>
			<g>
				<path class="st0" d="M390.5,714.5c4.3,0,4.3-6.8,0-6.8C386.2,707.7,386.2,714.5,390.5,714.5L390.5,714.5z"/>
			</g>
		</g>
		<g>
			<g>
				<path class="st0" d="M414.7,727.5c4.3,0,4.3-6.8,0-6.8C410.4,720.7,410.4,727.5,414.7,727.5L414.7,727.5z"/>
			</g>
		</g>
		<g>
			<g>
				<path class="st0" d="M388.5,661.8c4.3,0,4.3-6.8,0-6.8C383.9,655,383.9,661.8,388.5,661.8L388.5,661.8z"/>
			</g>
		</g>
		<g>
			<g>
				<path class="st0" d="M364.3,672.8c4.3,0,4.3-6.8,0-6.8C359.9,665.9,359.7,672.8,364.3,672.8L364.3,672.8z"/>
			</g>
		</g>
		<g>
			<g>
				<path class="st0" d="M379.6,552c4.3,0,4.3-6.8,0-6.8C375.2,545.2,375.2,552,379.6,552L379.6,552z"/>
			</g>
		</g>
		<g>
			<g>
				<path class="st0" d="M265.4,534.5c4.3,0,4.3-6.8,0-6.8C261.1,527.6,261.1,534.5,265.4,534.5L265.4,534.5z"/>
			</g>
		</g>
		<g>
			<g>
				<path class="st0" d="M274.1,549.7c4.3,0,4.3-6.8,0-6.8S269.8,549.7,274.1,549.7L274.1,549.7z"/>
			</g>
		</g>
		<g>
			<g>
				<path class="st0" d="M239,490.4c4.3,0,4.3-6.8,0-6.8C234.6,483.6,234.6,490.4,239,490.4L239,490.4z"/>
			</g>
		</g>
		<g>
			<g>
				<path class="st0" d="M456.5,563c4.3,0,4.3-6.8,0-6.8S452.1,563,456.5,563L456.5,563z"/>
			</g>
		</g>
		<g>
			<g>
				<path class="st0" d="M452.1,527.8c4.3,0,4.3-6.8,0-6.8C447.6,521,447.6,527.8,452.1,527.8L452.1,527.8z"/>
			</g>
		</g>
		<g>
			<g>
				<path class="st0" d="M559.6,455.5c4.3,0,4.3-6.8,0-6.8S555.3,455.5,559.6,455.5L559.6,455.5z"/>
			</g>
		</g>
		<g>
			<g>
				<path class="st0" d="M645.2,470.8c4.3,0,4.3-6.8,0-6.8S640.9,470.8,645.2,470.8L645.2,470.8z"/>
			</g>
		</g>
		<g>
			<g>
				<path class="st0" d="M474,611.4c4.3,0,4.3-6.8,0-6.8C469.7,604.5,469.7,611.4,474,611.4L474,611.4z"/>
			</g>
		</g>
		<g>
			<g>
				<path class="st0" d="M463.1,582.8c4.3,0,4.3-6.8,0-6.8C458.5,576,458.5,582.8,463.1,582.8L463.1,582.8z"/>
			</g>
		</g>
	</g>
</g>
</svg>
